<?xml version="1.0" encoding="UTF-8"?>
<svg xmlns="http://www.w3.org/2000/svg" viewBox="0 0 682.33 595.99">
  <defs>
    <style>
      .cls-1 {
        fill: #fff;
      }

      .cls-2 {
        stroke-width: 5px;
      }

      .cls-2, .cls-3, .cls-4, .cls-5 {
        fill: none;
        stroke: #fff;
        stroke-miterlimit: 10;
      }

      .cls-3 {
        stroke-width: 2.68px;
      }

      .cls-4 {
        stroke-dasharray: 0 0 0 0 0 0 0 0 0 0 0 0;
        stroke-width: 5.94px;
      }

      .cls-6 {
        opacity: .33;
      }

      .cls-5 {
        stroke-width: 2.15px;
      }
    </style>
  </defs>
  <g id="Layer_1" data-name="Layer 1"/>
  <g id="Layer_2" data-name="Layer 2">
    <g id="Comix">
      <g id="accept">
        <g>
          <path class="cls-1" d="M543.47,60.54c11.9,3.89,23.12,9.7,33.24,17.05,10.13,7.36,19.17,16.22,26.8,26.14,7.64,9.93,13.89,20.93,18.43,32.61,4.53,11.65,7.34,23.98,8.11,36.46s-.59,25.29-3.82,37.49-8.27,23.81-14.84,34.54c-6.57,10.73-14.66,20.54-23.98,29-4.69,4.25-9.7,8.16-14.98,11.66-1.36,.9-2.74,1.78-4.14,2.62-.21,.13-1.07,.63-.14,.09,.98-.57-.27,.14-.52,.28-.7,.38-1.41,.76-2.13,1.13-2.88,1.49-5.82,2.86-8.81,4.1-11.57,4.8-23.91,7.64-36.39,8.59-12.48,.94-25.1,0-37.33-2.64s-24.12-7.03-35.13-13.01c-10.98-5.96-21.11-13.53-29.79-22.53-8.9-9.21-16.18-19.9-21.64-31.48-5.5-11.65-9.16-24.16-10.97-36.91s-1.78-25.81,.16-38.57c1.94-12.78,5.8-25.28,11.61-36.84,5.52-10.99,12.82-21.05,21.37-29.87,4.26-4.39,8.84-8.47,13.68-12.21,2.53-1.96,5.14-3.82,7.81-5.58,1.31-.86,2.63-1.7,3.97-2.52,.25-.15,1.39-.82,.42-.26s-.07,.05,.15-.07c.78-.43,1.56-.85,2.35-1.27,11.38-5.96,23.66-10.19,36.32-12.41s26.77-2.45,40.03-.4c6.84,1.06,13.59,2.69,20.18,4.82,.34,.11,1.86-1.04,2.18-1.23,.51-.29,1.02-.59,1.53-.89,.09-.06,.55-.41,.63-.38-13.58-4.39-27.83-6.6-42.11-6.24-13.29,.34-26.49,2.87-38.98,7.41s-23.95,10.85-34.56,18.37c-10.22,7.25-19.4,15.98-27.07,25.89s-14.08,21.59-18.31,33.76-6.62,25.58-6.96,38.75,1.27,26.32,4.79,38.98,8.99,24.84,16.32,35.78,16.2,20.18,26.49,27.99,21.58,13.88,33.6,18.28,24.71,7.09,37.5,7.87c12.7,.78,25.53-.3,37.88-3.41,12.95-3.26,24.84-8.94,36.21-15.86,10.9-6.63,20.74-14.93,29.2-24.48,8.54-9.64,15.68-20.52,21.1-32.2,5.39-11.6,9.08-23.99,10.73-36.68s1.17-25.69-1.4-38.28-7.11-24.65-13.28-35.85-14.01-21.56-23.14-30.55-19.54-16.63-30.92-22.46c-5.5-2.82-11.21-5.19-17.08-7.11-.34-.11-1.86,1.04-2.18,1.23-.51,.29-1.02,.59-1.53,.89-.09,.05-.55,.41-.63,.38Z"/>
          <path class="cls-1" d="M472.24,113.21c-6.58-1.39-13.37-1.57-20.02-.66s-13.09,2.89-19.14,5.73c-3.95,1.85-7.75,4.06-11.45,6.35-2.85,1.76-5.58,3.72-8.16,5.86-5.18,4.3-9.77,9.33-13.49,14.94s-6.52,11.69-8.22,18.14-2.24,13.55-1.53,20.37,2.61,13.54,5.44,19.8,6.63,12.13,11.15,17.33,9.83,9.79,15.69,13.45c5.8,3.62,12.17,6.36,18.83,7.91,6.77,1.57,13.8,1.88,20.69,.93s13.49-3.09,19.67-6.16c3.98-1.98,7.87-4.23,11.57-6.68,2.89-1.91,5.64-4.02,8.23-6.33,5.21-4.64,9.76-10.04,13.41-16,3.62-5.91,6.33-12.39,7.86-19.16,1.55-6.87,1.83-13.97,.83-20.94s-3.23-13.82-6.33-20.18-6.81-11.86-11.3-17c-4.02-4.61-8.61-8.79-13.76-12.11-4.21-2.71-8.92-4.97-13.92-5.68-2-.28-4.04-.3-6.03,.08-.18,.03-.52,.28-.64,.35-.51,.29-1.02,.58-1.53,.88s-1.02,.59-1.53,.89c-.17,.1-.44,.35-.63,.38,4.32-.82,8.79,.18,12.8,1.81,5.1,2.08,9.73,5.25,13.87,8.84,4.83,4.18,9.07,9.04,12.67,14.31,3.85,5.63,6.99,11.76,9.19,18.22s3.49,13.58,3.42,20.57-1.4,13.57-3.78,19.93-5.78,12.35-9.96,17.72-9.17,10.19-14.72,14.19c-1.4,1.01-2.84,1.97-4.32,2.88-.13,.08-.31,.18-.39,.24,.59-.37,1.22-.72,1.83-1.05-.31,.17-.7,.38-1.04,.57-.78,.41-1.56,.81-2.35,1.19-3.07,1.48-6.26,2.72-9.52,3.7-6.5,1.95-13.33,2.85-20.11,2.49s-13.33-1.94-19.52-4.55c-6.24-2.63-12.04-6.27-17.19-10.65s-9.66-9.48-13.38-15.11-6.66-11.8-8.58-18.27-2.82-13.19-2.53-19.91,1.79-13.18,4.34-19.3,6.02-11.69,10.24-16.71,9.27-9.54,14.79-13.22c.68-.46,1.38-.9,2.08-1.34,.15-.1,.31-.19,.46-.28,.17-.1,.55-.33,.02-.02s-1.05,.63-1.59,.92c-.06,.03-.16,.09,.12-.07,.16-.09,.32-.17,.47-.26,1.5-.81,3.02-1.56,4.57-2.26,2.99-1.34,6.07-2.47,9.22-3.37,6.3-1.8,12.87-2.66,19.42-2.4,3.19,.13,6.37,.52,9.49,1.18,.08,.02,.66-.36,.64-.35,.51-.29,1.02-.58,1.53-.88s1.02-.59,1.53-.89c.11-.06,.53-.4,.63-.38Z"/>
          <path class="cls-1" d="M511.73,145.61c-3.44-.02-6.86,.58-10.11,1.72-1.62,.57-3.19,1.27-4.7,2.08-2.41,1.29-4.83,2.65-7.1,4.17-5.7,3.83-10.33,9.29-13,15.63s-3.17,13.57-1.13,20.25,6.22,12.45,11.6,16.74,12.08,7.07,19.01,7.33c.85,.03,1.7,.02,2.55-.02,.14,0,.58-.32,.64-.35,.51-.29,1.02-.58,1.53-.88s1.02-.59,1.53-.89c.14-.09,.47-.37,.63-.38-6.68,.33-13.28-1.71-18.85-5.35s-10.15-8.87-12.89-14.94-3.45-12.95-1.81-19.46,5.34-12.33,10.24-16.81c1.24-1.14,2.56-2.19,3.95-3.14,.33-.22,.66-.44,.99-.65,.1-.06,.2-.12,.3-.19,.46-.29,1.1-.64-1.26,.72s-1.66,.94-1.14,.66c.09-.05,.18-.1,.27-.15,.77-.41,1.56-.78,2.36-1.12,3.05-1.3,6.3-2.14,9.6-2.39,.82-.06,1.64-.09,2.46-.09,.13,0,.6-.33,.64-.35,.51-.29,1.02-.58,1.53-.88s1.02-.59,1.53-.89c.14-.08,.48-.38,.63-.38h0Z"/>
        </g>
        <g>
          <path class="cls-3" d="M176.75,240.31c21.85,8.28,37.19,31.3,36.43,54.65-.76,23.35-17.58,45.32-39.92,52.15-22.34,6.83-48.57-1.97-62.26-20.9-13.69-18.93-13.85-46.59-.37-65.67,13.48-19.08,40.23-30.03,66.12-20.22Z"/>
          <path class="cls-5" d="M174.88,263.02c15.77,9.93,21.48,32.97,12.16,49.11-9.31,16.14-32.12,22.73-48.6,14.05-16.49-8.68-23.95-31.22-15.91-48.02,8.04-16.81,31.83-28.04,52.35-15.13Z"/>
          <path class="cls-5" d="M179.7,277.71c-2.56-4.16-8.01-6.07-12.78-5.05-4.78,1.02-8.76,4.63-10.92,9.02-2.15,4.38-2.62,9.45-2.05,14.31,.54,4.62,2.04,9.2,4.87,12.9,.8,1.05,1.71,2.02,2.76,2.81,4.53,3.39,11.29,2.7,15.81-.69,4.53-3.4,7.02-8.97,7.84-14.57,.43-2.95,.44-5.99-.34-8.87-1.19-4.35-4.13-8.13-5.19-9.85Z"/>
          <path class="cls-5" d="M157.82,285.31l5.56,.31c2.57,3.31,4.07,7.77,2.75,11.75-1.32,3.98-6.12,6.81-9.92,5.05"/>
          <path class="cls-5" d="M197.97,337.21c2.44-1.23,5.27-1.33,8-1.42l42.2-1.29c1.91-.06,4.01-.19,5.39-1.52,1.64-1.58,1.59-4.18,1.43-6.46-.1-1.38-.33-2.98-1.53-3.68-.69-.4-1.53-.39-2.32-.36l-44.12,1.34"/>
          <path class="cls-5" d="M210.9,318.5l34.94-.37c3.05-.03,6.58-.3,8.34-2.8,1.85-2.63,.54-6.54-2.03-8.47-2.57-1.93-5.96-2.32-9.18-2.36-9.64-.12-19.3,2.3-28.84,.98"/>
          <path class="cls-5" d="M215.79,289.62c11.05-.88,22.15-1.11,33.23-.68,.7,.03,1.43,.06,2.05,.4,.75,.41,1.21,1.19,1.58,1.96,1.18,2.46,1.84,5.34,.93,7.91-.91,2.57-3.8,4.54-6.4,3.71"/>
          <path class="cls-5" d="M248.08,286.53l5.66-2.79c-.18-3.71-.86-8.02-4.12-9.81-1.78-.98-3.93-.93-5.97-.86l-31.31,1.15"/>
          <path class="cls-5" d="M202.09,253.83c14.39,1.73,28.91,2.31,43.39,1.75,1.69-.07,3.44-.13,4.99,.53,3.3,1.41,4.45,5.97,2.84,9.17-1.62,3.2-5.31,4.98-8.89,5.1"/>
          <path class="cls-5" d="M249.73,253.34c3.52-3.24,1.49-9.64-2.62-12.09-4.11-2.46-9.24-2.15-14.01-1.82-16.32,1.16-32.67,1.87-49.02,2.14"/>
          <path class="cls-5" d="M142,235.71c-3.11-1.24-3.13-6.08-.77-8.46,2.36-2.38,5.97-2.91,9.31-3.2,8.56-.74,17.17-.75,25.77-.76l46.36-.04,19.77-.02c2.92,0,6.07,.07,8.41,1.81,2.47,1.84,3.41,5.47,2.15,8.28-1.26,2.81-4.6,4.51-7.62,3.89"/>
          <path class="cls-5" d="M236.42,220.25c1.95-1.41,3.96-2.89,5.09-5,1.14-2.12,1.11-5.06-.72-6.62-1.4-1.19-3.39-1.27-5.23-1.3-33.52-.45-67.05-.9-100.57-1.35-3.62-.05-8.01,.35-9.62,3.59-1.39,2.81,.34,6.35,2.97,8.04s5.89,2.01,9.01,2.27l14.84,1.27"/>
          <path class="cls-4" d="M.97,472.08c49.07-16.95,93.22-47.89,125.89-88.23l40.36-3.51c2.11-.18,4.47-.3,6.11,1.06,3.6,2.98-.02,8.79-3.98,11.28-11.82,7.43-27.56,8.15-39.07,2.53-37.99,37.46-80.41,70.43-126.09,98.01"/>
          <path class="cls-4" d="M262.36,359.52l-207.92-7c3.21,8.63,11.34,14.69,20.06,17.66,8.72,2.97,18.08,3.3,27.28,3.61,50.15,1.66,100.29,3.31,150.44,4.97,4.71,.16,9.62,.28,13.92-1.67,4.3-1.95,7.75-6.62,6.68-11.22-1.07-4.59-8.06-6.94-10.47-6.35Z"/>
        </g>
        <path class="cls-2" d="M503.48,187.9c-48.24,83.29-68.65,182.39-57.27,277.97,8.51-10.24,11.52-24.8,7.77-37.57l9.72,4.63c5.26-2.04,6.43-9.34,4.29-14.56s-6.48-9.17-9.69-13.81c-9.34-13.46-8.51-31.31-6.56-47.57,7.04-58.94,23.86-116.7,49.56-170.19"/>
        <path class="cls-2" d="M560.74,452.31c12.09-12.11,33.77-9.36,46.46,2.12s18,29.04,20.25,46.01c2.22,16.81,1.04,36.15-11.63,47.42-10.5,9.34-25.78,10.36-39.82,10.91-81.09,3.19-162.18,6.38-243.27,9.56-20.35,.8-42.09,1.26-59.41-9.47-18.02-11.17-27.71-33.82-24.67-54.8,3.04-20.98,18.04-39.49,37.41-48.12,16.91-7.53,36.01-7.89,54.52-8.12,83.53-1.05,167.06-2.11,220.16,4.49Z"/>
        <g>
          <path class="cls-1" d="M333.73,509.52c-5.04,7.81-6.06,9.34-6.42,10.51-.37,1.02-.51,2.26-.66,3.21-.29,1.61-1.46,3.07-4.53,3.07-2.56,0-3.21-1.61-2.92-3.29,.22-1.61,1.97-4.31,5.33-9.64l16.28-25.04c1.82-2.85,2.85-4.6,3.36-6.06,.37-2.63,2.34-4.96,4.82-4.96,2.26,0,3.21,1.61,2.99,2.77-.22,1.24-.8,1.68-.95,2.77-.44,2.19,3.43,14.09,4.38,18.1,3.07,11.02,4.89,18.54,4.45,21.02-.51,2.77-2.34,4.31-4.82,4.31-2.04,0-3.36-1.17-3.07-2.77,.22-1.17,.73-1.9,.88-2.63,.15-1.09-.07-3.5-2.26-12.56l-16.86,1.17Zm15.55-6.64l-3.07-13.5-8.83,14.38,11.9-.88Z"/>
          <path class="cls-1" d="M401.77,499.23c-.37,2.12-1.83,3.65-4.53,3.65-1.53,0-1.68-1.02-1.9-1.9-.22-.88-.51-1.83-2.85-1.83s-4.6,1.31-6.94,3.65c-2.77,2.55-5.91,6.64-6.79,11.61-.8,4.53,.88,7.15,4.89,7.15,1.61,0,3.14-.66,4.6-1.61,1.61-.95,3.58-2.48,4.75-4.38,.8-1.97,1.39-3.36,3.58-3.36,2.55,0,2.92,1.97,2.77,3.07-.15,.8-2.92,5.33-7.37,8.4-3.36,2.41-6.64,3.65-10.88,3.65-6.72,0-9.93-4.96-8.76-11.75,1.46-8.4,5.18-12.34,9.93-16.86,2.34-2.26,7.45-5.18,11.1-5.18,5.26,0,8.98,2.55,8.39,5.69Z"/>
          <path class="cls-1" d="M439.8,499.23c-.37,2.12-1.83,3.65-4.53,3.65-1.53,0-1.68-1.02-1.9-1.9-.22-.88-.51-1.83-2.85-1.83s-4.6,1.31-6.94,3.65c-2.77,2.55-5.91,6.64-6.79,11.61-.8,4.53,.88,7.15,4.89,7.15,1.61,0,3.14-.66,4.6-1.61,1.61-.95,3.58-2.48,4.75-4.38,.8-1.97,1.39-3.36,3.58-3.36,2.55,0,2.92,1.97,2.77,3.07-.15,.8-2.92,5.33-7.37,8.4-3.36,2.41-6.64,3.65-10.88,3.65-6.72,0-9.93-4.96-8.76-11.75,1.46-8.4,5.18-12.34,9.93-16.86,2.34-2.26,7.45-5.18,11.1-5.18,5.26,0,8.98,2.55,8.39,5.69Z"/>
          <path class="cls-1" d="M478.05,502.51c-.58,3.29-3.21,6.28-19.34,9.27l-3.21,.58c-.51,1.17-.88,2.48-1.17,3.94-.58,3.58,.88,5.04,3.8,5.04,4.67,0,9.05-2.92,10.58-4.82,.15-1.75,1.75-3.21,3.94-3.21,2.48,0,2.77,1.68,2.56,3.14-.36,2.04-7.81,10.66-18.83,10.66-5.77,0-9.64-2.7-8.32-10.29,2.41-13.5,12.92-23.29,21.75-23.29,7.67,0,8.76,6.13,8.25,8.98Zm-20.37,4.67c12.34-2.26,14.16-3.36,14.38-4.38,.29-1.75-.51-3.65-3.43-3.65-3.87,0-8.18,3.36-10.95,8.03Z"/>
          <path class="cls-1" d="M497.84,502.59h.07c5.04-5.84,9.27-8.61,15.11-8.61,4.6,0,7.23,3.72,6.13,9.71-2.55,14.75-14.67,23.14-21.83,23.14-1.46,0-2.7-.51-3.5-1.53l-2.99,17.08c.22,.58,.37,1.24,.22,2.12-.36,2.12-1.82,3.07-4.89,3.07-1.61,0-3.07-.44-2.7-2.63,.22-1.17,.58-2.04,1.1-2.77l7.59-42.85c-.29-.51-.44-1.24-.29-2.12,.44-2.55,2.41-3.43,4.01-3.43,2.85,0,3.8,1.09,3.43,3.14-.07,.73-.66,1.53-.88,1.97l-.58,3.72Zm-2.85,16.21c.51,1.68,1.61,2.41,2.99,2.41,5.04,0,13.07-7.67,14.67-16.5,.44-2.7-.15-4.89-2.56-4.89-1.9,0-3.8,.8-7.52,4.38-2.12,1.9-4.31,4.38-6.35,7.3l-1.24,7.3Z"/>
          <path class="cls-1" d="M539.37,488.79c-.15-.29-.29-.58-.07-1.82,.36-1.97,2.26-2.56,4.74-2.56,1.39,0,2.99,.29,2.7,2.26-.15,.51-.44,1.17-.95,1.75l-.8,4.53,8.69-1.53c.44-.36,.88-.58,1.39-.58,1.61,0,2.26,1.46,1.97,2.99-.44,2.34-1.53,3.5-2.92,3.5-.51,0-.95-.07-1.02-.37l-9.12,1.53-3.5,19.71c-.22,1.24,0,2.12,.8,2.12,1.39,0,7.15-3.21,10.58-6.93,.22-1.68,1.46-2.85,3.07-2.85,2.7,0,3.21,1.46,2.85,3.5-.51,2.85-13.72,12.85-19.78,12.85-3.36,0-4.82-2.63-4.23-6.13l3.72-21.1-4.45,.73c-.44,.36-.88,.58-1.46,.66-1.68-.07-2.55-1.24-2.19-3.43,.36-1.83,1.82-3.14,3.28-3.14,.44,0,.88,.22,1.02,.44l4.82-.88,.88-5.26Z"/>
        </g>
        <g class="cls-6">
          <!-- <path class="cls-1" d="M611.9,592.01h-188c-26.55,0-53.1,0-79.65,0s-53.08,0-79.62,0h-73.61c-20.43,0-40.86,0-61.29,0-14.22,0-28.45,0-42.67,0-5.92,0-11.84,.03-17.76,0-34.67-.17-63.25-28.19-63.97-62.9-.13-6.13-.02-12.27-.02-18.41s0-30.82,0-46.23c0-22.07,0-44.14,0-66.22,0-25.83,0-51.66,0-77.49s0-53.27,0-79.9c0-24.49,0-48.98,0-73.47,0-19.46,0-38.92,0-58.38,0-11.31,0-22.62,0-33.92,0-1.71,0-3.42,0-5.13,.1-17.17,6.81-33.75,18.8-46.05C36.55,11.15,53.67,4.08,71.44,3.98c1.39,0,2.78,0,4.17,0,9.66,0,19.32,0,28.99,0,17.09,0,34.17,0,51.26,0,22.41,0,44.82,0,67.23,0,25.63,0,51.27,0,76.9,0,26.87,0,53.73,0,80.6,0s51.53,0,77.3,0h120.66c10.16,0,20.31,0,30.47,0,1.68,0,3.37,0,5.05,0,15.64,.09,30.84,5.7,42.55,16.11,13.74,12.22,21.28,29.91,21.39,48.21,0,1.54,0,3.07,0,4.61v33.08c0,19.27,0,38.53,0,57.8s0,48.76,0,73.15c0,26.61,0,53.23,0,79.84,0,26,0,52,0,77.99,0,22.2,0,44.41,0,66.61v46.71c0,5.99,.04,11.97,0,17.96-.22,36.19-30.03,65.71-66.13,65.96-2.47,.02,.41,3.98,2.29,3.97,37.11-.26,67.78-30.65,68.12-67.81,.05-6,0-12.01,0-18.02v-47.13c0-22.41,0-44.82,0-67.23v-78.72c0-26.93,0-53.86,0-80.78s0-48.92,0-73.37c0-19.14,0-38.28,0-57.41v-31.94c0-3.4,.01-6.79-.32-10.19-1.7-17.52-10.24-33.9-23.38-45.58C645.74,6.34,629.08,.1,611.9,0c-1.41,0-2.83,0-4.24,0-9.81,0-19.63,0-29.44,0-17.42,0-34.84,0-52.27,0-22.72,0-45.45,0-68.17,0-26.04,0-52.08,0-78.12,0s-54.18,0-81.27,0-51.71,0-77.57,0c-22.66,0-45.33,0-67.99,0-17.18,0-34.36,0-51.53,0-9.49,0-18.98,0-28.47,0-1.85,0-3.71-.03-5.56,.03-17.93,.5-35.21,8.26-47.55,21.26C7.67,33.95,1.13,50.88,1.03,68.3c0,1.61,0,3.22,0,4.83v34.04c0,19.53,0,39.05,0,58.58,0,24.82,0,49.64,0,74.46,0,26.98,0,53.96,0,80.94s0,51.95,0,77.93c0,22.13,0,44.27,0,66.4s0,30.23,0,45.35c0,7.81-.45,15.88,.52,23.65,4.36,34.84,35,61.31,69.91,61.51,5.4,.03,10.81,0,16.21,0,14.04,0,28.09,0,42.13,0,20.4,0,40.81,0,61.21,0,24.76,0,49.52,0,74.27,0,26.86,0,53.72,0,80.57,0h268.33c2.46,0-.41-3.97-2.29-3.97Z"/> -->
        </g>
      </g>
    </g>
  </g>
</svg>