<?xml version="1.0" encoding="UTF-8"?>
<svg xmlns="http://www.w3.org/2000/svg" viewBox="0 0 681.4 595.99">
  <defs>
    <style>
      .cls-1 {
        fill: #fff;
      }

      .cls-2 {
        stroke-width: 5px;
      }

      .cls-2, .cls-3, .cls-4 {
        fill: none;
        stroke: #fff;
        stroke-miterlimit: 10;
      }

      .cls-3 {
        stroke-linecap: round;
        stroke-width: 4px;
      }

      .cls-4 {
        stroke-width: 4.77px;
      }
    </style>
  </defs>
  <g id="Layer_1" data-name="Layer 1"/>
  <g id="Layer_2" data-name="Layer 2">
    <g id="Comix">
      <g id="ctm-how-videochat">
        <!-- <g id="frame">
          <path class="cls-1" d="M610.97,592.01h-115.31c-24.23,0-48.46,0-72.69,0-26.55,0-53.1,0-79.65,0s-53.08,0-79.62,0c-24.54,0-49.07,0-73.61,0-20.43,0-40.86,0-61.29,0h-42.67c-5.92,0-11.84,.03-17.76,0-34.67-.17-63.25-28.19-63.97-62.9-.13-6.13-.02-12.27-.02-18.41s0-30.82,0-46.23c0-22.07,0-44.14,0-66.22,0-25.83,0-51.66,0-77.49s0-53.27,0-79.9c0-24.49,0-48.98,0-73.47,0-19.46,0-38.92,0-58.38,0-11.31,0-22.62,0-33.92,0-1.71,0-3.42,0-5.13,.1-17.17,6.81-33.75,18.8-46.05C35.62,11.15,52.74,4.08,70.51,3.98c1.39,0,2.78,0,4.17,0,9.66,0,19.32,0,28.99,0,17.09,0,34.17,0,51.26,0,22.41,0,44.82,0,67.23,0,25.63,0,51.27,0,76.9,0s53.73,0,80.6,0,51.53,0,77.3,0h68.03c17.54,0,35.09,0,52.63,0,10.16,0,20.31,0,30.47,0,1.68,0,3.37,0,5.05,0,15.64,.09,30.84,5.7,42.55,16.11,13.74,12.22,21.28,29.91,21.39,48.21,0,1.54,0,3.07,0,4.61v33.08c0,19.27,0,38.53,0,57.8,0,24.38,0,48.76,0,73.15s0,53.23,0,79.84c0,26,0,52,0,77.99,0,22.2,0,44.41,0,66.61v46.71c0,5.99,.04,11.97,0,17.96-.22,36.19-30.03,65.71-66.13,65.96-2.47,.02,.41,3.98,2.29,3.97,37.11-.26,67.78-30.65,68.12-67.81,.05-6,0-12.01,0-18.02v-114.36c0-26.24,0-52.48,0-78.72s0-53.86,0-80.78c0-24.46,0-48.92,0-73.37s0-38.28,0-57.41v-31.94c0-3.4,.01-6.79-.32-10.19-1.7-17.52-10.24-33.9-23.38-45.58C644.81,6.34,628.15,.1,610.97,0c-1.41,0-2.83,0-4.24,0-9.81,0-19.63,0-29.44,0-17.42,0-34.84,0-52.27,0-22.72,0-45.45,0-68.17,0-26.04,0-52.08,0-78.12,0h-81.27c-25.86,0-51.71,0-77.57,0-22.66,0-45.33,0-67.99,0-17.18,0-34.36,0-51.53,0-9.49,0-18.98,0-28.47,0-1.85,0-3.71-.03-5.56,.03C48.4,.53,31.12,8.29,18.77,21.29S.2,50.88,.1,68.3c0,1.61,0,3.22,0,4.83v34.04c0,19.53,0,39.05,0,58.58,0,24.82,0,49.64,0,74.46,0,26.98,0,53.96,0,80.94s0,51.95,0,77.93c0,22.13,0,44.27,0,66.4s0,30.23,0,45.35c0,7.81-.45,15.88,.52,23.65,4.36,34.84,35,61.31,69.91,61.51,5.4,.03,10.81,0,16.21,0,14.04,0,28.09,0,42.13,0,20.4,0,40.81,0,61.21,0,24.76,0,49.52,0,74.27,0,26.86,0,53.72,0,80.57,0h80.01c24.53,0,49.05,0,73.58,0,20.09,0,40.18,0,60.27,0,13.43,0,26.87,0,40.3,0h14.17c2.46,0-.41-3.97-2.29-3.97Z"/>
        </g> -->
        <g>
          <path class="cls-2" d="M217.17,124.68c-.04-10.2-.09-20.39-.13-30.59,.25-6.19-1.53-9.76-7.18-12.59-13.18-7.07-28.82-7.31-43.77-7.38l-41.2-.2c-22.22-.81-36.6,5.21-40.86,28.78-2.11,15.77,2.1,31.69,3.87,47.36,.44,3.09,.89,6.24,2.23,9.06,3.31,6.98,11.44,10.52,19.15,11.04,7.71,.52,15.36-1.34,23.04-2.21,9.53-1.07,19.21-.59,28.64,1.16,7.1,1.32,14.16,3.37,21.38,3.17,12.63-.35,24.77-8.23,30.24-19.62,5.47-11.4,4.59-25.72,4.58-27.96h0Z"/>
          <path class="cls-3" d="M160.29,98.82c-13-5-22.34-.87-30.17,10.03s-4.04,28.21,7.56,34.98c11.6,6.77,28.39,1.71,34.49-10.25,6.1-11.96,.46-28.39-11.62-34.25"/>
          <path class="cls-2" d="M456.13,218.81c-99.46-12.95-116.43,5.8-150.35,46.65-43.81,52.75-20.61,144.06,38.61,178.63,59.22,34.57,145,8.76,176.14-52.34,31.14-61.1-14.74-158.42-65.34-173.08"/>
        </g>
        <path class="cls-4" d="M628.91,48.24c-23.65-17.46-55.31-18.11-84.71-18.05-141.59,.27-283.19,.54-424.78,.81-24.23,.05-52.03,1.75-66.85,20.93-10.95,14.17-11.16,33.61-10.88,51.52,2,128.89,3.99,257.79,5.99,386.68,.22,14.5,.71,29.89,8.71,41.98,13.09,19.78,40.33,23.01,64.02,24.01,156.77,6.62,313.77-.38,470.53-7.38,16.84-.75,37.09-3.72,43.81-19.18,2.41-5.56,2.51-11.8,2.56-17.86,1.13-128.91,2.27-257.83,3.4-386.74,.25-28.11,5.45-64-11.78-76.72Z"/>
      </g>
    </g>
  </g>
</svg>