<?xml version="1.0" encoding="UTF-8"?>
<svg xmlns="http://www.w3.org/2000/svg" viewBox="0 0 324.79 330" height="170">
  <defs>
    <style>
      .cls-1 {
        stroke-width: 2px;
      }

      .cls-1, .cls-2 {
        fill: none;
        stroke: #d297ff;
        stroke-miterlimit: 10;
      }

      .cls-1, .cls-2, .cls-3 {
        fill-rule: evenodd;
      }

      .cls-4, .cls-3 {
        fill: #d297ff;
      }

      .cls-2 {
        stroke-width: 3px;
      }
    </style>
  </defs>
  <g id="Layer_1" data-name="Layer 1"/>
  <g id="Layer_2" data-name="Layer 2">
    <g id="Layer_1-2" data-name="Layer 1">
      <g>
        <path class="cls-4" d="M221.65,3c1.53,0,3.08,.04,4.61,.11,28.29,1.24,53.98,13.93,72.34,35.74,33.3,39.59,30.41,99.11-6.57,135.51-17.94,17.66-41.71,27.38-66.92,27.38-10.26,0-20.61-1.59-30.77-4.74l-2.32-.72-1.74-.54-1.28,1.3-16.61,16.87-29.05-.06h-3v2.99l-.05,22.18-22.18-.04h-3v2.99l-.05,22.18-28.48-.05h-3v2.99l-.06,28.48-15.89-.03h-3v2.99l-.03,15.17c0,5.06-.27,6.31-3.28,9.3-2.3,2.3-5.39,3.68-8.92,3.98l-49.39-.09,.11-55.67,133.31-126.59,1.56-1.48-.9-1.95-1.2-2.59c-18.02-39.11-12.28-78.9,15.37-106.45C169.87,13.64,195.53,3,221.65,3h0M221.65,0c-26.98,0-53.18,10.8-72.5,30.05-28.58,28.47-34.56,69.53-15.98,109.83l1.2,2.59L.83,269.27c-.46,.44-.72,1.04-.72,1.66L0,327.59c0,1.27,1.03,2.31,2.3,2.31l50.21,.1c4.31-.34,8.08-2.02,10.92-4.86,3.81-3.79,4.15-6.02,4.16-11.42l.03-15.17,16.58,.03h0c1.27,0,2.31-1.03,2.31-2.3l.06-29.17,29.17,.06h0c1.27,0,2.3-1.03,2.31-2.3l.04-22.87,22.88,.04h0c1.27,0,2.3-1.03,2.31-2.3l.04-22.87,29.34,.06h0c.61,0,1.21-.25,1.65-.69l16.81-17.07,2.32,.72c10.57,3.27,21.22,4.87,31.66,4.87,25.76,0,50.24-9.76,69.02-28.24,38.1-37.49,41.07-98.8,6.77-139.58C281.99,14.46,255.54,1.39,226.39,.11,224.81,.04,223.23,0,221.65,0h0Z"/>
        <g>
          <g>
            <path id="sphereFront" class="cls-2" d="M205.03,82.22c-8.06-19.01-7.12-39.91,6.08-53.06,13.73-13.68,32.99-15.8,51.52-10.34l.05-.05c1.99,.59,3.99,1.26,5.95,2.07,8.18,3.3,15.89,8.28,22.34,14.76,6.58,6.6,11.67,14.54,14.85,22.98,.45,1.11,.84,2.26,1.21,3.45,6.23,19.08,4.31,39.26-9.92,53.44-12.15,12.1-33.5,13.35-52.84,5.54-8.54-3.45-16.69-8.65-23.49-15.48-6.82-6.85-12.15-14.89-15.74-23.31Z"/>
            <path class="cls-1" d="M220.77,105.54c6.8,6.83,14.95,12.03,23.49,15.48,3.33-4.57,5.28-10.2,5.29-16.3,.03-15.42-12.44-27.93-27.85-27.96-6.24-.01-12.01,2.02-16.66,5.47,3.58,8.42,8.92,16.47,15.74,23.31Z"/>
          </g>
          <g>
            <path class="cls-3" d="M244.2,18.5c5.72,0,11.68,.9,17.73,2.68l1.4,.41,.04-.04c1.58,.5,3,1.01,4.33,1.57,8.04,3.24,15.48,8.15,21.52,14.22,6.27,6.29,11.21,13.94,14.28,22.11v.03l.02,.03c.39,.97,.76,2.03,1.15,3.29,6.52,19.97,3.12,38.53-9.32,50.92-6.3,6.28-15.83,9.74-26.83,9.74-7.6,0-15.67-1.64-23.34-4.74-8.52-3.44-16.36-8.61-22.66-14.93-6.42-6.45-11.68-14.24-15.21-22.53-8.24-19.44-6.11-38.73,5.55-50.35,8.15-8.12,18.99-12.41,31.36-12.41h0m0-2.47c-12.26,0-23.91,3.98-33.09,13.13-13.2,13.15-14.14,34.05-6.08,53.06,3.58,8.42,8.92,16.47,15.74,23.31,6.8,6.83,14.95,12.03,23.49,15.48,8.01,3.23,16.36,4.92,24.26,4.92,11.18,0,21.45-3.36,28.57-10.45,14.23-14.18,16.16-34.35,9.92-53.44-.36-1.19-.76-2.34-1.21-3.45-3.18-8.45-8.27-16.38-14.85-22.98-6.45-6.48-14.16-11.47-22.34-14.76-1.95-.81-3.95-1.48-5.95-2.07l-.05,.05c-6.14-1.81-12.36-2.78-18.43-2.78h0Z"/>
            <path class="cls-3" d="M221.63,79.22h.05c14.03,.03,25.42,11.46,25.39,25.49,0,4.74-1.29,9.27-3.73,13.24-7.81-3.42-14.98-8.29-20.83-14.16-5.94-5.97-10.89-13.09-14.4-20.7,4.04-2.54,8.67-3.88,13.52-3.88m0-2.47c-6.22,0-11.97,2.03-16.6,5.47,3.58,8.42,8.92,16.47,15.74,23.31,6.8,6.83,14.95,12.03,23.49,15.48,3.33-4.57,5.28-10.2,5.29-16.3,.03-15.42-12.44-27.93-27.85-27.96h-.05Z"/>
          </g>
        </g>
      </g>
    </g>
  </g>
</svg>