<?xml version="1.0" encoding="UTF-8"?>
<svg xmlns="http://www.w3.org/2000/svg" viewBox="0 0 681.4 595.99">
  <defs>
    <style>
      .cls-1 {
        fill: #fff;
      }

      .cls-2 {
        fill: none;
        stroke: #fff;
        stroke-miterlimit: 10;
        stroke-width: 4px;
      }
    </style>
  </defs>
  <g id="Layer_1" data-name="Layer 1"/>
  <g id="Layer_2" data-name="Layer 2">
    <g id="Comix">
      <g id="ctm-feature-mony">
        <g>
          <path class="cls-2" d="M454.08,354.37c40.72,15.43,69.32,58.33,67.9,101.86-1.42,43.52-32.77,84.47-74.41,97.2-41.64,12.73-90.52-3.68-116.05-38.96-25.52-35.28-25.81-86.84-.68-122.41,25.13-35.57,74.99-55.97,123.24-37.69Z"/>
          <path class="cls-2" d="M450.58,396.69c29.39,18.5,40.03,61.45,22.67,91.53-17.36,30.08-59.86,42.37-90.59,26.18-30.73-16.19-44.64-58.18-29.65-89.52,14.99-31.33,59.34-52.27,97.58-28.2Z"/>
          <path class="cls-2" d="M459.57,424.09c-4.77-7.76-14.93-11.32-23.83-9.41-8.9,1.91-16.33,8.64-20.35,16.81s-4.88,17.62-3.82,26.66c1.02,8.61,3.81,17.15,9.07,24.04,1.49,1.95,3.18,3.77,5.14,5.24,8.44,6.32,21.04,5.04,29.47-1.29s13.08-16.72,14.61-27.16c.8-5.5,.83-11.17-.64-16.53-2.22-8.1-7.69-15.15-9.67-18.37Z"/>
          <path class="cls-2" d="M418.79,438.24l10.37,.59c4.79,6.17,7.58,14.48,5.13,21.9-2.45,7.41-11.4,12.69-18.49,9.41"/>
          <path class="cls-2" d="M493.62,534.99c4.55-2.29,9.83-2.49,14.92-2.64l78.67-2.41c3.56-.11,7.47-.36,10.04-2.83,3.06-2.95,2.97-7.79,2.66-12.03-.19-2.57-.62-5.55-2.85-6.85-1.28-.75-2.85-.72-4.33-.68-27.41,.83-54.82,1.67-82.24,2.5"/>
          <path class="cls-2" d="M517.72,500.11l65.12-.69c5.69-.06,12.26-.56,15.54-5.21,3.45-4.9,1-12.19-3.79-15.79s-11.12-4.33-17.11-4.41c-17.96-.23-35.97,4.28-53.76,1.82"/>
          <path class="cls-2" d="M526.84,446.28c20.59-1.65,41.29-2.07,61.93-1.28,1.31,.05,2.67,.12,3.82,.75,1.4,.76,2.25,2.23,2.94,3.66,2.21,4.58,3.43,9.96,1.73,14.75s-7.08,8.46-11.92,6.92"/>
          <path class="cls-2" d="M587.04,440.52l10.56-5.21c-.34-6.92-1.61-14.96-7.67-18.29-3.33-1.83-7.33-1.74-11.13-1.6l-58.37,2.15"/>
          <path class="cls-2" d="M501.3,379.56c26.82,3.22,53.89,4.31,80.88,3.27,3.14-.12,6.41-.25,9.3,.98,6.15,2.62,8.3,11.12,5.29,17.09-3.01,5.97-9.89,9.27-16.57,9.51"/>
          <path class="cls-2" d="M590.11,378.65c6.57-6.05,2.77-17.96-4.89-22.54-7.67-4.58-17.22-4.02-26.12-3.38-30.42,2.16-60.89,3.49-91.38,3.99"/>
          <path class="cls-2" d="M389.3,345.79c-5.8-2.32-5.84-11.34-1.44-15.77s11.13-5.42,17.35-5.96c15.96-1.38,32.01-1.4,48.03-1.41l86.42-.07,36.85-.03c5.45,0,11.32,.12,15.68,3.38,4.6,3.43,6.36,10.2,4,15.44s-8.58,8.41-14.2,7.25"/>
          <path class="cls-2" d="M565.29,316.98c3.63-2.62,7.38-5.38,9.49-9.32s2.06-9.44-1.35-12.34c-2.6-2.21-6.33-2.37-9.74-2.42-62.49-.84-124.97-1.68-187.46-2.51-6.75-.09-14.93,.64-17.93,6.7-2.58,5.23,.63,11.83,5.54,14.99s10.98,3.74,16.79,4.24c9.22,.79,18.44,1.58,27.66,2.38"/>
          <path class="cls-2" d="M63.23,450.69c63.34-87.06,130.42-171.41,200.98-252.72,1.99-2.29,4.3-4.75,7.32-4.96,2.9-.2,5.46,1.74,7.77,3.5,15.18,11.58,32.83,19.91,51.42,24.25,41.6-51.17,87.96-98.47,138.3-141.09-6.03-4.64-13.61-7.24-21.22-7.25,31.1-17.23,63.69-31.78,97.28-43.44-15.94,24.67-25.28,53.56-26.82,82.89-8.5-3.26-17.28-5.82-26.2-7.63-3.9-.79-8.02-1.43-11.78-.15-3.59,1.23-6.38,4.04-9.02,6.78-45.93,47.69-88.79,98.33-128.23,151.52-2.22,2.99-4.59,6.12-8.01,7.59-4.34,1.87-9.39,.64-13.72-1.25-13.47-5.87-23.53-17.4-35.65-25.71-2.36-1.62-5.3-3.17-7.95-2.11-1.58,.63-2.67,2.07-3.68,3.44-57.16,77.77-109.03,159.42-155.14,244.21-2.64,4.85-6.44,10.42-11.96,10.1-3-.17-5.55-2.13-7.9-4-15.9-12.68-32.56-26.43-35.81-43.97Z"/>
        </g>
        <path class="cls-1" d="M610.97,592.01h-14.88c-13.55,0-27.11,0-40.66,0h-132.46c-26.55,0-53.1,0-79.65,0H128.8c-14.22,0-28.45,0-42.67,0-5.92,0-11.84,.03-17.76,0-34.67-.17-63.25-28.19-63.97-62.9-.13-6.13-.02-12.27-.02-18.41,0-15.41,0-30.82,0-46.23,0-22.07,0-44.14,0-66.22,0-25.83,0-51.66,0-77.49,0-26.63,0-53.27,0-79.9,0-24.49,0-48.98,0-73.47,0-19.46,0-38.92,0-58.38v-33.92c0-1.71,0-3.42,0-5.13,.1-17.17,6.81-33.75,18.8-46.05C35.62,11.15,52.74,4.08,70.51,3.98c1.39,0,2.78,0,4.17,0,9.66,0,19.32,0,28.99,0,17.09,0,34.17,0,51.26,0,22.41,0,44.82,0,67.23,0,25.63,0,51.27,0,76.9,0s53.73,0,80.6,0h145.33c17.54,0,35.09,0,52.63,0,10.16,0,20.31,0,30.47,0,1.68,0,3.37,0,5.05,0,15.64,.09,30.84,5.7,42.55,16.11,13.74,12.22,21.28,29.91,21.39,48.21,0,1.54,0,3.07,0,4.61v33.08c0,19.27,0,38.53,0,57.8,0,24.38,0,48.76,0,73.15s0,53.23,0,79.84,0,52,0,77.99,0,44.41,0,66.61v46.71c0,5.99,.04,11.97,0,17.96-.22,36.19-30.03,65.71-66.13,65.96-2.47,.02,.41,3.98,2.29,3.97,37.11-.26,67.78-30.65,68.12-67.81,.05-6,0-12.01,0-18.02v-47.13c0-22.41,0-44.82,0-67.23s0-52.48,0-78.72,0-53.86,0-80.78c0-24.46,0-48.92,0-73.37s0-38.28,0-57.41v-31.94c0-3.4,.01-6.79-.32-10.19-1.7-17.52-10.24-33.9-23.38-45.58S628.15,.1,610.97,0c-1.41,0-2.83,0-4.24,0-9.81,0-19.63,0-29.44,0h-52.27c-22.72,0-45.45,0-68.17,0-26.04,0-52.08,0-78.12,0-27.09,0-54.18,0-81.27,0s-51.71,0-77.57,0c-22.66,0-45.33,0-67.99,0-17.18,0-34.36,0-51.53,0-9.49,0-18.98,0-28.47,0-1.85,0-3.71-.03-5.56,.03C48.4,.53,31.12,8.29,18.77,21.29,6.74,33.95,.2,50.88,.1,68.3c0,1.61,0,3.22,0,4.83,0,11.35,0,22.69,0,34.04,0,19.53,0,39.05,0,58.58,0,24.82,0,49.64,0,74.46s0,53.96,0,80.94,0,51.95,0,77.93c0,22.13,0,44.27,0,66.4,0,15.12,0,30.23,0,45.35,0,7.81-.45,15.88,.52,23.65,4.36,34.84,35,61.31,69.91,61.51,5.4,.03,10.81,0,16.21,0,14.04,0,28.09,0,42.13,0,20.4,0,40.81,0,61.21,0,24.76,0,49.52,0,74.27,0,26.86,0,53.72,0,80.57,0h80.01c24.53,0,49.05,0,73.58,0,20.09,0,40.18,0,60.27,0h54.47c2.46,0-.41-3.97-2.29-3.97Z"/>
      </g>
    </g>
  </g>
</svg>