<?xml version="1.0" encoding="UTF-8"?>
<svg xmlns="http://www.w3.org/2000/svg" viewBox="0 0 681.4 595.99">
  <defs>
    <style>
      .cls-1 {
        stroke-width: 4.4px;
      }

      .cls-1, .cls-2, .cls-3, .cls-4, .cls-5 {
        fill: none;
        stroke: #fff;
        stroke-dasharray: 0 0 0 0 0 0 0 0 0 0 0 0;
        stroke-miterlimit: 10;
      }

      .cls-2 {
        stroke-width: 4.4px;
      }

      .cls-3 {
        stroke-width: 2.26px;
      }

      .cls-6 {
        fill: #fff;
      }

      .cls-4 {
        stroke-width: 3.33px;
      }

      .cls-7 {
        opacity: .33;
      }

      .cls-5 {
        stroke-width: 3.46px;
      }
    </style>
  </defs>
  <g id="Layer_1" data-name="Layer 1"/>
  <g id="Layer_2" data-name="Layer 2">
    <g id="Comix">
      <g id="share">
        <path class="cls-2" d="M235.93,417.94c-.61-3.83-1.11-7.69-.75-11.56,.99-10.44-5.69-21.89-15.12-27.58-12.25-7.38-27.33-7.7-41.63-7.8-10.56-.08-21.12-.16-31.68-.24-15.29-.11-32.72,.71-42.51,12.46-7.64,9.18-7.95,23.11-2.46,33.72s15.93,18.04,27.2,21.99c12.17,4.26,25.33,4.84,38.18,4.68,13.84-.17,27.65-1.39,41.3-3.69,7.32-1.23,14.85-3.03,20.44-7.87,4.84-4.18,7.58-10.52,7-14.11Z"/>
        <path class="cls-2" d="M212.98,387.62c-4.46,7.88-14.29,10.6-23.12,12.6-18.02,4.08-37.19,8.12-54.64,2.03-3.01-1.05-5.99-2.44-8.2-4.73s-3.55-5.63-2.79-8.72c.77-3.1,3.5-5.42,6.5-6.54s6.25-1.26,9.45-1.37c21.96-.81,44.05-1.62,65.82,1.41,2.05,.29,4.16,.63,5.91,1.72s3.08,3.14,2.71,5.17-2.92,3.54-1.64-1.57Z"/>
        <path class="cls-2" d="M547.96,413.1c-.61-3.83-1.11-7.69-.75-11.56,.99-10.44-5.69-21.89-15.12-27.58-12.25-7.38-27.33-7.7-41.63-7.8-10.56-.08-21.12-.16-31.68-.24-15.29-.11-32.72,.71-42.51,12.46-7.64,9.18-7.95,23.11-2.46,33.72s15.93,18.04,27.2,21.99c12.17,4.26,25.33,4.84,38.18,4.68,13.84-.17,27.65-1.39,41.3-3.69,7.32-1.23,14.85-3.03,20.44-7.87,4.84-4.18,7.58-10.52,7-14.11Z"/>
        <path class="cls-2" d="M525.02,382.79c-4.46,7.88-14.29,10.6-23.12,12.6-18.02,4.08-37.19,8.12-54.64,2.03-3.01-1.05-5.99-2.44-8.2-4.73s-3.55-5.63-2.79-8.72c.77-3.1,3.5-5.42,6.5-6.54s6.25-1.26,9.45-1.37c21.96-.81,44.05-1.62,65.82,1.41,2.05,.29,4.16,.63,5.91,1.72s3.08,3.14,2.71,5.17-2.92,3.54-1.64-1.57Z"/>
        <path class="cls-1" d="M503.29,335.29c-44.78-32.76-85.02-70.03-119.6-110.8"/>
        <path class="cls-3" d="M249.99,418.63c26.44-29.21,39.06-67.52,51.01-104.65"/>
        <path class="cls-5" d="M308.85,234.88c-49.3,43.71-105.54,80.31-166.21,108.17"/>
        <path class="cls-4" d="M394.29,394.41c-23.02-24.82-36.9-52.4-40.49-80.43"/>
        <g>
          <path class="cls-2" d="M360.42,75.69c44.63,6.5,83.14,43.51,91.39,87.85,8.25,44.34-14.36,92.73-53.67,114.85-39.31,22.12-92.41,16.33-126.02-13.74-33.62-30.07-45.27-82.2-27.65-123.72,17.61-41.52,63.2-69.37,108.18-66.09"/>
          <path class="cls-2" d="M322.85,191.75c-13.23,3.79-26.04,10.86-33.78,22.24-7.74,11.38-9.27,27.56-1.24,38.73,5.03,7.01,13.02,11.29,21.09,14.35,15.84,6.03,33.3,8.27,49.95,5.1,16.65-3.18,32.4-11.98,42.81-25.35,3.5-4.49,6.42-9.55,7.7-15.1,4.16-18.13-10.91-36.19-28.56-42.1-17.64-5.9-44.91-1.61-57.97,2.13Z"/>
          <path class="cls-2" d="M327.19,194.44c-2.5,7.39-4.98,15.6-1.91,22.77,3.02,7.04,10.94,11.09,18.6,11.31,7.66,.22,15.07-2.77,21.75-6.51,6.23-3.48,12.36-8.04,15.01-14.66,2.18-5.46,1.6-11.95-1.52-16.93"/>
          <path class="cls-2" d="M350.36,76.04c5.27-1.91,11.38-1.35,16.22,1.49"/>
        </g>
        <g class="cls-7">
          <!-- <path class="cls-6" d="M610.97,592.01h-14.88c-13.55,0-27.11,0-40.66,0h-132.46c-26.55,0-53.1,0-79.65,0-26.54,0-53.08,0-79.62,0-24.54,0-49.07,0-73.61,0h-61.29c-14.22,0-28.45,0-42.67,0-5.92,0-11.84,.03-17.76,0-34.67-.17-63.25-28.19-63.97-62.9-.13-6.13-.02-12.27-.02-18.41,0-15.41,0-30.82,0-46.23,0-22.07,0-44.14,0-66.22,0-25.83,0-51.66,0-77.49,0-26.63,0-53.27,0-79.9,0-24.49,0-48.98,0-73.47,0-19.46,0-38.92,0-58.38,0-11.31,0-22.62,0-33.92,0-1.71,0-3.42,0-5.13,.1-17.17,6.81-33.75,18.8-46.05C35.62,11.15,52.74,4.08,70.51,3.98c1.39,0,2.78,0,4.17,0,9.66,0,19.32,0,28.99,0,17.09,0,34.17,0,51.26,0,22.41,0,44.82,0,67.23,0,25.63,0,51.27,0,76.9,0,26.87,0,53.73,0,80.6,0h77.3c22.68,0,45.35,0,68.03,0,17.54,0,35.09,0,52.63,0,10.16,0,20.31,0,30.47,0,1.68,0,3.37,0,5.05,0,15.64,.09,30.84,5.7,42.55,16.11,13.74,12.22,21.28,29.91,21.39,48.21,0,1.54,0,3.07,0,4.61v33.08c0,19.27,0,38.53,0,57.8s0,48.76,0,73.15v157.84c0,22.2,0,44.41,0,66.61v46.71c0,5.99,.04,11.97,0,17.96-.22,36.19-30.03,65.71-66.13,65.96-2.47,.02,.41,3.98,2.29,3.97,37.11-.26,67.78-30.65,68.12-67.81,.05-6,0-12.01,0-18.02v-47.13c0-22.41,0-44.82,0-67.23s0-52.48,0-78.72,0-53.86,0-80.78,0-48.92,0-73.37c0-19.14,0-38.28,0-57.41v-31.94c0-3.4,.01-6.79-.32-10.19-1.7-17.52-10.24-33.9-23.38-45.58C644.81,6.34,628.15,.1,610.97,0c-1.41,0-2.83,0-4.24,0-9.81,0-19.63,0-29.44,0-17.42,0-34.84,0-52.27,0-22.72,0-45.45,0-68.17,0-26.04,0-52.08,0-78.12,0s-54.18,0-81.27,0-51.71,0-77.57,0c-22.66,0-45.33,0-67.99,0-17.18,0-34.36,0-51.53,0-9.49,0-18.98,0-28.47,0-1.85,0-3.71-.03-5.56,.03C48.4,.53,31.12,8.29,18.77,21.29,6.74,33.95,.2,50.88,.1,68.3c0,1.61,0,3.22,0,4.83v34.04c0,19.53,0,39.05,0,58.58,0,24.82,0,49.64,0,74.46s0,53.96,0,80.94c0,25.98,0,51.95,0,77.93,0,22.13,0,44.27,0,66.4,0,15.12,0,30.23,0,45.35,0,7.81-.45,15.88,.52,23.65,4.36,34.84,35,61.31,69.91,61.51,5.4,.03,10.81,0,16.21,0,14.04,0,28.09,0,42.13,0h61.21c24.76,0,49.52,0,74.27,0,26.86,0,53.72,0,80.57,0h80.01c24.53,0,49.05,0,73.58,0,20.09,0,40.18,0,60.27,0h54.47c2.46,0-.41-3.97-2.29-3.97Z"/> -->
        </g>
      </g>
    </g>
  </g>
</svg>