<?xml version="1.0" encoding="UTF-8"?>
<svg id="Layer_2" data-name="Layer 2" xmlns="http://www.w3.org/2000/svg" viewBox="0 0 681.4 595.99">
  <defs>
    <style>
      .cls-1 {
        fill: #fff;
      }

      .cls-2 {
        fill: none;
        stroke: #fff;
        stroke-miterlimit: 10;
      }
    </style>
  </defs>
  <g id="Comix">
    <g id="ctm-how-end">
      <!-- <g id="frame">
        <path class="cls-1" d="M610.97,592.01h-14.88c-13.55,0-27.11,0-40.66,0h-59.77c-24.23,0-48.46,0-72.69,0-26.55,0-53.1,0-79.65,0s-53.08,0-79.62,0c-24.54,0-49.07,0-73.61,0-20.43,0-40.86,0-61.29,0-14.22,0-28.45,0-42.67,0-5.92,0-11.84,.03-17.76,0-34.67-.17-63.25-28.19-63.97-62.9-.13-6.13-.02-12.27-.02-18.41,0-15.41,0-30.82,0-46.23,0-22.07,0-44.14,0-66.22,0-25.83,0-51.66,0-77.49s0-53.27,0-79.9c0-24.49,0-48.98,0-73.47,0-19.46,0-38.92,0-58.38,0-11.31,0-22.62,0-33.92,0-1.71,0-3.42,0-5.13,.1-17.17,6.81-33.75,18.8-46.05C35.62,11.15,52.74,4.08,70.51,3.98c1.39,0,2.78,0,4.17,0,9.66,0,19.32,0,28.99,0,17.09,0,34.17,0,51.26,0,22.41,0,44.82,0,67.23,0,25.63,0,51.27,0,76.9,0s53.73,0,80.6,0,51.53,0,77.3,0c22.68,0,45.35,0,68.03,0,17.54,0,35.09,0,52.63,0,10.16,0,20.31,0,30.47,0,1.68,0,3.37,0,5.05,0,15.64,.09,30.84,5.7,42.55,16.11,13.74,12.22,21.28,29.91,21.39,48.21,0,1.54,0,3.07,0,4.61v33.08c0,19.27,0,38.53,0,57.8s0,48.76,0,73.15v79.84c0,26,0,52,0,77.99s0,44.41,0,66.61v46.71c0,5.99,.04,11.97,0,17.96-.22,36.19-30.03,65.71-66.13,65.96-2.47,.02,.41,3.98,2.29,3.97,37.11-.26,67.78-30.65,68.12-67.81,.05-6,0-12.01,0-18.02v-47.13c0-22.41,0-44.82,0-67.23s0-52.48,0-78.72,0-53.86,0-80.78,0-48.92,0-73.37c0-19.14,0-38.28,0-57.41,0-10.65,0-21.29,0-31.94,0-3.4,.01-6.79-.32-10.19-1.7-17.52-10.24-33.9-23.38-45.58C644.81,6.34,628.15,.1,610.97,0c-1.41,0-2.83,0-4.24,0-9.81,0-19.63,0-29.44,0-17.42,0-34.84,0-52.27,0-22.72,0-45.45,0-68.17,0-26.04,0-52.08,0-78.12,0s-54.18,0-81.27,0-51.71,0-77.57,0c-22.66,0-45.33,0-67.99,0-17.18,0-34.36,0-51.53,0-9.49,0-18.98,0-28.47,0-1.85,0-3.71-.03-5.56,.03C48.4,.53,31.12,8.29,18.77,21.29,6.74,33.95,.2,50.88,.1,68.3c0,1.61,0,3.22,0,4.83v34.04c0,19.53,0,39.05,0,58.58,0,24.82,0,49.64,0,74.46s0,53.96,0,80.94c0,25.98,0,51.95,0,77.93,0,22.13,0,44.27,0,66.4,0,15.12,0,30.23,0,45.35,0,7.81-.45,15.88,.52,23.65,4.36,34.84,35,61.31,69.91,61.51,5.4,.03,10.81,0,16.21,0h103.34c24.76,0,49.52,0,74.27,0,26.86,0,53.72,0,80.57,0,26.67,0,53.34,0,80.01,0h133.86c13.43,0,26.87,0,40.3,0h14.17c2.46,0-.41-3.97-2.29-3.97Z"/>
      </g> -->
      <circle class="cls-1" cx="340.74" cy="297.99" r="4.5"/>
      <line class="cls-2" x1="348.74" y1="280.24" x2="364.74" y2="249.24"/>
      <line class="cls-2" x1="327.74" y1="283.24" x2="305.74" y2="252.24"/>
      <line class="cls-2" x1="330.74" y1="309.24" x2="307.74" y2="336.24"/>
      <line class="cls-2" x1="321.74" y1="298.24" x2="285.74" y2="295.24"/>
      <line class="cls-2" x1="347.74" y1="312.24" x2="356.74" y2="335.24"/>
      <line class="cls-2" x1="362.74" y1="298.24" x2="392.74" y2="298.24"/>
      <line class="cls-2" x1="360.74" y1="286.24" x2="380.74" y2="275.24"/>
      <line class="cls-2" x1="337.74" y1="315.24" x2="335.74" y2="334.24"/>
      <line class="cls-2" x1="318.74" y1="289.24" x2="300.74" y2="280.24"/>
      <line class="cls-2" x1="338.74" y1="280.24" x2="336.74" y2="262.24"/>
      <line class="cls-2" x1="318.74" y1="308.24" x2="305.74" y2="315.24"/>
      <line class="cls-2" x1="356.74" y1="308.24" x2="370.74" y2="318.24"/>
    </g>
  </g>
</svg>