<?xml version="1.0" encoding="UTF-8"?>
<svg xmlns="http://www.w3.org/2000/svg" viewBox="0 0 681.4 595.99">
  <defs>
    <style>
      .cls-1 {
        stroke-width: 4.4px;
      }

      .cls-1, .cls-2, .cls-3, .cls-4 {
        fill: none;
        stroke: #fff;
        stroke-miterlimit: 10;
      }

      .cls-1, .cls-3 {
        stroke-dasharray: 0 0 0 0 0 0 0 0 0 0 0 0;
      }

      .cls-5 {
        fill: #fff;
      }

      .cls-2 {
        stroke-width: 2.68px;
      }

      .cls-3 {
        stroke-width: 5.94px;
      }

      .cls-6 {
        opacity: .33;
      }

      .cls-4 {
        stroke-width: 2.15px;
      }
    </style>
  </defs>
  <g id="Layer_1" data-name="Layer 1"/>
  <g id="Layer_2" data-name="Layer 2">
    <g id="Comix">
      <g id="join">
        <g>
          <path class="cls-3" d="M111.05,402.79c-9.72,2.52-19.77,6.39-25.75,14.47-11.5,15.54-1.39,39.33,15.36,48.98,16.75,9.65,37.25,9.17,56.57,8.42,22.16-.87,44.32-1.73,66.48-2.6,13.74-.54,27.8-1.14,40.53-6.34,12.73-5.19,24.07-15.99,25.96-29.61,1.52-10.93-3.37-22.16-11.32-29.83-7.95-7.66-18.62-12.04-29.48-14.01,2.88,1.81,3.09,6.2,1.3,9.1s-4.94,4.61-8.01,6.09c-41.26,19.88-92.24,18.1-131.65-4.67Z"/>
          <path class="cls-3" d="M111.8,400.99c-14.15-25.12-14.81-57.49-1.17-82.89s41.35-42.8,70.18-43.46c28.83-.66,57.55,15.73,71.12,41.17s11.05,58.78-6.68,81.52"/>
          <g>
            <path class="cls-2" d="M384.12,120.31c21.85,8.28,37.19,31.3,36.43,54.65-.76,23.35-17.58,45.32-39.92,52.15-22.34,6.83-48.57-1.97-62.26-20.9-13.69-18.93-13.85-46.59-.37-65.67,13.48-19.08,40.23-30.03,66.12-20.22Z"/>
            <path class="cls-4" d="M382.24,143.02c15.77,9.93,21.48,32.97,12.16,49.11-9.31,16.14-32.12,22.73-48.6,14.05-16.49-8.68-23.95-31.22-15.91-48.02,8.04-16.81,31.83-28.04,52.35-15.13Z"/>
            <path class="cls-4" d="M387.06,157.71c-2.56-4.16-8.01-6.07-12.78-5.05-4.78,1.02-8.76,4.63-10.92,9.02-2.15,4.38-2.62,9.45-2.05,14.31,.54,4.62,2.04,9.2,4.87,12.9,.8,1.05,1.71,2.02,2.76,2.81,4.53,3.39,11.29,2.7,15.81-.69,4.53-3.4,7.02-8.97,7.84-14.57,.43-2.95,.44-5.99-.34-8.87-1.19-4.35-4.13-8.13-5.19-9.85Z"/>
            <path class="cls-4" d="M365.18,165.31l5.56,.31c2.57,3.31,4.07,7.77,2.75,11.75-1.32,3.98-6.12,6.81-9.92,5.05"/>
            <path class="cls-4" d="M405.33,217.21c2.44-1.23,5.27-1.33,8-1.42l42.2-1.29c1.91-.06,4.01-.19,5.39-1.52,1.64-1.58,1.59-4.18,1.43-6.46-.1-1.38-.33-2.98-1.53-3.68-.69-.4-1.53-.39-2.32-.36l-44.12,1.34"/>
            <path class="cls-4" d="M418.26,198.5l34.94-.37c3.05-.03,6.58-.3,8.34-2.8,1.85-2.63,.54-6.54-2.03-8.47-2.57-1.93-5.96-2.32-9.18-2.36-9.64-.12-19.3,2.3-28.84,.98"/>
            <path class="cls-4" d="M423.15,169.62c11.05-.88,22.15-1.11,33.23-.68,.7,.03,1.43,.06,2.05,.4,.75,.41,1.21,1.19,1.58,1.96,1.18,2.46,1.84,5.34,.93,7.91-.91,2.57-3.8,4.54-6.4,3.71"/>
            <path class="cls-4" d="M455.45,166.53l5.66-2.79c-.18-3.71-.86-8.02-4.12-9.81-1.78-.98-3.93-.93-5.97-.86l-31.31,1.15"/>
            <path class="cls-4" d="M409.45,133.83c14.39,1.73,28.91,2.31,43.39,1.75,1.69-.07,3.44-.13,4.99,.53,3.3,1.41,4.45,5.97,2.84,9.17-1.62,3.2-5.31,4.98-8.89,5.1"/>
            <path class="cls-4" d="M457.1,133.34c3.52-3.24,1.49-9.64-2.62-12.09-4.11-2.46-9.24-2.15-14.01-1.82-16.32,1.16-32.67,1.87-49.02,2.14"/>
            <path class="cls-4" d="M349.36,115.71c-3.11-1.24-3.13-6.08-.77-8.46,2.36-2.38,5.97-2.91,9.31-3.2,8.56-.74,17.17-.75,25.77-.76l46.36-.04,19.77-.02c2.92,0,6.07,.07,8.41,1.81,2.47,1.84,3.41,5.47,2.15,8.28-1.26,2.81-4.6,4.51-7.62,3.89"/>
            <path class="cls-4" d="M443.78,100.25c1.95-1.41,3.96-2.89,5.09-5,1.14-2.12,1.11-5.06-.72-6.62-1.4-1.19-3.39-1.27-5.23-1.3-33.52-.45-67.05-.9-100.57-1.35-3.62-.05-8.01,.35-9.62,3.59-1.39,2.81,.34,6.35,2.97,8.04s5.89,2.01,9.01,2.27l14.84,1.27"/>
            <path class="cls-3" d="M208.33,352.08c49.07-16.95,93.22-47.89,125.89-88.23l40.36-3.51c2.11-.18,4.47-.3,6.11,1.06,3.6,2.98-.02,8.79-3.98,11.28-11.82,7.43-27.56,8.15-39.07,2.53-37.99,37.46-80.41,70.43-126.09,98.01"/>
            <path class="cls-3" d="M469.72,239.52l-207.92-7c3.21,8.63,11.34,14.69,20.06,17.66,8.72,2.97,18.08,3.3,27.28,3.61,50.15,1.66,100.29,3.31,150.44,4.97,4.71,.16,9.62,.28,13.92-1.67,4.3-1.95,7.75-6.62,6.68-11.22-1.07-4.59-8.06-6.94-10.47-6.35Z"/>
          </g>
        </g>
        <g class="cls-6">
          <!-- <path class="cls-5" d="M610.97,592.01h-14.88c-13.55,0-27.11,0-40.66,0h-132.46c-26.55,0-53.1,0-79.65,0-26.54,0-53.08,0-79.62,0-24.54,0-49.07,0-73.61,0h-61.29c-14.22,0-28.45,0-42.67,0-5.92,0-11.84,.03-17.76,0-34.67-.17-63.25-28.19-63.97-62.9-.13-6.13-.02-12.27-.02-18.41,0-15.41,0-30.82,0-46.23,0-22.07,0-44.14,0-66.22,0-25.83,0-51.66,0-77.49s0-53.27,0-79.9c0-24.49,0-48.98,0-73.47,0-19.46,0-38.92,0-58.38,0-11.31,0-22.62,0-33.92,0-1.71,0-3.42,0-5.13,.1-17.17,6.81-33.75,18.8-46.05S52.74,4.08,70.51,3.98c1.39,0,2.78,0,4.17,0,9.66,0,19.32,0,28.99,0,17.09,0,34.17,0,51.26,0,22.41,0,44.82,0,67.23,0,25.63,0,51.27,0,76.9,0s53.73,0,80.6,0h77.3c22.68,0,45.35,0,68.03,0,17.54,0,35.09,0,52.63,0,10.16,0,20.31,0,30.47,0,1.68,0,3.37,0,5.05,0,15.64,.09,30.84,5.7,42.55,16.11,13.74,12.22,21.28,29.91,21.39,48.21,0,1.54,0,3.07,0,4.61v33.08c0,19.27,0,38.53,0,57.8,0,24.38,0,48.76,0,73.15s0,53.23,0,79.84,0,52,0,77.99c0,22.2,0,44.41,0,66.61,0,15.57,0,31.14,0,46.71,0,5.99,.04,11.97,0,17.96-.22,36.19-30.03,65.71-66.13,65.96-2.47,.02,.41,3.98,2.29,3.97,37.11-.26,67.78-30.65,68.12-67.81,.05-6,0-12.01,0-18.02,0-15.71,0-31.42,0-47.13,0-22.41,0-44.82,0-67.23V162.9c0-19.14,0-38.28,0-57.41,0-10.65,0-21.29,0-31.94,0-3.4,.01-6.79-.32-10.19-1.7-17.52-10.24-33.9-23.38-45.58C644.81,6.34,628.15,.1,610.97,0c-1.41,0-2.83,0-4.24,0-9.81,0-19.63,0-29.44,0-17.42,0-34.84,0-52.27,0-22.72,0-45.45,0-68.17,0-26.04,0-52.08,0-78.12,0s-54.18,0-81.27,0c-25.86,0-51.71,0-77.57,0-22.66,0-45.33,0-67.99,0-17.18,0-34.36,0-51.53,0-9.49,0-18.98,0-28.47,0-1.85,0-3.71-.03-5.56,.03C48.4,.53,31.12,8.29,18.77,21.29S.2,50.88,.1,68.3c0,1.61,0,3.22,0,4.83,0,11.35,0,22.69,0,34.04,0,19.53,0,39.05,0,58.58,0,24.82,0,49.64,0,74.46s0,53.96,0,80.94c0,25.98,0,51.95,0,77.93,0,22.13,0,44.27,0,66.4,0,15.12,0,30.23,0,45.35,0,7.81-.45,15.88,.52,23.65,4.36,34.84,35,61.31,69.91,61.51,5.4,.03,10.81,0,16.21,0,14.04,0,28.09,0,42.13,0h61.21c24.76,0,49.52,0,74.27,0,26.86,0,53.72,0,80.57,0,26.67,0,53.34,0,80.01,0,24.53,0,49.05,0,73.58,0,20.09,0,40.18,0,60.27,0h54.47c2.46,0-.41-3.97-2.29-3.97Z"/> -->
        </g>
        <g>
          <g>
            <path class="cls-5" d="M443.78,510.41c-.73,3.94-3.65,8.18-7.74,11.17-3.65,2.7-7.96,3.94-12.19,3.94-8.32,0-11.75-5.26-10.51-12.34,.44-2.63,2.12-5.4,4.38-5.4,2.55,0,3.87,1.97,3.58,3.8-.22,1.24-.88,2.19-1.68,2.85-.58,3.07,1.17,4.89,5.11,4.89,2.26,0,5.84-1.31,7.67-2.77,2.77-2.12,4.67-5.11,5.11-7.37l4.89-27.45c-.58-.58-.73-1.75-.58-2.85,.58-3.43,2.99-4.31,5.04-4.31s3.58,1.75,3.07,4.31c-.15,1.17-.51,2.04-1.02,2.48l-5.11,29.05Z"/>
            <path class="cls-5" d="M487.95,502.6c-1.09,6.13-5.62,11.61-7.59,13.36-6.2,5.55-9.78,6.93-15.69,6.93-3.8,0-8.76-3.5-7.3-11.61,2.26-12.99,12.48-22.48,22.63-22.48,8.4,0,8.91,8.54,7.96,13.8Zm-24.02,7.52c-.73,4.31,.88,7.01,3.29,7.01,2.92,0,5.55-1.24,8.32-3.72,3.14-2.77,5.26-6.57,5.91-10.44,.88-4.75,.15-8.47-3.58-8.47-5.55,0-12.48,7.37-13.94,15.62Z"/>
            <path class="cls-5" d="M502.77,495.66c-.37-.44-.44-1.24-.29-1.9,.36-2.04,.88-4.23,5.04-4.23,1.53,0,2.99,1.9,2.7,3.36-.22,1.31-.88,2.04-1.17,2.48l-3.65,20.88c.29,.29,.66,1.17,.51,2.04-.44,2.48-3.43,3.58-5.55,3.58-1.75,0-2.85-1.31-2.41-3.43,.22-1.31,.88-2.12,1.24-2.48l3.58-20.29Zm10.07-16.72c-.73,4.31-3.14,6.79-5.33,6.79s-2.77-1.46-2.41-3.58c.66-3.65,2.63-6.57,5.18-6.57,2.04,0,2.92,1.24,2.55,3.36Z"/>
            <path class="cls-5" d="M527.22,517.49c.22,.51,.29,.95,.15,1.75-.29,1.9-2.85,2.63-4.67,2.63-1.61,0-3.14-.73-2.92-2.48,.22-.95,.51-1.46,1.17-2.04l2.04-11.39c-.51-.37-.8-1.31-.58-2.41,.22-1.24,.73-2.48,1.75-4.31l1.02-5.84c-.22-.66-.29-1.24-.15-2.19,.29-1.46,2.63-2.99,4.67-2.99,2.55,0,3.14,1.02,2.92,2.55-.22,1.02-.73,1.83-1.1,2.26l-.51,2.85c8.03-6.21,11.31-7.67,13.72-7.67s4.67,2.48,4.23,4.82l-4.23,23.87c.15,.44,.29,.88,.15,1.9-.44,2.26-1.9,3.07-4.45,3.07-2.26,0-3.21-1.02-2.92-2.77,.15-.8,.44-1.31,.95-1.9l3.58-20.51c.07-.51-.8-1.39-1.31-1.39-.66,0-3.36,.95-10.8,6.79l-2.7,15.4Z"/>
          </g>
          <path class="cls-1" d="M603.02,447.01c-70.25-2.68-140.73,.54-210.44,9.6-9.82,1.28-20.28,2.97-27.56,9.68-13.04,12.02-9.58,33.07-5.09,50.23,3.22,12.31,7.58,26.06,19,31.66,6.86,3.36,14.89,2.97,22.51,2.5,63.28-3.88,126.57-7.77,189.85-11.65,6.14-.38,12.66-.89,17.57-4.59,8.68-6.54,8.35-19.44,7.17-30.25-1.47-13.5-2.94-27-4.41-40.51-.61-5.62-1.37-11.58-4.98-15.93s-11.15-5.87-3.62-.74Z"/>
        </g>
      </g>
    </g>
  </g>
</svg>