<?xml version="1.0" encoding="UTF-8"?>
<svg xmlns="http://www.w3.org/2000/svg" viewBox="0 0 681.97 594.28">
  <defs>
    <style>
      .cls-1 {
        fill: #fff;
      }

      .cls-2 {
        fill: #d297ff;
      }
    </style>
  </defs>
  <g id="Layer_1" data-name="Layer 1"/>
  <g id="Layer_2" data-name="Layer 2">
    <g id="Layer_1-2" data-name="Layer 1">
      <g id="praivate">
        <g>
          <path class="cls-1" d="M284.4,443.81h14.28l34.3-.05,41.5-.04,35.89-.03c5.82,0,11.64,.04,17.46-.02,.08,0,.17,0,.25,0,1.43,0,2.2-.5,2.67-1.87,4.06-11.98,9.9-23.38,18.66-32.62s19.68-15.81,31.79-18.97c13.67-3.57,28.4-2.93,41.82,1.49,7.29,2.4,13.77,5.62,19.96,9.97,3.36,2.36,5.57,4.17,8.48,6.97s5.2,5.34,7.25,7.99c1.17,1.51,2.29,3.07,3.36,4.66,.48,.72,.95,1.45,1.41,2.18,.27,.44,.54,.88,.81,1.33,.59,.98-.14-.28,.36,.64,1.89,3.48,3.57,7.04,4.99,10.74,.32,.84,.95,2.74,1.38,4.21,.59,1.98,1.1,3.99,1.53,6.01,.77,3.62,1.21,6.94,1.45,10.75,.83,13.4-1.78,26.98-7.86,39.07-11.75,23.38-34.81,39.82-60.84,42.99-13.6,1.66-27.32-.43-39.63-6.07-3.21-1.47-5.32-2.63-8.36-4.57-1.44-.92-2.85-1.89-4.22-2.91-.63-.46-1.25-.94-1.86-1.42-.37-.29-.73-.58-1.1-.88,.65,.53-.54-.46-.67-.57-2.7-2.33-5.24-4.83-7.6-7.5-.27-.3-.53-.6-.79-.9-.15-.17-.82-.98-.23-.27-.56-.69-1.12-1.38-1.66-2.08-1.15-1.48-2.24-3-3.29-4.56s-1.99-3.05-2.9-4.62c.47,.82-.24-.44-.32-.58-.23-.41-.46-.82-.69-1.22-1.19-2.11-2.81-3.83-5.38-3.74l-17.77,.62c-.27,0-.6-.03-.87,.03,1.2-.26,3.23,1.88,2.23,.81-.75-.81-1.61-1.53-2.41-2.29l-8.16-7.76-5.75-5.47c-.88-.84-3.41-2.53-4.66-1.21l-10.89,11.45c-.45,.47-1.03,.94-1.41,1.48-.1,.14,.23-1.97-.32,.27,.25-.99,4.16,3.16,2.43,1.01-.04-.05-.09-.08-.13-.12-.22-.24-.48-.46-.72-.68l-6.66-6.34-5.42-5.15c-.88-.84-3.41-2.53-4.66-1.21-3.96,4.17-7.86,8.41-11.9,12.51-.13,.13-.3,.27-.4,.42-.59,.85-.07-.14,.27,.17,9.96,9.31,2.19,1.52,1.82,1.08-.07-.08-.17-.15-.24-.23-.72-.74-1.51-1.44-2.26-2.15l-8.15-7.76-5.8-5.52c-.88-.84-3.41-2.53-4.66-1.21l-10.59,11.13c-1.62,1.7-3.19,3.47-4.87,5.11-.05,.05-.37,.33-.39,.37l-.16,.13c.57-.22,1.08-.07,1.51,.46,8.57,5.12,.96,.68,.9,.53-.04-.11-.24-.23-.32-.31-.86-.9-1.82-1.73-2.72-2.59l-6.3-5.99c-.88-.84-3.41-2.53-4.66-1.21l-7.69,8.08c-.49,.52-.98,1.04-1.49,1.55-.97,.96-2.42,2.12-3.24,2.37-1.63,.49-3.41,.57-5.08,.24-.7-.14-1.35-.36-2-.66-1.01-.47,.07,.12-.89-.48-.31-.2-.61-.41-.9-.63,.51,.45,.67,.6,.5,.44-.19,.05-1.31-1.25-1.46-1.39l-3.55-3.37-10.23-9.73-9.75-9.27-2.76-2.63c-.19-.18-.36-.38-.56-.54-1-.8,2.36,3.23,.96,4.36,.05-.04,.1-.09,.13-.14,1.48-1.94,3.46-3.64,5.14-5.4l9.74-10.23,10.7-11.25,3.5-3.68c.48-.51,1.13-1.45,1.76-1.53,2.33-.32,1.99-3.65,1.25-5.14-.98-1.97-2.97-4.07-5.38-3.74s-4.46,3.38-6.06,5.05l-9.72,10.22c-5.52,5.8-11.04,11.59-16.55,17.39-.27,.29-.64,.62-.86,.91-2.07,2.78-.38,6.68,1.75,8.88,.47,.49,.98,.94,1.47,1.4l8.88,8.45c5.94,5.65,11.8,11.4,17.83,16.96,2.93,2.7,6.87,4.66,10.89,4.88,2.35,.13,4.71-.09,6.86-1.07,1.6-.73,2.83-1.9,4.04-3.15,2.86-2.96,5.68-5.96,8.51-8.95l-4.66-1.21,5.73,5.45c2.39,2.27,5.67,6.49,9.36,5.41,1.97-.58,3.54-2.95,4.87-4.36l7.41-7.79,4.88-5.13-4.66-1.21,13.78,13.11c2.5,2.38,6.33,6.76,9.91,3.73,2.03-1.72,3.77-3.96,5.6-5.88l6.71-7.05-4.66-1.21,12.02,11.43c2.33,2.22,5.76,4.42,8.52,1.6,2.13-2.18,4.2-4.42,6.3-6.63l5.6-5.88-4.66-1.21,13.73,13.06c2.36,2.24,4.55,4.9,8.11,4.77,2.97-.1,5.95-.21,8.92-.31l9.67-.34-5.38-3.74c7.43,13.22,17.07,24.85,29.89,33.18,12.51,8.13,27.22,12.78,42.16,13.05,28.32,.5,55.38-13.78,70.97-37.45,17.1-25.97,17.92-60.65,2.63-87.66-8.51-15.03-21.08-27.32-36.42-35.28-14.42-7.48-31.1-10.61-47.25-8.85-13.33,1.45-26.24,6.73-36.7,15.14-11.07,8.9-19.31,20.86-24.59,33.98-1.07,2.65-2.01,5.33-2.93,8.04l2.67-1.87h-14.28l-34.3,.05-41.5,.04-35.89,.03c-5.82,0-11.64-.04-17.46,.02-.08,0-.17,0-.25,0-5.4,0-1.76,8.94,2.29,8.94Z"/>
          <g>
            <g>
              <g id="sphereFront">
                <path class="cls-2" d="M499.79,443.91c3.42-9.85,9.68-19.64,19.39-24.22,9.48-4.48,20.69-2.27,28.87,3.9,4.98,3.76,8.82,8.83,11.77,14.28,.2,.37,.78,1.32,1.31,1.31h.05l-1.31-1.31c6.13,11.5,7.86,25.11,4.97,37.81-2.36,10.39-7.83,20.82-16.2,27.61-7.26,5.89-17.49,8.97-26.55,5.68-10.1-3.67-17.17-13.18-21.15-22.8-5.56-13.41-5.77-28.54-1.14-42.26,.21-.62-1.48-2.26-1.64-1.78-4.33,12.82-4.42,26.9,.01,39.7,3.66,10.55,10.43,21.08,20.24,26.84,4.17,2.45,8.85,3.87,13.71,3.64s9.69-1.69,13.92-4.17c9.46-5.57,15.77-15.68,19.13-25.92,4.72-14.38,3.13-30.46-3.97-43.78-.19-.37-.78-1.32-1.31-1.31h-.05l1.31,1.31c-5.31-9.81-13.5-18.97-24.57-22.06-5.09-1.42-10.57-1.55-15.63,.04s-9.49,4.78-13.04,8.68c-4.44,4.88-7.59,10.82-9.75,17.03-.21,.61,1.47,2.26,1.64,1.78Z"/>
              </g>
              <path class="cls-2" d="M494.45,464.89c.22,7.39,1.95,14.64,4.99,21.37,.2,.44,.96,.35,1.32,.28,8.34-1.62,15.51-7.53,17.95-15.78,2.24-7.56,.23-15.94-5.27-21.62-3.56-3.68-8.31-6-13.38-6.66-.53-.07-1.78-.04-2.01,.6-2.56,6.97-3.77,14.37-3.62,21.79,.01,.65,2.47,.35,2.46-.45-.15-7.34,1.05-14.62,3.58-21.51l-2.01,.6c8.07,1.05,15,6.67,17.58,14.4,2.29,6.85,.99,14.63-3.55,20.27-3.02,3.75-7.19,6.4-11.93,7.32l1.32,.28c-3.04-6.73-4.78-13.98-4.99-21.37-.02-.65-2.48-.34-2.46,.45Z"/>
            </g>
            <g>
              <g id="sphereFront-2" data-name="sphereFront">
                <path class="cls-1" d="M501.36,443.73c3.37-9.71,9.54-19.38,19.18-23.8,8.86-4.05,19.05-1.53,26.41,4.36,4.71,3.77,8.36,8.72,11.22,14,.59,1.08,1.96,1.55,3.12,1.52h.05l-3.12-1.52c6.01,11.29,7.87,24.61,5.13,37.11-2.25,10.28-7.56,20.72-15.8,27.49-6.75,5.55-16.48,8.71-24.82,5.43-9.58-3.77-16.24-13.28-20.11-22.43-5.65-13.35-5.89-28.48-1.27-42.17,.68-2-4.1-3.47-4.79-1.43-4.39,13-4.44,27.22,.06,40.2,3.75,10.82,10.79,21.24,20.97,26.9,9.35,5.2,20.72,4.42,29.79-1.05s15.73-15.65,19.2-25.88c4.92-14.53,3.43-30.95-3.77-44.46-.58-1.08-1.96-1.55-3.12-1.52h-.05l3.12,1.52c-5.6-10.34-14.48-19.59-26.25-22.42-5.51-1.32-11.4-1.4-16.81,.44-5.13,1.75-9.61,4.97-13.24,8.96-4.5,4.95-7.71,11.01-9.9,17.3-.69,1.99,4.08,3.47,4.79,1.43Z"/>
                <path class="cls-1" d="M502.18,444.62c3.4-9.71,9.5-19.38,19.21-23.73s21.1-.77,28.39,6.53c2.22,2.23,4.18,4.72,5.86,7.38s2.76,6.13,6.36,6.04c1.18-.03,2.23-1.18,1.19-2.22l-1.31-1.31c-.79-.79-1.99-1.27-3.11-1.05-.83,.16-1.7,.8-1.2,1.76,5.94,11.27,7.7,24.53,4.87,36.95-2.53,11.11-8.51,22.4-18.21,28.83-4.69,3.1-10.41,5.18-16.1,4.83-5.42-.34-10.32-3-14.26-6.64-8.62-7.97-13.32-19.97-14.57-31.45-.71-6.5-.34-13.08,1.08-19.46,.32-1.45,.7-2.89,1.12-4.32s1.09-2.5,.28-3.83c-.54-.89-1.37-1.66-2.32-2.11-.78-.37-1.72-.56-2.56-.34-.9,.24-1.11,.78-1.37,1.59-4.11,12.63-4.12,26.43,.04,39.05,3.57,10.83,10.21,21.37,19.9,27.68,5.6,3.64,12.08,5.72,18.79,5.09,6.37-.59,12.46-3.05,17.47-7.02,9.02-7.15,14.86-18.14,17.27-29.29,2.63-12.18,1.11-25.11-4.1-36.41-1.2-2.61-2.5-5.78-5.9-5.69-1.18,.03-2.23,1.18-1.19,2.22l1.31,1.31c.79,.79,1.99,1.27,3.11,1.05,.82-.16,1.71-.81,1.2-1.76-5.94-10.9-15.24-20.85-27.73-23.76-7-1.63-14.3-1.12-20.73,2.21-5.93,3.06-10.68,8.15-14.12,13.8-1.99,3.26-3.77,6.82-4.95,10.46-.46,1.41,.36,2.53,1.42,3.44s3.55,2.01,4.67,.54c1.41-1.85-3.16-3.78-4.38-2.18l-.05,.07,.81-.48-.09,.02,1.83,.06,.74,.37c-.19-.15-.22-.17-.08-.08-.05-.07-.18-.15-.14-.15l-.1-.18c-.02,.45,.01,.52,.1,.19,.18-.22,.26-.74,.36-1.01,.5-1.34,1.04-2.67,1.64-3.97,1.19-2.61,2.6-5.11,4.25-7.45,3.21-4.55,7.29-8.52,12.32-10.98,10.04-4.91,21.51-1.37,29.39,5.83,4.2,3.84,7.54,8.55,10.26,13.52l4.31-.7-1.31-1.31-1.19,2.22c-3.68,.09-2.31-1.42-1.86-.4,.08,.19,.21,.38,.31,.57,.33,.63,.65,1.27,.95,1.91,.67,1.41,1.28,2.85,1.84,4.32,1.02,2.72,1.82,5.51,2.4,8.36,1.16,5.69,1.48,11.58,.81,17.35-1.26,10.86-5.79,21.82-13.36,29.81s-20.03,13-30.71,7.56c-9.54-4.87-15.98-14.66-19.75-24.39-2.5-6.45-3.81-13.33-3.95-20.24-.07-3.49,.16-6.97,.7-10.42,.27-1.72,.61-3.43,1.02-5.12,.21-.88,.45-1.76,.7-2.64,.08-.29,.17-.58,.26-.87,.1-.34,.21-1.18,.4-1.43l-.81,.48,.09-.02-1.83-.06-.74-.37c.19,.15,.22,.17,.08,.07,.47,.64-.02-.11,.19,.24l.05,.09c.01-.53-.04-.52-.17,.04-.19,.37-.28,.88-.41,1.28-.48,1.57-.9,3.15-1.25,4.75-.71,3.18-1.14,6.42-1.36,9.67-.43,6.35,.14,12.77,1.73,18.94,2.82,10.93,8.78,21.95,18.3,28.43,5.02,3.41,10.79,5.39,16.89,5.28s11.58-2.08,16.44-5.21c9.78-6.31,16.16-17.2,19.13-28.25,3.65-13.59,2.02-28.34-4.55-40.78l-4.31,.7,1.31,1.31,1.19-2.22c3.54-.09,2.33,1.42,1.86,.4-.12-.25-.27-.49-.41-.73-.37-.66-.75-1.32-1.14-1.97-.81-1.32-1.67-2.62-2.58-3.87-1.74-2.39-3.71-4.58-5.9-6.57-4.32-3.92-9.63-6.83-15.32-8.18s-11.71-1.32-17.21,.74c-5.26,1.96-9.82,5.47-13.42,9.75-3.96,4.72-6.82,10.32-8.86,16.11-.7,1.99,4.08,3.47,4.79,1.43Z"/>
              </g>
              <g>
                <path class="cls-1" d="M493.25,464.37c.22,7.53,2.03,14.94,5.13,21.8,.58,1.29,2.44,1.66,3.67,1.43,8.71-1.69,16-8.38,18.13-17.04,1.93-7.84-.5-16.36-6.26-22.01-4.05-3.97-9.23-6.45-14.85-7.18-.79-.1-1.88,.08-2.19,.93-2.59,7.06-3.79,14.56-3.63,22.07,.04,1.99,4.91,2.94,4.86,.58-.15-7.24,1.07-14.42,3.57-21.22l-2.19,.93c7.44,.97,13.63,6.57,15.68,13.75,1.93,6.77,.32,14.17-4.32,19.47-3.03,3.46-7.04,5.71-11.54,6.59l3.67,1.43c-2.99-6.61-4.65-13.69-4.86-20.94-.06-2-4.93-2.94-4.86-.58Z"/>
                <path class="cls-1" d="M492.03,464.6c.19,5.69,1.26,11.28,3.09,16.66,.9,2.64,1.66,6.43,4.88,6.92,2.05,.32,4.36-.52,6.26-1.25,8.5-3.27,14.92-10.75,15.7-19.99,.84-10.01-4.89-19.42-13.91-23.69-2.34-1.11-4.82-1.86-7.37-2.28-1.05-.17-2.17-.27-3.22,.02-1.46,.41-1.79,1.38-2.25,2.71-1.84,5.4-2.86,11.04-3.13,16.74-.06,1.33-.32,2.98-.03,4.28,.31,1.41,2.01,2.04,3.29,2.17,1.05,.1,2.3-.06,3.19-.67,1.12-.76,.78-2.17,.8-3.35,.07-6.56,1.32-13.05,3.56-19.21,.63-1.74-2.63-2.63-3.77-2.28l-2.01,.6c-.8,.24-1.28,.9-.92,1.71,.4,.91,1.59,1.37,2.5,1.5,6.51,.9,11.97,5.39,14.51,11.4,2.95,6.98,1.57,15.43-3.38,21.14-2.78,3.21-6.45,5.39-10.61,6.24-2.2,.45-.39,2.79,.93,3.07l1.32,.28c1.06,.23,3.54,.13,2.74-1.65-2.32-5.2-3.88-10.68-4.53-16.34-.16-1.38-.24-2.75-.32-4.14s-.98-2.13-2.23-2.52c-1.36-.43-4.75-.44-5.07,1.51-.19,1.15,.97,1.93,1.95,2.22,.74,.22,2.66,.35,2.84-.79-.06,.35-.24-.02-.15,.16,.14-.04,.15-.04,.01-.01-.69-.05-1.3-.34-1.85-.87l-.42-.85c.22,.79,.1,1.83,.17,2.65,.07,.92,.16,1.83,.28,2.75,.24,1.9,.58,3.79,1.02,5.65,.88,3.73,2.13,7.37,3.69,10.87l2.74-1.65-1.32-.28,.93,3.07c8.56-1.76,15.46-8.71,17.18-17.28s-1.5-16.95-8.08-22.41c-3.63-3.01-8.13-4.86-12.78-5.51l1.58,3.21,2.01-.6-3.77-2.28c-1.43,3.95-2.47,8.03-3.04,12.2-.27,1.99-.45,3.99-.53,6-.05,1.09,0,2.18-.05,3.27,0,.05,.27-.16,.29-.15-.25,.06-.3,.08-.13,.04,.69,.05,1.31,.34,1.85,.87l.42,.85c-.2-.72-.05-1.68-.03-2.43,.02-1,.06-2.01,.13-3.01,.14-2.01,.4-4.01,.75-6s.77-3.78,1.29-5.63c.25-.89,.52-1.78,.81-2.66,.15-.44,.3-.88,.45-1.32s-.25-.06,.03-.12c.29-.06,.03,.02-.05,0,.19,.05,.41,.06,.6,.09,.38,.06,.75,.13,1.12,.21,.84,.2,1.68,.44,2.49,.74,1.4,.52,2.76,1.22,3.99,2.06,2.68,1.84,4.86,4.29,6.35,7.18,2.93,5.68,3.11,12.5,.49,18.33-2.39,5.31-7.18,9.47-12.66,11.35-.84,.29-1.7,.54-2.57,.73-.7,.16-1.01-.04,.42,.49,1.65,.61,1,.59,.85-.04-.07-.28-.25-.58-.36-.85-.82-1.99-1.54-4.02-2.12-6.09-1.2-4.29-1.86-8.71-2.01-13.16-.07-2-4.94-2.93-4.86-.58Z"/>
              </g>
            </g>
          </g>
        </g>
        <path class="cls-1" d="M613.87,592h-14.88c-13.55,0-27.11,0-40.66,0-19.92,0-39.84,0-59.77,0-24.23,0-48.46,0-72.69,0-26.55,0-53.1,0-79.65,0s-53.08,0-79.62,0c-24.54,0-49.07,0-73.61,0-20.43,0-40.86,0-61.29,0-14.22,0-28.45,0-42.67,0-5.92,0-11.84,.03-17.76,0-34-.17-63.04-26.67-66.11-60.61-.65-7.18-.28-14.54-.28-21.73s0-30.13,0-45.19,0-43.7,0-65.55c0-25.73,0-51.46,0-77.19,0-26.66,0-53.32,0-79.98,0-24.64,0-49.28,0-73.92,0-19.74,0-39.47,0-59.21,0-11.71,0-23.41,0-35.12s-.01-3.91,0-5.87c.09-15.76,5.62-31.15,15.88-43.15C32.63,10.62,49.82,2.38,68.11,2.27c1.39,0,2.78,0,4.17,0,9.66,0,19.32,0,28.99,0,17.09,0,34.17,0,51.26,0,22.41,0,44.82,0,67.23,0,25.63,0,51.27,0,76.9,0,26.87,0,53.73,0,80.6,0s51.53,0,77.3,0c22.68,0,45.35,0,68.03,0,17.54,0,35.09,0,52.63,0,10.16,0,20.31,0,30.47,0,1.68,0,3.37,0,5.05,0,15.6,.09,30.67,5.52,42.62,15.59,13.85,11.68,22.46,28.8,23.59,46.89,.17,2.71,.13,5.42,.13,8.13s0,21.24,0,31.86c0,18.98,0,37.96,0,56.94s0,48.45,0,72.67,0,53.16,0,79.74,0,52.18,0,78.26,0,44.83,0,67.25,0,31.82,0,47.73c0,6.45,.03,12.9,0,19.35-.18,34.73-27.91,65.08-63.23,65.33-.95,0-2.75,.19-3.38,1.03-.44,.58-.84,1.25,.38,1.24,36.21-.25,68.52-27.56,70.87-64.48,.44-6.85,.15-13.8,.15-20.66v-46.09c0-22.19,0-44.38,0-66.57s0-52.29,0-78.44,0-53.92,0-80.88,0-49.23,0-73.85c0-19.42,0-38.85,0-58.27,0-11.06,0-22.12,0-33.18,0-2.07,.03-4.14-.03-6.21-.5-17.89-8.32-35.08-21.37-47.31S631.08,.1,613.86,0c-1.41,0-2.83,0-4.24,0-9.81,0-19.63,0-29.44,0-17.42,0-34.84,0-52.27,0-22.72,0-45.45,0-68.17,0-26.04,0-52.08,0-78.12,0s-54.18,0-81.27,0c-25.86,0-51.71,0-77.57,0-22.66,0-45.33,0-67.99,0-17.18,0-34.36,0-51.53,0-9.49,0-18.98,0-28.47,0-1.71,0-3.43-.01-5.14,.02C52.04,.35,34.77,7.16,21.85,19.15,8.88,31.19,1.02,48,.18,65.68c-.12,2.46-.08,4.94-.08,7.4,0,10.94,0,21.87,0,32.81,0,19.25,0,38.49,0,57.74,0,24.66,0,49.33,0,73.99,0,26.95,0,53.9,0,80.85,0,26.07,0,52.15,0,78.22,0,22.36,0,44.72,0,67.08v46.41c0,6.76-.27,13.59,.1,20.35,1.98,35.69,32.5,63.56,67.93,63.75,5.4,.03,10.81,0,16.21,0h42.13c20.4,0,40.81,0,61.21,0,24.76,0,49.52,0,74.27,0h80.57c26.67,0,53.34,0,80.01,0,24.53,0,49.05,0,73.58,0,20.09,0,40.18,0,60.27,0h54.47c.95,0,2.76-.2,3.38-1.03,.44-.59,.83-1.24-.38-1.24Z"/>
      </g>
    </g>
  </g>
</svg>