<?xml version="1.0" encoding="UTF-8"?>
<svg id="Layer_2" data-name="Layer 2" xmlns="http://www.w3.org/2000/svg" viewBox="0 0 681.85 595.99">
  <defs>
    <style>
      .cls-1 {
        stroke-width: 4.4px;
      }

      .cls-1, .cls-2, .cls-3, .cls-4, .cls-5, .cls-6 {
        fill: none;
        stroke: #fff;
      }

      .cls-1, .cls-2, .cls-4, .cls-5, .cls-6 {
        stroke-miterlimit: 10;
      }

      .cls-1, .cls-6 {
        stroke-dasharray: 0 0 0 0 0 0 0 0 0 0 0 0;
      }

      .cls-7 {
        fill: #fff;
      }

      .cls-2 {
        stroke-width: 4.56px;
      }

      .cls-3 {
        stroke-linecap: round;
        stroke-linejoin: round;
        stroke-width: 5px;
      }

      .cls-4 {
        stroke-width: 2.68px;
      }

      .cls-5 {
        stroke-width: 2.15px;
      }

      .cls-6 {
        stroke-width: 3px;
      }
    </style>
  </defs>
  <g id="Comix">
    <g id="ctm-how-accept">
      <g>
        <path class="cls-4" d="M176.27,240.31c21.85,8.28,37.19,31.3,36.43,54.65-.76,23.35-17.58,45.32-39.92,52.15-22.34,6.83-48.57-1.97-62.26-20.9-13.69-18.93-13.85-46.59-.37-65.67,13.48-19.08,40.23-30.03,66.12-20.22Z"/>
        <path class="cls-5" d="M174.4,263.02c15.77,9.93,21.48,32.97,12.16,49.11-9.31,16.14-32.12,22.73-48.6,14.05-16.49-8.68-23.95-31.22-15.91-48.02,8.04-16.81,31.83-28.04,52.35-15.13Z"/>
        <path class="cls-5" d="M179.22,277.71c-2.56-4.16-8.01-6.07-12.78-5.05-4.78,1.02-8.76,4.63-10.92,9.02-2.15,4.38-2.62,9.45-2.05,14.31,.54,4.62,2.04,9.2,4.87,12.9,.8,1.05,1.71,2.02,2.76,2.81,4.53,3.39,11.29,2.7,15.81-.69,4.53-3.4,7.02-8.97,7.84-14.57,.43-2.95,.44-5.99-.34-8.87-1.19-4.35-4.13-8.13-5.19-9.85Z"/>
        <path class="cls-5" d="M157.34,285.31l5.56,.31c2.57,3.31,4.07,7.77,2.75,11.75-1.32,3.98-6.12,6.81-9.92,5.05"/>
        <path class="cls-5" d="M197.49,337.21c2.44-1.23,5.27-1.33,8-1.42l42.2-1.29c1.91-.06,4.01-.19,5.39-1.52,1.64-1.58,1.59-4.18,1.43-6.46-.1-1.38-.33-2.98-1.53-3.68-.69-.4-1.53-.39-2.32-.36l-44.12,1.34"/>
        <path class="cls-5" d="M210.42,318.5l34.94-.37c3.05-.03,6.58-.3,8.34-2.8,1.85-2.63,.54-6.54-2.03-8.47-2.57-1.93-5.96-2.32-9.18-2.36-9.64-.12-19.3,2.3-28.84,.98"/>
        <path class="cls-5" d="M215.31,289.62c11.05-.88,22.15-1.11,33.23-.68,.7,.03,1.43,.06,2.05,.4,.75,.41,1.21,1.19,1.58,1.96,1.18,2.46,1.84,5.34,.93,7.91-.91,2.57-3.8,4.54-6.4,3.71"/>
        <path class="cls-5" d="M247.6,286.53l5.66-2.79c-.18-3.71-.86-8.02-4.12-9.81-1.78-.98-3.93-.93-5.97-.86l-31.31,1.15"/>
        <path class="cls-5" d="M201.61,253.83c14.39,1.73,28.91,2.31,43.39,1.75,1.69-.07,3.44-.13,4.99,.53,3.3,1.41,4.45,5.97,2.84,9.17-1.62,3.2-5.31,4.98-8.89,5.1"/>
        <path class="cls-5" d="M249.25,253.34c3.52-3.24,1.49-9.64-2.62-12.09-4.11-2.46-9.24-2.15-14.01-1.82-16.32,1.16-32.67,1.87-49.02,2.14"/>
        <path class="cls-5" d="M141.52,235.71c-3.11-1.24-3.13-6.08-.77-8.46,2.36-2.38,5.97-2.91,9.31-3.2,8.56-.74,17.17-.75,25.77-.76l46.36-.04,19.77-.02c2.92,0,6.07,.07,8.41,1.81,2.47,1.84,3.41,5.47,2.15,8.28-1.26,2.81-4.6,4.51-7.62,3.89"/>
        <path class="cls-5" d="M235.94,220.25c1.95-1.41,3.96-2.89,5.09-5,1.14-2.12,1.11-5.06-.72-6.62-1.4-1.19-3.39-1.27-5.23-1.3-33.52-.45-67.05-.9-100.57-1.35-3.62-.05-8.01,.35-9.62,3.59-1.39,2.81,.34,6.35,2.97,8.04s5.89,2.01,9.01,2.27l14.84,1.27"/>
        <path class="cls-6" d="M.49,472.08c49.07-16.95,93.22-47.89,125.89-88.23l40.36-3.51c2.11-.18,4.47-.3,6.11,1.06,3.6,2.98-.02,8.79-3.98,11.28-11.82,7.43-27.56,8.15-39.07,2.53-37.99,37.46-80.41,70.43-126.09,98.01"/>
        <path class="cls-6" d="M261.88,359.52l-207.92-7c3.21,8.63,11.34,14.69,20.06,17.66,8.72,2.97,18.08,3.3,27.28,3.61,50.15,1.66,100.29,3.31,150.44,4.97,4.71,.16,9.62,.28,13.92-1.67,4.3-1.95,7.75-6.62,6.68-11.22-1.07-4.59-8.06-6.94-10.47-6.35Z"/>
      </g>
      <path class="cls-3" d="M503.01,187.9c-48.24,83.29-68.65,182.39-57.27,277.97,8.51-10.24,11.52-24.8,7.77-37.57l9.72,4.63c5.26-2.04,6.43-9.34,4.29-14.56s-6.48-9.17-9.69-13.81c-9.34-13.46-8.51-31.31-6.56-47.57,7.04-58.94,23.86-116.7,49.56-170.19"/>
      <path class="cls-2" d="M554.38,452.57c15.61,0,30.8-8.54,42.37,1.93,11.57,10.47,16.42,26.49,18.46,41.96,2.03,15.33,.95,32.97-10.61,43.24-9.58,8.52-23.51,9.45-36.31,9.95-73.95,2.91-147.89,5.81-221.84,8.72-18.56,.73-38.38,1.15-54.17-8.64-16.44-10.18-25.27-30.84-22.5-49.97,2.78-19.13,16.45-36.01,34.11-43.88,15.42-6.87,32.84-7.2,49.72-7.41,76.17-.96,147.32,4.09,200.77,4.09Z"/>
      <g>
        <path class="cls-7" d="M355.81,505.32c-3.86,5.99-4.65,7.17-4.93,8.06-.28,.78-.39,1.74-.5,2.46-.22,1.23-1.12,2.35-3.47,2.35-1.96,0-2.46-1.23-2.24-2.52,.17-1.23,1.51-3.3,4.09-7.39l12.49-19.21c1.4-2.18,2.18-3.53,2.58-4.65,.28-2.02,1.79-3.81,3.7-3.81,1.74,0,2.46,1.23,2.3,2.13-.17,.95-.62,1.29-.73,2.13-.34,1.68,2.63,10.81,3.36,13.89,2.35,8.46,3.75,14.22,3.42,16.13-.39,2.13-1.79,3.3-3.7,3.3-1.57,0-2.58-.9-2.35-2.13,.17-.9,.56-1.46,.67-2.02,.11-.84-.06-2.69-1.74-9.63l-12.94,.9Zm11.93-5.1l-2.35-10.36-6.78,11.03,9.13-.67Z"/>
        <path class="cls-7" d="M408,497.43c-.28,1.62-1.4,2.8-3.47,2.8-1.18,0-1.29-.78-1.46-1.46-.17-.67-.39-1.4-2.18-1.4s-3.53,1.01-5.32,2.8c-2.13,1.96-4.54,5.1-5.21,8.9-.62,3.47,.67,5.49,3.75,5.49,1.23,0,2.41-.5,3.53-1.23,1.23-.73,2.74-1.9,3.64-3.36,.62-1.51,1.06-2.58,2.74-2.58,1.96,0,2.24,1.51,2.13,2.35-.11,.62-2.24,4.09-5.66,6.44-2.58,1.85-5.1,2.8-8.34,2.8-5.15,0-7.62-3.81-6.72-9.02,1.12-6.44,3.98-9.46,7.62-12.94,1.79-1.74,5.71-3.98,8.51-3.98,4.03,0,6.89,1.96,6.44,4.37Z"/>
        <path class="cls-7" d="M437.17,497.43c-.28,1.62-1.4,2.8-3.47,2.8-1.18,0-1.29-.78-1.46-1.46-.17-.67-.39-1.4-2.18-1.4s-3.53,1.01-5.32,2.8c-2.13,1.96-4.54,5.1-5.21,8.9-.62,3.47,.67,5.49,3.75,5.49,1.23,0,2.41-.5,3.53-1.23,1.23-.73,2.74-1.9,3.64-3.36,.62-1.51,1.06-2.58,2.74-2.58,1.96,0,2.24,1.51,2.13,2.35-.11,.62-2.24,4.09-5.66,6.44-2.58,1.85-5.1,2.8-8.34,2.8-5.15,0-7.62-3.81-6.72-9.02,1.12-6.44,3.98-9.46,7.62-12.94,1.79-1.74,5.71-3.98,8.51-3.98,4.03,0,6.89,1.96,6.44,4.37Z"/>
        <path class="cls-7" d="M466.52,499.95c-.45,2.52-2.46,4.82-14.84,7.11l-2.46,.45c-.39,.9-.67,1.9-.9,3.02-.45,2.74,.67,3.86,2.91,3.86,3.58,0,6.94-2.24,8.12-3.7,.11-1.34,1.34-2.46,3.02-2.46,1.9,0,2.13,1.29,1.96,2.41-.28,1.57-5.99,8.18-14.45,8.18-4.42,0-7.39-2.07-6.38-7.9,1.85-10.36,9.91-17.86,16.69-17.86,5.88,0,6.72,4.7,6.33,6.89Zm-15.62,3.58c9.46-1.74,10.86-2.58,11.03-3.36,.22-1.34-.39-2.8-2.63-2.8-2.97,0-6.27,2.58-8.4,6.16Z"/>
        <path class="cls-7" d="M481.69,500h.06c3.86-4.48,7.11-6.61,11.59-6.61,3.53,0,5.54,2.86,4.7,7.45-1.96,11.31-11.26,17.75-16.74,17.75-1.12,0-2.07-.39-2.69-1.18l-2.3,13.1c.17,.45,.28,.95,.17,1.62-.28,1.62-1.4,2.35-3.75,2.35-1.23,0-2.35-.34-2.07-2.02,.17-.9,.45-1.57,.84-2.13l5.82-32.87c-.22-.39-.34-.95-.22-1.62,.34-1.96,1.85-2.63,3.08-2.63,2.18,0,2.91,.84,2.63,2.41-.06,.56-.5,1.18-.67,1.51l-.45,2.86Zm-2.18,12.43c.39,1.29,1.23,1.85,2.3,1.85,3.86,0,10.02-5.88,11.26-12.66,.34-2.07-.11-3.75-1.96-3.75-1.46,0-2.91,.62-5.77,3.36-1.62,1.46-3.3,3.36-4.87,5.6l-.95,5.6Z"/>
        <path class="cls-7" d="M513.56,489.42c-.11-.22-.22-.45-.06-1.4,.28-1.51,1.74-1.96,3.64-1.96,1.06,0,2.3,.22,2.07,1.74-.11,.39-.34,.9-.73,1.34l-.62,3.47,6.66-1.18c.34-.28,.67-.45,1.06-.45,1.23,0,1.74,1.12,1.51,2.3-.34,1.79-1.18,2.69-2.24,2.69-.39,0-.73-.06-.78-.28l-7,1.18-2.69,15.12c-.17,.95,0,1.62,.62,1.62,1.06,0,5.49-2.46,8.12-5.32,.17-1.29,1.12-2.18,2.35-2.18,2.07,0,2.46,1.12,2.18,2.69-.39,2.18-10.53,9.86-15.18,9.86-2.58,0-3.7-2.02-3.25-4.7l2.86-16.18-3.42,.56c-.34,.28-.67,.45-1.12,.5-1.29-.06-1.96-.95-1.68-2.63,.28-1.4,1.4-2.41,2.52-2.41,.34,0,.67,.17,.78,.34l3.7-.67,.67-4.03Z"/>
      </g>
      <!-- <g id="frame">
        <path class="cls-7" d="M611.42,592.01h-188c-26.55,0-53.1,0-79.65,0s-53.08,0-79.62,0h-73.61c-20.43,0-40.86,0-61.29,0-14.22,0-28.45,0-42.67,0-5.92,0-11.84,.03-17.76,0-34.67-.17-63.25-28.19-63.97-62.9-.13-6.13-.02-12.27-.02-18.41s0-30.82,0-46.23c0-22.07,0-44.14,0-66.22,0-25.83,0-51.66,0-77.49s0-53.27,0-79.9c0-24.49,0-48.98,0-73.47,0-19.46,0-38.92,0-58.38,0-11.31,0-22.62,0-33.92,0-1.71,0-3.42,0-5.13,.1-17.17,6.81-33.75,18.8-46.05C36.07,11.15,53.19,4.08,70.96,3.98c1.39,0,2.78,0,4.17,0,9.66,0,19.32,0,28.99,0,17.09,0,34.17,0,51.26,0,22.41,0,44.82,0,67.23,0,25.63,0,51.27,0,76.9,0,26.87,0,53.73,0,80.6,0s51.53,0,77.3,0h120.66c10.16,0,20.31,0,30.47,0,1.68,0,3.37,0,5.05,0,15.64,.09,30.84,5.7,42.55,16.11,13.74,12.22,21.28,29.91,21.39,48.21,0,1.54,0,3.07,0,4.61v33.08c0,19.27,0,38.53,0,57.8s0,48.76,0,73.15c0,26.61,0,53.23,0,79.84,0,26,0,52,0,77.99,0,22.2,0,44.41,0,66.61v46.71c0,5.99,.04,11.97,0,17.96-.22,36.19-30.03,65.71-66.13,65.96-2.47,.02,.41,3.98,2.29,3.97,37.11-.26,67.78-30.65,68.12-67.81,.05-6,0-12.01,0-18.02v-47.13c0-22.41,0-44.82,0-67.23v-78.72c0-26.93,0-53.86,0-80.78s0-48.92,0-73.37c0-19.14,0-38.28,0-57.41v-31.94c0-3.4,.01-6.79-.32-10.19-1.7-17.52-10.24-33.9-23.38-45.58C645.26,6.34,628.6,.1,611.42,0c-1.41,0-2.83,0-4.24,0-9.81,0-19.63,0-29.44,0-17.42,0-34.84,0-52.27,0-22.72,0-45.45,0-68.17,0-26.04,0-52.08,0-78.12,0s-54.18,0-81.27,0-51.71,0-77.57,0c-22.66,0-45.33,0-67.99,0-17.18,0-34.36,0-51.53,0-9.49,0-18.98,0-28.47,0-1.85,0-3.71-.03-5.56,.03C48.85,.53,31.57,8.29,19.22,21.29,7.19,33.95,.65,50.88,.55,68.3c0,1.61,0,3.22,0,4.83v34.04c0,19.53,0,39.05,0,58.58,0,24.82,0,49.64,0,74.46,0,26.98,0,53.96,0,80.94s0,51.95,0,77.93c0,22.13,0,44.27,0,66.4s0,30.23,0,45.35c0,7.81-.45,15.88,.52,23.65,4.36,34.84,35,61.31,69.91,61.51,5.4,.03,10.81,0,16.21,0,14.04,0,28.09,0,42.13,0,20.4,0,40.81,0,61.21,0,24.76,0,49.52,0,74.27,0,26.86,0,53.72,0,80.57,0h268.33c2.46,0-.41-3.97-2.29-3.97Z"/>
      </g> -->
      <g>
        <path class="cls-1" d="M622.22,221.15c-14.49,42.71-57.88,73.86-102.98,73.93-45.1,.07-88.59-30.95-103.2-73.62-14.62-42.67,.71-93.84,36.38-121.44,35.67-27.6,89.05-29.6,126.68-4.74,37.63,24.86,56.75,74.73,45.36,118.38"/>
        <path class="cls-1" d="M514.91,163.14c-1.33-13.69-5.96-27.58-15.74-37.25-9.78-9.67-25.42-14.11-37.87-8.25-7.8,3.68-13.46,10.76-17.94,18.13-8.8,14.48-14.18,31.24-14.08,48.19,.1,16.95,5.9,34.03,17.16,46.7,3.78,4.26,8.23,8.05,13.45,10.31,17.08,7.38,37.57-4.17,46.58-20.44,9.01-16.28,9.74-43.87,8.43-57.39Z"/>
        <path class="cls-1" d="M514.47,159.53c-21.07-5.87-35.27,5.74-39.54,17.62-2.59,7.21,0,15.32,2.46,22.57,2.3,6.76,5.66,13.62,11.7,17.42,4.98,3.13,11.46,3.74,16.93,1.58"/>
        <path class="cls-1" d="M623.71,211.19c.92,5.53-.74,11.44-4.4,15.68"/>
      </g>
    </g>
  </g>
</svg>