<?xml version="1.0" encoding="UTF-8"?>
<svg xmlns="http://www.w3.org/2000/svg" viewBox="0 0 686.76 596.55">
  <defs>
    <style>
      .cls-1 {
        fill: #fff;
      }
    </style>
  </defs>
  <g id="Layer_1" data-name="Layer 1"/>
  <g id="Layer_2" data-name="Layer 2">
    <g id="Layer_1-2" data-name="Layer 1">
      <g id="mony">
        <g id="coins">
          <path class="cls-1" d="M568.93,315.5h-192.67c-2.63,0-4.97-.99-6.78-2.97-2.08-2.27-2.71-4.99-2.71-7.99,0-2.71-.15-5.37,1.16-7.85,.79-1.49,1.9-2.76,3.3-3.71,.59-.4,1.24-.73,1.92-.96,.29-.1,.57-.17,.87-.22,.2-.03,1.07-.07,.38-.06,.15,0,.31,0,.46,0,1.07,0,2.14,0,3.22,0h187.66c.65,0,1.3,0,1.95,0,2.55,.03,4.87,1.4,6.47,3.33,1.98,2.38,2.4,5.09,2.4,8.08,0,2.57,.09,5.05-1.16,7.4-1.41,2.66-4.03,4.89-7.13,4.94-.54,0-2.49,.22-2.44,1.06s2.09,.78,2.55,.77c3.84-.06,7.66-1.44,10.29-4.32,2.08-2.27,2.89-5.15,2.89-8.17,0-2.62,.16-5.2-.88-7.67-1.38-3.27-4.23-5.67-7.62-6.67-3.02-.89-6.41-.6-9.53-.6h-178.23c-3.09,0-6.19,0-9.28,0-4.24,0-8.39,1.1-11.33,4.32-2.11,2.3-2.89,5.21-2.89,8.27,0,2.64-.15,5.21,.93,7.69,2.05,4.71,6.89,7.12,11.88,7.15,.91,0,1.83,0,2.74,0h190.38c.75,0,2.65,.04,3.03-.82s-1.36-1.02-1.81-1.02Z"/>
          <path class="cls-1" d="M598.12,331.7c0,2.01,.19,4.16-.19,6.14-.67,3.44-3.05,6.41-6.29,7.76-1.59,.66-3.19,.78-4.86,.78h-57.49c-10.1,0-20.2,0-30.3,0s-20.52,0-30.79,0h-72.66c-1.19,0-2.56,.11-3.61-.4-2.71-1.33-4.04-5.14-4.09-7.95-.04-2.16-.22-4.55,.27-6.67,1.08-4.69,5.29-8.06,10.09-8.09,2.72-.01,5.44,0,8.16,0h158.81c6.02,0,12.04,0,18.06,0,2.68,0,5.36-.02,8.03,0,.86,0,1.86,.04,2.61,.37,2.78,1.24,4.19,5.23,4.23,8.05,.01,.8,1.35,1.39,1.97,1.68,.17,.08,2.55,1.02,2.54,.48-.12-7.56-7.62-12.96-14.8-13.06-.6,0-1.2,0-1.8,0h-12.45c-7.24,0-14.48,0-21.72,0-9.28,0-18.56,0-27.84,0h-62.45c-9.45,0-18.89,0-28.34,0-7.52,0-15.04,0-22.56,0-4.54,0-9.08,0-13.62,0-.84,0-1.68,0-2.51,0-5.33,.06-10.16,3.67-11.05,9.06-.33,2.01-.17,4.19-.14,6.23,.06,3.55,1.79,6.75,4.56,8.94,3.03,2.4,6.79,3.83,10.67,3.83,3.25,0,6.51,0,9.76,0h19.78c8.91,0,17.82,0,26.74,0,10.18,0,20.36,0,30.54,0s21.03,0,31.55,0c9.8,0,19.6,0,29.41,0,8.08,0,16.15,0,24.23,0,5.34,0,10.67,0,16.01,0,3.38,0,7.07,.36,10.15-1.27,2.91-1.54,5.09-4.34,5.72-7.58,.38-1.99,.19-4.13,.19-6.14,0-.8-1.36-1.39-1.97-1.68-.17-.08-2.54-1.02-2.54-.48Z"/>
          <path class="cls-1" d="M598.12,362.96c0,2.05,.2,4.23-.19,6.25-.66,3.37-3.25,6.34-6.5,7.44-1.75,.59-3.51,.5-5.32,.5-6.76,0-13.53,0-20.29,0-10.27,0-20.55,0-30.82,0-9.6,0-19.2,0-28.8,0h-9.84c-1.57,0-3.19-.12-4.76,0-.51,.04-.48-.31,.83,.24l1.6,1.09c-11.53-11.68-25.53-20.78-40.95-26.44l1.93,1.52-.07-.11-.08,1.42,.1-.08-.84,.17h14.99c11.73,0,23.46,0,35.19,0,13.82,0,27.64,0,41.46,0,11.15,0,22.31,0,33.46,0h9.29c2.67,0,5.3-.09,7.31,2.01,1.54,1.61,2.26,3.82,2.3,6.02,.03,1.74,4.54,3.69,4.51,1.84-.12-7.6-7.11-13.21-14.42-13.23-2.26,0-4.51,0-6.77,0-10.36,0-20.72,0-31.08,0-14.03,0-28.05,0-42.08,0h-37.71c-6.12,0-12.26-.11-18.38,0-.4,0-.81-.02-1.14,.25-.49,.4-.38,.92-.08,1.42,.81,1.36,2.4,1.76,3.78,2.3s2.61,1.04,3.9,1.59c2.37,1.02,4.69,2.13,6.97,3.34,4.66,2.47,9.13,5.28,13.35,8.43s7.98,6.62,11.74,10.24c1.13,1.08,2.27,1.38,3.69,1.38h22.4c12.31,0,24.62,0,36.93,0,10.21,0,20.41,0,30.62,0,2.06,0,4.11,.01,6.17,0,2.8-.01,5.56-.78,7.77-2.57,3.01-2.44,4.35-5.89,4.35-9.69v-3.46c0-1.74-4.51-3.71-4.51-1.84Z"/>
          <path class="cls-1" d="M597.99,395.27c0,1.41,.02,2.81,0,4.22-.03,2.6-1.01,5-3.05,6.67-1.74,1.43-3.92,1.71-6.16,1.71h-14.85c-8.14,0-16.27,0-24.41,0s-15.63,0-23.44,0h-8.08c-1.28,0-2.61-.1-3.88,0-.06,0-.12,0-.18,0l1.61,.49s-.49-1.28-.57-1.45c-.25-.54-.51-1.07-.77-1.6-.55-1.13-1.13-2.25-1.72-3.36-1.22-2.28-2.52-4.51-3.9-6.69-2.73-4.32-5.79-8.41-9.09-12.31l.55,.95-.02-.11-1.32,2.52,.09-.06-1.23,.39h10.56c8.21,0,16.43,0,24.64,0,9.53,0,19.07,0,28.6,0,7.34,0,14.69,0,22.03,0h5.42c3.28,0,6.27,1.51,7.95,4.4,.74,1.28,1.18,2.74,1.2,4.23,.05,3.01,4.82,2.25,4.78-.37-.12-7.18-5.72-12.53-12.85-12.62-1.12-.01-2.24,0-3.36,0h-49.09c-8.81,0-17.62,0-26.43,0h-8.85c-1.36,0-2.75-.08-4.1,0-.51,.03-1.02,.17-1.45,.45-.88,.56-1.47,1.45-1.32,2.52,.12,.88,1.08,1.66,1.62,2.32,.74,.91,1.47,1.83,2.18,2.77,1.33,1.75,2.61,3.55,3.83,5.38,2.45,3.68,4.67,7.52,6.65,11.48,.46,.93,.91,1.86,1.35,2.81,.59,1.29,1.02,2.17,2.61,2.2,.08,0,.16,0,.24,0,.61,0,1.22,0,1.83,0,6.85,0,13.7,0,20.55,0,9.72,0,19.43,0,29.15,0,7.15,0,14.3,0,21.45,0,1.92,0,3.77,.05,5.67-.38,3.46-.8,6.66-3.15,8.46-6.21,1.51-2.56,1.87-5.22,1.87-8.12v-2.6c0-3.02-4.78-2.26-4.78,.37Z"/>
          <path class="cls-1" d="M597.94,426.12c0,1.36,.02,2.73,0,4.09-.03,2.38-.93,4.62-2.54,6.38-1.88,2.06-4.37,2.87-7.09,2.87h-66.8l2.41,.76-.1-.09,.78,1.34c-1.02-8.83-3.1-17.51-6.22-25.83l.06,.94v-.09l-.58,.73,.08-.04-1.04,.32c9.72,0,19.45,0,29.17,0,13.46,0,26.91,0,40.37,0,1.28,0,2.58-.05,3.86,0,4.58,.17,7.58,4.26,7.65,8.64,.04,2.21,4.91,3.12,4.87,.58-.1-6.48-5.23-11.56-11.44-12.66-1.5-.27-3.1-.18-4.63-.18h-17.14c-8.35,0-16.7,0-25.05,0-7.27,0-14.53,0-21.8,0h-6.06c-.4,0-.81-.03-1.21,0-.51,.03-1.02,.18-1.41,.52-.72,.64-.41,1.46-.12,2.25,.37,1.01,.73,2.02,1.07,3.04,1.25,3.74,2.3,7.55,3.11,11.42,.42,2,.78,4,1.08,6.02,.28,1.86,.01,4.51,1.89,5.54,1.22,.66,3.19,.42,4.56,.42h18.56c8.38,0,16.77,0,25.15,0h18.43c1.3,0,2.64,.08,3.93-.09,6.23-.79,10.98-5.85,11.06-12.17,.02-1.37,0-2.74,0-4.11,0-2.2-4.87-3.12-4.87-.58Z"/>
          <path class="cls-1" d="M598.01,457.05c0,3.83,.25,7.62-2.55,10.68-1.78,1.94-4.13,3.08-6.76,3.19,.49-.02-.3,0-.42,0h-67.78l2.73,1.32-.1-.12,.33,1.15c1.52-8.48,2.08-17.12,1.56-25.73l-.27,.66,.1-.11-1.36,.31h63.58c1.09,0,2.18-.01,3.27,0,4.69,.06,7.59,4.11,7.66,8.63,.03,1.75,4.77,3.18,4.74,1.14-.1-6.18-5.02-11.16-10.88-12.49-1.68-.38-3.31-.36-5-.36h-60.56c-1.37,0-2.74,0-4.11,0-.06,0-.12,0-.18,0-.89,0-1.56,.16-1.73,1.09-.19,1,.12,2.35,.15,3.38,.11,4.03,0,8.07-.35,12.09-.16,1.86-.36,3.71-.62,5.56-.12,.86-.25,1.72-.4,2.57-.16,.98-.53,1.83,.18,2.67,.81,.95,2.01,1.31,3.2,1.32,1.6,.03,3.2,0,4.81,0h61.03c1.55,0,3.15,.09,4.67-.2,5.64-1.06,9.71-5.79,9.79-11.54,.02-1.36,0-2.73,0-4.09,0-1.74-4.74-3.19-4.74-1.14Z"/>
          <path class="cls-1" d="M597.67,487.97c0,1.47,.06,2.95,0,4.42-.13,2.88-1.62,5.54-3.93,7.24-2,1.47-4.27,1.86-6.67,1.86h-40.84c-8.03,0-16.07,0-24.1,0h-8.29c-1.28,0-2.74-.2-4.01,0-.06,0-.12,0-.18,0l.98,.38-.09-.05,1.64,2.56v-.1l-.16,.92c4.36-8.14,7.65-16.81,9.83-25.79l-.41,.74,.1-.08-.82,.2h65.4c1.17,0,2.34-.01,3.5,0,4.61,.05,7.99,3.03,8.07,7.69,.02,1.14,1.09,2.44,2.13,2.82s1.75-.23,1.73-1.31c-.11-6.59-5.42-12.75-12.03-13.51-1.33-.15-2.7-.07-4.04-.07-6.51,0-13.01,0-19.52,0h-26.25c-6.13,0-12.26,0-18.38,0-.57,0-1.15,0-1.72,0-.09,0-.18,0-.26,0-1.74,.13-1.76,2.75-2.14,4.13-1.06,3.89-2.35,7.7-3.86,11.43-.76,1.88-1.58,3.74-2.45,5.58-.42,.88-.85,1.76-1.29,2.63s-1.24,1.89-1.29,2.86c-.09,1.64,1.38,3.26,3,3.35,.54,.03,1.09,0,1.62,0h29.7c8.68,0,17.36,0,26.05,0h18.28c1.02,0,2.04,.02,3.05,0,6.62-.18,11.47-5.56,11.53-12.07,.01-1.44,0-2.88,0-4.32,0-1.98-3.87-4.5-3.87-1.51Z"/>
          <path class="cls-1" d="M597.88,519.85c0,2.22,.28,4.72-.35,6.88-.97,3.28-3.83,6.37-7.41,6.59-1.21,.08-2.44,0-3.65,0h-55.27c-10.16,0-20.31,0-30.47,0-5.1,0-10.28-.24-15.38,0-.07,0-.15,0-.23,0l1.77,.41-.1-.07,.64,1.34c.09-.32,1.16-.97,1.41-1.19,.54-.47,1.07-.95,1.6-1.44,1.06-.97,2.1-1.96,3.12-2.97,1.99-1.97,3.9-4.02,5.73-6.14,3.71-4.31,7.08-8.9,10.08-13.72l-.64,.6,.09-.05-1.77,.4h77.67c1.49,0,2.98,0,4.47,0,3.42,0,6.3,2.11,7.75,5.18,.63,1.33,.9,2.72,.93,4.18,.03,1.9,5.03,1.9,5,0-.12-7.21-6.39-12.03-13.27-12.12-1.38-.02-2.76,0-4.14,0h-77.84c-1.43,0-2.58,.29-3.41,1.6-4.75,7.56-10.47,14.49-16.98,20.61-.78,.74-1.58,1.46-2.39,2.18-.59,.52-2.03,1.35-2.24,2.13-.18,.66,.11,.97,.64,1.34,1.19,.82,3.71,.47,5.09,.47h39.39c11.28,0,22.56,0,33.84,0,8.03,0,16.06,0,24.1,0,1.35,0,2.7,.02,4.05,0,3.67-.05,7.36-1.32,9.92-4.03,2.42-2.57,3.24-5.68,3.24-9.12v-3.05c0-1.89-5-1.91-5,0Z"/>
        </g>
        <g id="ctm">
          <g>
            <path class="cls-1" d="M519.47,451.1c-.06,26.81-10.7,52.71-29.29,71.99-16.53,17.15-39.03,28.31-62.68,31.1-5.73,.68-11.52,.89-17.29,.63-5.01-.23-10.02-.83-14.6-1.73-4.88-.96-9.69-2.28-14.38-3.93-2.33-.82-4.62-1.72-6.89-2.69-1.13-.49-2.25-.99-3.36-1.52-.2-.1-.4-.19-.6-.29-.07-.03-1.06-.52-.35-.16-.6-.3-1.19-.6-1.79-.91-4.34-2.26-8.52-4.81-12.5-7.64-.99-.7-1.98-1.43-2.95-2.16-.44-.34-.88-.67-1.32-1.02-.02-.02-.87-.7-.35-.28,.47,.38-.52-.42-.6-.49-1.88-1.54-3.72-3.15-5.49-4.82s-3.5-3.39-5.16-5.18c-.38-.41-.75-.81-1.12-1.22-.17-.18-.96-1.01-.07-.07-.19-.2-.37-.42-.55-.63-.83-.96-1.65-1.94-2.45-2.93-1.53-1.9-3-3.85-4.4-5.84-.67-.95-1.32-1.92-1.96-2.89-.59-.89,.1,.13,.09,.14,0,0-.5-.79-.53-.84-.35-.56-.7-1.13-1.05-1.7-1.26-2.1-2.45-4.24-3.56-6.42-.53-1.04-1.05-2.1-1.55-3.16-.07-.14-.39-.63-.35-.76l.27,.6c-.09-.2-.18-.41-.27-.61-.27-.61-.54-1.23-.8-1.85-.96-2.27-1.84-4.58-2.64-6.92-.38-1.12-.75-2.25-1.09-3.38-.18-.59-.37-1.19-.53-1.79,.28,1.07,.12,.43,.06,.2-.12-.44-.24-.87-.35-1.31-1.27-4.87-2.16-9.83-2.73-14.83-.13-1.12,.05,.58-.01-.12-.03-.29-.06-.58-.08-.86-.05-.58-.1-1.16-.14-1.73-.1-1.4-.18-2.79-.22-4.19-.08-2.6-.07-5.2,.03-7.8,.05-1.18,.11-2.35,.2-3.53,.05-.7,.11-1.4,.18-2.1,.02-.23,.04-.47,.07-.7,.02-.23,.05-.46,.07-.7-.04,.37-.04,.34,.01-.09,.3-2.53,.68-5.05,1.16-7.55,.94-4.92,2.22-9.78,3.85-14.52,3.11-9.04,7.5-17.64,13.18-25.73,11.21-15.96,26.57-28.45,44.57-36.18,9.16-3.93,18.52-6.44,28.4-7.63,2-.24,3.98-.18,5.99-.18,3.47,0,6.95,0,10.42,0,2.42,0,4.84-.06,7.26,0,1.96,.05,3.96,.43,5.89,.74,3.28,.53,6.54,1.25,9.76,2.11,12.16,3.23,23.1,8.38,33.3,15.63,1.25,.89,2.48,1.8,3.69,2.74,.02,.01,1.1,.86,.45,.35,.22,.17,.43,.35,.65,.53,.65,.53,1.29,1.06,1.92,1.61,2.32,1.99,4.56,4.08,6.7,6.26,.67,.68,1.33,1.37,1.98,2.07,.22,.23,.43,.47,.65,.7,0,0,1.05,1.16,.46,.5,1.1,1.24,2.16,2.51,3.2,3.8,2.01,2.51,3.91,5.1,5.69,7.78,.09,.13,.88,1.36,.24,.35,.24,.37,.47,.74,.7,1.11,.39,.62,.77,1.25,1.14,1.88,.83,1.39,1.62,2.8,2.38,4.22s1.49,2.88,2.19,4.34c.16,.33,.31,.67,.47,1,.37,.79-.48-1.11,.09,.2,.38,.86,.75,1.71,1.11,2.57,1.3,3.12,2.44,6.31,3.43,9.55,.13,.44,.26,.88,.39,1.32,.43,1.45-.22-.87,.17,.59,.2,.74,.4,1.49,.58,2.23,.41,1.65,.78,3.31,1.11,4.98,1.35,6.78,1.91,12.76,1.93,19.72,0,2.31,1.43,4.97,3.39,6.2,1.75,1.1,3.36,.27,3.36-1.84-.06-29.15-11.59-57.48-31.65-78.6-8.84-9.31-19.33-17.11-30.83-22.84-5.99-2.99-12.2-5.48-18.65-7.32-3.4-.97-6.84-1.78-10.32-2.41-2.86-.52-5.83-1.12-8.74-1.25-2.2-.1-4.43,0-6.64,0-3.57,0-7.15,0-10.72,0-1.99,0-4.01-.11-5.99,.12-5.28,.61-10.5,1.63-15.63,2.99-19.73,5.23-37.59,16.18-51.43,31.15s-23.22,33.86-26.83,53.87c-3.84,21.28-1.39,43.55,7.16,63.43,8.4,19.55,21.97,36.59,39.27,49,16.91,12.13,37.2,19.33,57.99,20.35,24.4,1.2,49.03-6.21,68.71-20.7,21.68-15.96,36.98-39.79,42.19-66.24,1.4-7.09,2.09-14.33,2.1-21.55,0-2.31-1.43-4.97-3.39-6.2-1.76-1.1-3.35-.27-3.36,1.84Z"/>
            <path class="cls-1" d="M351.19,452.71c.04-14.21,4.24-27.85,12.36-39.44,.5-.72,1.02-1.42,1.54-2.12,.13-.17,.26-.35,.4-.52-.04,.05-.3,.38-.05,.06,.3-.38,.61-.77,.93-1.14,1.11-1.34,2.27-2.65,3.48-3.9s2.38-2.39,3.63-3.53c.16-.15,.33-.29,.49-.44,.44-.41-.53,.44-.07,.06,.29-.24,.58-.5,.87-.74,.67-.56,1.35-1.1,2.04-1.64,1.38-1.07,2.81-2.07,4.26-3.05,.69-.47-.1,.05-.2,.12,.17-.13,.37-.24,.55-.35,.32-.2,.65-.4,.98-.6,.8-.48,1.6-.95,2.42-1.4,.72-.4,1.45-.78,2.19-1.15,.25-.12,.91-.3,1.04-.51-.19,.32-.92,.43-.3,.15,.25-.11,.5-.23,.75-.35,1.61-.73,3.25-1.4,4.92-2,.16-.06,.31-.11,.47-.17,.83-.31-.21,.07-.31,.1,.43-.13,.85-.28,1.27-.42,.85-.27,1.71-.53,2.57-.76,.81-.22,1.63-.43,2.45-.63,.44-.1,.88-.2,1.32-.3,.64-.15-.84,.16-.19,.04,.28-.05,.56-.11,.83-.16,1.74-.33,3.49-.59,5.24-.79,.86-.1,1.72-.18,2.58-.24,.23-.02,.46-.03,.69-.05-.82,.05-.19,.01-.02,0,.52-.02,1.05-.05,1.57-.06,1.81-.05,3.63-.03,5.44,.06,.92,.05,1.85,.11,2.77,.19,.4,.04,.8,.07,1.2,.12,.23,.02,.46,.05,.68,.08,.1,.01,.85,.1,.3,.03,3.53,.46,7.02,1.21,10.44,2.22,12.98,3.82,24.88,11.74,33.56,22.34,8.75,10.69,14.28,24.24,15.33,38.03,1.09,14.26-2.17,28.57-9.47,40.73-.87,1.45-1.8,2.87-2.77,4.26-.47,.67-.95,1.33-1.45,1.98-.13,.17-.26,.35-.4,.52,.09-.12,.38-.47-.05,.06-.31,.38-.61,.76-.93,1.14-2.19,2.64-4.58,5.12-7.13,7.41-.16,.15-.33,.29-.49,.43,.03-.03,.55-.47,.19-.16-.33,.28-.66,.57-1,.84-.67,.56-1.35,1.1-2.04,1.63-1.39,1.07-2.83,2.04-4.27,3.04-.44,.3,.33-.21,.33-.21-.17,.13-.37,.24-.55,.35-.37,.23-.74,.46-1.12,.69-.75,.45-1.51,.89-2.28,1.31s-1.55,.83-2.33,1.23c-.21,.1-1.24,.76-.59,.29,.6-.43,.07-.03-.15,.06-.25,.11-.5,.23-.75,.34-1.56,.7-3.16,1.35-4.77,1.94-.21,.08-.42,.15-.63,.22-.65,.24,.97-.32,.31-.1-.37,.12-.74,.25-1.11,.36-.91,.29-1.82,.56-2.73,.81-.81,.22-1.63,.43-2.45,.62-.38,.09-.98,.11-1.32,.3,.02,0,.88-.18,.36-.08-.28,.05-.56,.11-.83,.16-1.79,.34-3.6,.61-5.42,.8-.86,.09-1.72,.17-2.58,.23-.12,0-.86,.05-.33,.02,.49-.03-.1,0-.16,0-.58,.03-1.16,.05-1.75,.06-1.81,.04-3.63,.02-5.44-.07-.87-.04-1.73-.11-2.6-.18-.46-.04-.92-.09-1.37-.14-.23-.02-.46-.05-.68-.08-.19-.02-.5-.06-.13-.01-1.8-.24-3.6-.55-5.37-.93-13.51-2.89-25.78-9.86-35.36-19.94-9.53-10.03-15.83-23.03-17.99-36.69-.55-3.46-.8-6.94-.81-10.44,0-2.02-2.99-1.55-4.26-1.18s-2.48,.87-3.48,1.67c-.59,.47-1.63,1.25-1.63,2.09,.04,14.86,4.54,29.45,13.25,41.53,8.59,11.9,20.57,20.91,34.4,25.83,14.71,5.23,31.11,5.41,46.07,1.08,14.94-4.32,28.76-12.96,38.71-24.96,9.5-11.45,15.53-25.59,16.7-40.47,1.17-14.88-2.31-30.01-10.13-42.75-7.66-12.48-18.99-22.32-32.38-28.22-14.2-6.26-30.19-7.59-45.34-4.44-15.39,3.21-29.83,11.02-40.78,22.33-10.3,10.64-17.34,24.37-19.66,39.02-.58,3.66-.86,7.35-.87,11.05,0,2.02,3,1.55,4.26,1.18s2.48-.87,3.48-1.67c.59-.47,1.63-1.25,1.63-2.09Z"/>
            <g>
              <g id="sphereFront">
                <path class="cls-1" d="M411.45,474.03c3.42,9.17,9.79,18.38,19.4,21.74,5.56,1.94,11.55,1.34,17.17,.03s11.02-3.53,15.56-7.18,8.04-8.54,10.67-13.74l-8.45,2.29h.04c1.59,0,3.2-.38,4.72-.79,.73-.2,1.46-.42,2.16-.69,.36-.14,1.38-.43,1.57-.81,5.37-10.81,6.7-23.37,3.48-35.03-2.58-9.34-8.01-18.52-16.1-24.09-9-6.19-20.1-5.72-29.94-1.74-9.19,3.71-15.58,11.85-19.4,20.76-5.33,12.43-5.48,26.58-.88,39.25,.31,.87,4.24-.25,4.83-.4,.43-.11,4.73-1.16,4.46-1.91-3.83-10.56-4.41-22.22-1.32-33.05,2.54-8.89,7.66-18.17,15.6-23.33,.79-.51,1.61-1,2.46-1.41-.33,.16,.28-.12,.35-.15,.2-.09,.4-.17,.6-.25,.59-.24-.83,.28,.14-.05-1.08,.36,.64-.14-.79,.22,.27-.07,.91-.2-.32,.06,.22-.05,.83-.14-.2,.03,.7-.12,.11-.02-.03,0,.26-.03,.52-.05,.78-.06,.59-.03-.67,0,.34,0,.24,0,.47,0,.71,0,.58,.02,1.17,.05,1.75,.1,4.01,.37,7.94,1.92,11.31,4.1,7.56,4.89,12.72,13.26,15.57,21.65,4.1,12.06,3.22,25.73-2.45,37.14l8.45-2.29h-.04c-1.59,0-3.2,.38-4.72,.79-.73,.2-1.46,.42-2.16,.69-.36,.14-1.38,.43-1.57,.81-2.14,4.22-4.81,8.2-8.2,11.53-1.52,1.5-3.18,2.87-4.99,4-.43,.27-.87,.53-1.32,.78-.37,.2-.81,.43-.97,.51-.46,.22-.93,.42-1.4,.6,.67-.26-.03,0-.2,.06-.31,.1-.21,.08,.28-.09-.42,.12-.43,.13-.04,.02,.74-.28-.25,.08-.38,.09,.15,0,1.06-.3,.23-.06,.93-.26,.21-.04-.07,0-.66,.1,.87-.06-.24,.03-.99,.08-1.81,.12-2.87,.06-2.03-.11-4.03-.59-5.93-1.32-4.01-1.53-7.45-4.18-10.29-7.36-3.58-4.02-6.2-8.81-8.08-13.83-.33-.87-4.23,.25-4.83,.4-.43,.11-4.73,1.17-4.46,1.91Z"/>
              </g>
              <path class="cls-1" d="M416.05,457.52c.03-5.26,.94-10.46,2.66-15.42,.22-.62,.74-2.87,1.31-3.08,.37-.13,1.28,.24,1.68,.35,.58,.16,1.15,.35,1.71,.56,1.03,.39,2.04,.87,2.98,1.45,.47,.29,.92,.61,1.35,.95,.39,.31,.99,.96,.22,.14-.28-.29-.53-.61-.78-.92-.12-.14-.48-.8-.08-.1-.41-.71,.26,.45,.15,.26,.48,.85,.88,1.75,1.19,2.68,.61,1.84,.94,3.77,.98,5.71,.07,3.95-1.18,7.88-3.47,11.1-1.43,2.01-3.24,3.75-5.32,5.08-1.13,.72-2.33,1.32-3.59,1.79-.62,.23-1.25,.43-1.89,.6-.33,.09-1.48,.52-1.79,.34l6.27,7.33c-2.36-6-3.57-12.37-3.6-18.81,0-.55-.92-1.67-1.17-2.02-.74-1.04-1.58-2.05-2.45-2.97-.68-.72-1.37-1.5-2.19-2.06-.24-.17-.74-.57-.74-.03,.02,3.87,.44,7.72,1.31,11.49,.41,1.77,.91,3.51,1.5,5.22,.3,.86,.59,1.76,.98,2.59,1.06,2.25,3.14,4.45,4.99,6.06,.85,.74,1.17,.93,2.22,.72,.78-.15,1.54-.35,2.29-.59,1.65-.54,3.23-1.31,4.68-2.28,2.62-1.76,4.79-4.17,6.27-6.95,2.73-5.16,2.89-11.32,.7-16.69-1.6-3.92-4.32-7.37-7.17-10.45s-5.87-5.65-9.66-7.14c-.87-.34-1.76-.62-2.67-.83-.29-.07-.88-.29-1.17-.23-.53,.11-.49,.31-.71,.86-.77,1.92-1.43,3.88-1.95,5.88-1.06,4.02-1.59,8.17-1.61,12.33,0,.54,.93,1.68,1.17,2.02,.74,1.04,1.58,2.05,2.45,2.97,.33,.35,2.93,2.91,2.93,2.09Z"/>
            </g>
          </g>
        </g>
        <path class="cls-1" d="M617.66,592h-14.88c-13.48,0-26.95,0-40.43,0h-211.91c-26.53,0-53.07,0-79.6,0-24.54,0-49.08,0-73.62,0-20.52,0-41.04,0-61.56,0-14.22,0-28.44,0-42.65,0-5.91,0-11.83,.03-17.74,0-33.57-.17-62.05-26.45-65.29-59.83-.71-7.29-.32-14.79-.32-22.1,0-14.97,0-29.94,0-44.9,0-21.83,0-43.66,0-65.49,0-25.73,0-51.46,0-77.2,0-26.79,0-53.57,0-80.36s0-49.3,0-73.94c0-19.66,0-39.33,0-58.99,0-11.72,0-23.44,0-35.17,0-1.96-.01-3.92,0-5.87,.08-15.56,5.58-30.83,15.71-42.67C36.42,12.57,52.04,4.7,69.11,4.54c1.39-.01,2.78,0,4.17,0,9.66,0,19.32,0,28.97,0,17.08,0,34.16,0,51.24,0h67.21c25.62,0,51.25,0,76.87,0s53.49,0,80.24,0,51.53,0,77.3,0c22.69,0,45.37,0,68.06,0,17.56,0,35.13,0,52.69,0,10.19,0,20.38,0,30.56,0,1.7,0,3.41,0,5.11,0,15.24,.08,29.89,5.37,41.62,15.13,13.89,11.55,22.53,28.55,23.78,46.57,.2,2.84,.16,5.69,.16,8.54v31.78c0,18.98,0,37.95,0,56.93,0,24.23,0,48.46,0,72.69s0,53.19,0,79.78,0,51.99,0,77.99v115.11c0,6.46,.03,12.92,0,19.37-.17,32.7-25.6,63.34-59.44,63.57-2.27,.02-4.97,.56-6.77,2.06-1.3,1.09-1.33,2.49,.75,2.48,18.69-.13,37.33-6.56,51.41-19.02,13.61-12.05,22.27-28.95,23.44-47.16,.45-6.95,.16-14,.16-20.95,0-15.38,0-30.77,0-46.15v-66.64c0-26.17,0-52.34,0-78.5s0-53.72,0-80.58c0-24.72,0-49.44,0-74.15s0-38.65,0-57.98c0-11.03,0-22.07,0-33.1,0-2.2,.03-4.41-.04-6.62-.62-17.99-8.66-35.21-21.87-47.41S634.98,.1,617.65,0c-1.43,0-2.87,0-4.3,0h-29.54c-17.44,0-34.89,0-52.33,0-22.73,0-45.47,0-68.2,0-26.04,0-52.08,0-78.12,0-26.97,0-53.94,0-80.91,0h-77.85c-22.55,0-45.11,0-67.66,0H78.78c-1.89,0-3.78-.01-5.66,.03C54.37,.42,35.83,7.72,22.08,20.5,8.94,32.72,1.03,49.72,.18,67.64c-.12,2.47-.08,4.94-.08,7.42,0,10.95,0,21.9,0,32.85v57.81c0,24.69,0,49.37,0,74.06s0,53.71,0,80.57,0,52.37,0,78.56c0,22.26,0,44.52,0,66.77,0,15.45,0,30.91,0,46.36,0,6.87-.29,13.84,.13,20.71,2.25,35.98,33.28,63.58,68.9,63.79,5.44,.03,10.89,0,16.33,0,14.07,0,28.14,0,42.21,0,20.42,0,40.83,0,61.25,0H496.95c20.08,0,40.17,0,60.25,0,13.43,0,26.86,0,40.29,0h14.16c2.26,0,4.98-.56,6.77-2.06,1.31-1.1,1.32-2.48-.75-2.48Z"/>
        <path class="cls-1" d="M256.87,208.19c-27.79,39.76-55.54,79.55-83.2,119.4s-55.39,79.99-82.88,120.13c-3.25,4.74-6.96,9.4-9.82,14.39s-1.79,10.78,1.7,15.03c6.3,7.69,19.14,12.32,26.65,3.54,1.96-2.29,3.48-5.09,5.13-7.61,1.86-2.85,3.73-5.7,5.59-8.54,3.41-5.22,6.83-10.45,10.23-15.67,6.97-10.69,13.93-21.39,20.88-32.1,23.21-35.75,46.32-71.56,69.38-107.4,18.81-29.23,37.66-58.44,56.31-87.78,1.87-2.94,3.17-6.16,4.54-9.35l-1.65,1.71,.06-.04h-4.86c6.52,3.9,13.18,7.52,19.64,11.53,7.42,4.61,14.75,9.36,22.16,13.97,3.64,2.26,7.29,4.5,10.99,6.67s8,5.1,12.54,2.77c2.2-1.13,3.71-3.38,5.29-5.22s3.13-3.66,4.69-5.49c16.07-18.79,32.11-37.61,48.16-56.42,10.01-11.74,20.06-23.45,30.03-35.23,12.01-14.19,24.02-28.38,36.05-42.55,5.36-6.32,10.72-12.63,16.11-18.92,.27-.32,2.38-2.51,2.25-2.71,0,.02-.88,.07-.93,.06-2.13-.46-.89-.65-.72-.34,.45,.85,2.39,1.5,3.24,1.77,1.95,.63,3.97,.57,5.87-.2,4.39-1.77,4.91-6.19,5.81-10.29s1.8-8.45,2.7-12.68c.43-2.03,1.18-4.21,.97-6.31-.23-2.24-1.46-4.29-3.16-5.72-4.09-3.43-8.44-1.64-12.79,.05-4.05,1.57-8.08,3.16-12.1,4.79s-8.22,2.83-9.05,7.6c-.33,1.91,.11,3.9,1.11,5.55,.28,.47,1.83,2.06,1.79,2.16-.06,.14-.2-.6-.4-.86-.08-.1,.48-.58-.1,.06-.2,.22-.39,.46-.58,.69-.47,.55-.93,1.11-1.4,1.66-2.36,2.79-4.72,5.57-7.08,8.35-12.71,14.95-25.48,29.85-38.23,44.77-3.58,4.19-7.23,8.33-10.73,12.59-.12,.14-.24,.28-.36,.43-.03,.03-.06,.07-.08,.1-.24,.31-1.11,1.69-.72,.99,.18-.31,.86-.96,.44-.66-1.25,.88-2.32,2.74-3.3,3.91-2.85,3.37-5.7,6.73-8.55,10.09-15.2,17.94-30.42,35.86-45.62,53.8-3.28,3.87-6.56,7.75-9.84,11.63-1.39,1.64-2.77,3.28-4.15,4.92-.55,.66-1.11,1.31-1.66,1.97-.37,.44-1.92,2.11-.07,1.34,.15-.06,1.61,.92-.52-.36-.48-.29-.96-.55-1.44-.83-.96-.55-1.93-1.11-2.89-1.66-1.93-1.11-3.87-2.22-5.8-3.32-4-2.29-8.01-4.56-12.02-6.84-7.9-4.49-15.8-8.97-23.68-13.49-1.93-1.11-3.86-2.22-5.79-3.33-2.09-1.21-4.09-2.56-6.58-2.71-3.24-.19-5.41,1.46-7.77,3.37l8.19,5.56c-.78,1.49-.57,.73,0,.26,.3-.25,.57-.53,.86-.79,.48-.44,2.53-1.97,.65-.68l-6.54-7.26c-3.9,4.46-7.66,9.03-11.35,13.65-1.63,2.04-1.43,4.76,.57,6.52,1.73,1.52,5.26,2.08,6.91,.02,3.69-4.63,7.46-9.2,11.35-13.65,3.45-3.95-2.25-10.22-6.54-7.26-1.64,1.13-3.87,2.84-4.8,4.62-1.11,2.11-.04,4.67,1.83,5.91,2.1,1.38,4.41,1.21,6.35-.35l.8-.64c.16-.13,.42-.29,.55-.44,.27-.33,.29,.13-.17,.17-.11,.01-.91,.09-.94,.1l-.37-.06c.36,.21,.72,.42,1.08,.63,1.08,.63,2.16,1.25,3.25,1.88,3.86,2.23,7.74,4.45,11.61,6.66,7.65,4.37,15.32,8.71,22.98,13.07,3.88,2.21,7.75,4.42,11.63,6.64s7.66,5.01,12.21,3.12c2.3-.96,3.71-2.99,5.27-4.84,1.27-1.51,2.55-3.02,3.83-4.54,14.47-17.13,28.99-34.23,43.5-51.33,6.52-7.69,13.04-15.37,19.55-23.06,1.18-1.39,2.35-2.78,3.53-4.17,.47-.55,.95-1.1,1.4-1.66,.97-1.2,1.56-1.57,.35-.42,1.02-.97,1.88-2.23,2.79-3.3,11.2-13.16,22.45-26.27,33.67-39.41,5.74-6.73,11.49-13.46,17.21-20.21,2.04-2.41,4.68-4.86,6.24-7.61,.96-1.69,1.14-3.74,.69-5.6-.23-.95-.6-1.88-1.14-2.7-.28-.43-1.62-1.82-1.63-1.83,.02,.11,.32,.75,.37,.88,.17,.48-.86,.41,.14,.18,2-.46,4.09-1.67,6-2.43,4.02-1.61,8.05-3.18,12.09-4.73,.64-.24,1.09-.15,.87-.52,.54,.9-2.29-1.46-1.46-1.33-.07-.01-1.34,6.22-1.44,6.73-.86,4.09-1.72,8.18-2.63,12.26-.12,.52-.23,1.04-.35,1.56-.69,2.88-.1,.61-.16,.6-.11-.02,.69-.48,.79-.5,.69-.12,1.73,1.03,.97,.22-.82-.88-2.5-1.56-3.64-1.81-5.49-1.22-8.42,2.72-11.52,6.34-2.42,2.83-4.83,5.66-7.24,8.5-12.49,14.68-24.94,29.39-37.39,44.1-8.12,9.6-16.28,19.17-24.44,28.73-15.87,18.61-31.74,37.23-47.63,55.83-6.54,7.66-13.09,15.32-19.64,22.98-.18,.21-.59,.59-.51,.7-.02-.03,2.03,.61,.5-.32-1.93-1.18-3.93-2.27-5.88-3.43-3.57-2.12-7.1-4.3-10.62-6.51-7.29-4.56-14.51-9.24-21.82-13.75-6.01-3.71-12.22-7.06-18.27-10.68-1.36-.81-3.51-.87-4.86,0-1.49,.96-1.93,2.26-2.58,3.77-.92,2.12-1.8,4.28-2.99,6.26-1.71,2.83-3.56,5.59-5.33,8.37-4.25,6.67-8.52,13.32-12.78,19.98-9.74,15.2-19.5,30.38-29.27,45.56-21.35,33.19-42.72,66.36-64.17,99.48-13.42,20.71-26.86,41.4-40.35,62.07-3.41,5.23-6.82,10.45-10.24,15.67-1.53,2.34-2.91,4.94-4.66,7.12-.86,1.08-2.46,1.98-3.41,2.11-1.9,.27-2.23-.11-3.87-1.02-1.78-.99-3.41-1.98-4.59-3.71-2.47-3.61,1.73-7.6,3.87-10.72,26.78-39.15,53.72-78.19,80.75-117.17,27.05-39.01,54.18-77.95,81.36-116.86,3.27-4.68,6.54-9.36,9.81-14.04,1.51-2.16-.41-5.27-2.39-6.29-2.47-1.27-4.99-.46-6.5,1.71h0Z"/>
      </g>
    </g>
  </g>
</svg>