<?xml version="1.0" encoding="UTF-8"?>
<svg xmlns="http://www.w3.org/2000/svg" viewBox="0 0 681.4 595.99">
  <defs>
    <style>
      .cls-1 {
        fill: #fff;
      }

      .cls-2 {
        fill: none;
        stroke: #fff;
        stroke-miterlimit: 10;
        stroke-width: 4px;
      }
    </style>
  </defs>
  <g id="Layer_1" data-name="Layer 1"/>
  <g id="Layer_2" data-name="Layer 2">
    <g id="Comix">
      <g id="ctm-feature-video-chat">
        <g>
          <path class="cls-2" d="M485.75,248.11c112.6,39.71,115.53,193.38,4.54,237.36-48.63,17.89-107.77,1.75-140.58-38.35-75.24-94.27,12.1-236.75,136.04-199.01h0Z"/>
          <path class="cls-2" d="M410.19,303.28c-34.63-7.36-72.61,19.34-77.48,54.41-4.87,35.07,24.32,71.07,59.63,73.63,35.31,2.56,69.36-28.79,69.79-64.19s-32.77-67.55-51.95-63.85c0,0,19.18-3.7,0,0Z"/>
          <path class="cls-2" d="M449.67,335.67c-17.47-.15-33.39,15.98-33,33.44,.39,17.47,17,32.88,34.44,31.96"/>
          <path class="cls-2" d="M377.69,471.34c-38.86,11.88-73.34,37.54-95.87,71.35,27.65,.62,55.29,1.23,82.27,.51,20.99-21.64,51.16-34.06,81.3-33.46,30.14,.6,59.8,14.2,80.05,35.38,28.14-.4,56.28-.8,84.01,.5-24.28-32.68-58.51-57.88-96.93-71.35"/>
          <path class="cls-2" d="M204.95,121.71l-.13-30.59c.25-6.18-1.53-9.76-7.18-12.59-13.18-7.07-28.82-7.31-43.77-7.38l-41.2-.2c-22.22-.81-36.6,5.21-40.86,28.78-2.11,15.77,2.1,31.69,3.87,47.36,.44,3.09,.89,6.24,2.23,9.06,3.32,6.98,11.44,10.52,19.15,11.04,7.71,.52,15.36-1.34,23.04-2.21,9.53-1.07,19.21-.59,28.64,1.16,7.1,1.32,14.16,3.37,21.38,3.17,12.63-.35,24.77-8.23,30.24-19.63,5.47-11.4,4.59-25.72,4.58-27.96h0Z"/>
          <path class="cls-2" d="M154.58,103.97c-9.77-9.21-27.57-7.38-35.41,3.52s-4.04,28.21,7.56,34.98c11.6,6.77,28.39,1.71,34.49-10.25,6.1-11.96,.46-28.39-11.62-34.25"/>
        </g>
      </g>
    </g>
  </g>
</svg>