<?xml version="1.0" encoding="UTF-8"?>
<svg xmlns="http://www.w3.org/2000/svg" viewBox="0 0 681.4 595.99">
  <defs>
    <style>
      .cls-1 {
        stroke-width: 3px;
      }

      .cls-1, .cls-2, .cls-3, .cls-4 {
        fill: none;
        stroke: #fff;
        stroke-miterlimit: 10;
      }

      .cls-2 {
        stroke-dasharray: 0 0 0 0 0 0 0 0 0 0 0 0;
        stroke-width: 4.4px;
      }

      .cls-3 {
        stroke-width: 3.88px;
      }

      .cls-5 {
        fill: #fff;
      }

      .cls-4 {
        stroke-width: 3.47px;
      }
    </style>
  </defs>
  <g id="Layer_1" data-name="Layer 1"/>
  <g id="Layer_2" data-name="Layer 2">
    <g id="Comix">
      <g id="ctm-how-share">
        <g>
          <path class="cls-2" d="M360.42,75.69c44.63,6.5,83.14,43.51,91.39,87.85,8.25,44.34-14.36,92.73-53.67,114.85-39.31,22.12-92.41,16.33-126.02-13.74-33.62-30.07-45.27-82.2-27.65-123.72,17.61-41.52,63.2-69.37,108.18-66.09"/>
          <path class="cls-2" d="M322.85,191.75c-13.23,3.79-26.04,10.86-33.78,22.24-7.74,11.38-9.27,27.56-1.24,38.73,5.03,7.01,13.02,11.29,21.09,14.35,15.84,6.03,33.3,8.27,49.95,5.1,16.65-3.18,32.4-11.98,42.81-25.35,3.5-4.49,6.42-9.55,7.7-15.1,4.16-18.13-10.91-36.19-28.56-42.1-17.64-5.9-44.91-1.61-57.97,2.13Z"/>
          <path class="cls-2" d="M322.19,194.44c-2.5,7.39,.02,15.6,3.09,22.77,3.02,7.04,8.29,10.23,15.46,12.95,10.56,4.01,19.55,.22,25.84-4.15,17.93-12.46,16.13-29.85,12.54-35.6"/>
          <path class="cls-2" d="M342.34,74.63c6.91-.42,27.59,1.41,32.43,4.24"/>
        </g>
        <!-- <g id="frame">
          <path class="cls-5" d="M610.97,592.01h-14.88c-13.55,0-27.11,0-40.66,0h-132.46c-26.55,0-53.1,0-79.65,0-26.54,0-53.08,0-79.62,0-24.54,0-49.07,0-73.61,0h-61.29c-14.22,0-28.45,0-42.67,0-5.92,0-11.84,.03-17.76,0-34.67-.17-63.25-28.19-63.97-62.9-.13-6.13-.02-12.27-.02-18.41,0-15.41,0-30.82,0-46.23,0-22.07,0-44.14,0-66.22,0-25.83,0-51.66,0-77.49,0-26.63,0-53.27,0-79.9,0-24.49,0-48.98,0-73.47,0-19.46,0-38.92,0-58.38,0-11.31,0-22.62,0-33.92,0-1.71,0-3.42,0-5.13,.1-17.17,6.81-33.75,18.8-46.05C35.62,11.15,52.74,4.08,70.51,3.98c1.39,0,2.78,0,4.17,0,9.66,0,19.32,0,28.99,0,17.09,0,34.17,0,51.26,0,22.41,0,44.82,0,67.23,0,25.63,0,51.27,0,76.9,0,26.87,0,53.73,0,80.6,0h77.3c22.68,0,45.35,0,68.03,0,17.54,0,35.09,0,52.63,0,10.16,0,20.31,0,30.47,0,1.68,0,3.37,0,5.05,0,15.64,.09,30.84,5.7,42.55,16.11,13.74,12.22,21.28,29.91,21.39,48.21,0,1.54,0,3.07,0,4.61v33.08c0,19.27,0,38.53,0,57.8s0,48.76,0,73.15v157.84c0,22.2,0,44.41,0,66.61v46.71c0,5.99,.04,11.97,0,17.96-.22,36.19-30.03,65.71-66.13,65.96-2.47,.02,.41,3.98,2.29,3.97,37.11-.26,67.78-30.65,68.12-67.81,.05-6,0-12.01,0-18.02v-47.13c0-22.41,0-44.82,0-67.23s0-52.48,0-78.72,0-53.86,0-80.78,0-48.92,0-73.37c0-19.14,0-38.28,0-57.41v-31.94c0-3.4,.01-6.79-.32-10.19-1.7-17.52-10.24-33.9-23.38-45.58C644.81,6.34,628.15,.1,610.97,0c-1.41,0-2.83,0-4.24,0-9.81,0-19.63,0-29.44,0-17.42,0-34.84,0-52.27,0-22.72,0-45.45,0-68.17,0-26.04,0-52.08,0-78.12,0s-54.18,0-81.27,0-51.71,0-77.57,0c-22.66,0-45.33,0-67.99,0-17.18,0-34.36,0-51.53,0-9.49,0-18.98,0-28.47,0-1.85,0-3.71-.03-5.56,.03C48.4,.53,31.12,8.29,18.77,21.29,6.74,33.95,.2,50.88,.1,68.3c0,1.61,0,3.22,0,4.83v34.04c0,19.53,0,39.05,0,58.58,0,24.82,0,49.64,0,74.46s0,53.96,0,80.94c0,25.98,0,51.95,0,77.93,0,22.13,0,44.27,0,66.4,0,15.12,0,30.23,0,45.35,0,7.81-.45,15.88,.52,23.65,4.36,34.84,35,61.31,69.91,61.51,5.4,.03,10.81,0,16.21,0,14.04,0,28.09,0,42.13,0h61.21c24.76,0,49.52,0,74.27,0,26.86,0,53.72,0,80.57,0h80.01c24.53,0,49.05,0,73.58,0,20.09,0,40.18,0,60.27,0h54.47c2.46,0-.41-3.97-2.29-3.97Z"/>
        </g> -->
        <g>
          <path class="cls-3" d="M104.66,399.71c-12.07,9.62-16.35,29.6-5.66,40.74,7.57,7.88,19.53,9.14,30.43,9.92,23.69,1.7,47.44,3.38,71.17,2.59,10.82-.36,22.04-1.37,31.44-6.75,9.4-5.38,16.45-16.29,14.12-26.86-3.1-14.04-19.52-20.04-33.62-22.87-24.59-4.94-95.82-6.38-107.89,3.24Z"/>
          <path class="cls-3" d="M213.35,413.63c2.2,.7,2.28,4.11,.62,5.71-1.65,1.6-4.15,1.87-6.45,2.04-25.49,1.83-51.14,1.37-76.54-1.37-2.83-.3-5.79-.69-8.11-2.32-2.33-1.64-3.73-4.95-2.31-7.42"/>
          <path class="cls-3" d="M275.11,297.47c-38.67,37.88-88.96,63.74-142.27,73.15"/>
          <path class="cls-3" d="M251.86,346.83l-32.12,30.72"/>
          <path class="cls-3" d="M287.4,325.93l-20.95,69.4"/>
        </g>
        <g>
          <path class="cls-3" d="M443.41,399.71c-12.07,9.62-16.35,29.6-5.66,40.74,7.57,7.88,19.53,9.14,30.43,9.92,23.69,1.7,47.44,3.38,71.17,2.59,10.82-.36,22.04-1.37,31.44-6.75,9.4-5.38,16.45-16.29,14.12-26.86-3.1-14.04-19.52-20.04-33.62-22.87-24.59-4.94-95.82-6.38-107.89,3.24Z"/>
          <path class="cls-3" d="M452.36,274.42c11.39,38.68,42.44,71.01,80.63,83.97"/>
          <path class="cls-3" d="M413.23,309.89c11.37,10.98,16.53,28.02,13.16,43.46"/>
          <path class="cls-3" d="M444.19,307.7l35,52.89"/>
          <path class="cls-3" d="M552.1,413.63c2.2,.7,2.28,4.11,.62,5.71-1.65,1.6-4.15,1.87-6.45,2.04-25.49,1.83-51.14,1.37-76.54-1.37-2.83-.3-5.79-.69-8.11-2.32-2.33-1.64-3.73-4.95-2.31-7.42"/>
        </g>
        <path class="cls-4" d="M309.74,439.91c3.99,12.15,15.3,21.58,27.98,23.31,1.1-5.66,2.24-11.43,5.13-16.42,2.89-4.99,7.89-9.13,13.65-9.4,5.76-.27,13.25,1.43,12.98,7.19,4.35-3.53,8.07-2.94,13.57-4-2.85,1.79-4.9,4.81-6.16,10.14,2.87-1.92,6.78-2.19,9.89-.66-3.84,2.02-7.15,5.03-8.66,10.14,1.8,20.07-11.1,40.56-29.98,47.6-18.87,7.05-42.05,.02-53.52-20.62,8.65,3.5,18.66,3.49,27.31-.01-8.07-1.27-15.53-6-20.11-12.75l17.1,.67-6.64-4.39c-4.2-2.78-8.91-6.53-8.57-11.56,2.84,2.33,6.47,3.7,10.14,3.81-3.61-1.25-6.54-4.32-7.61-7.98s-.27-7.83,2.09-10.83"/>
        <g>
          <path class="cls-1" d="M79.68,295.54c-.06-10.4,.61-20.8,2-31.1"/>
          <path class="cls-1" d="M81.97,264.44c13.49,7.3,30.4,22.81,38.45,35.87"/>
          <path class="cls-1" d="M120.95,300.31c2.49-28.46,5.24-70.98,11.71-98.81,.26,.11,.23-.02,.04-.27-1.25-1.66-3.59-2.05-5.37-.99-29.84,17.84-59.54,35.96-88.67,56.13,6.35,1.56,9.47-.38,15.83,1.19,5.19,1.28,12.91,.52,18.25,2.42"/>
          <path class="cls-1" d="M71.11,259.98c2.82,14.56,3.21,31.34,6.73,47.71,6.49-10.37,12.34-20,19.27-31.07"/>
          <path class="cls-1" d="M72.74,259.98l34.98-35.07"/>
          <path class="cls-1" d="M107.72,225.61c-9.25,11.14-18.84,26.03-25.74,38.76"/>
        </g>
      </g>
    </g>
  </g>
</svg>