<?xml version="1.0" encoding="UTF-8"?>
<svg xmlns="http://www.w3.org/2000/svg" viewBox="0 0 681.4 595.99">
  <defs>
    <style>
      .cls-1 {
        fill: #fff;
      }

      .cls-2 {
        fill: none;
        stroke: #fff;
        stroke-miterlimit: 10;
        stroke-width: 4px;
      }
    </style>
  </defs>
  <g id="Layer_1" data-name="Layer 1"/>
  <g id="Layer_2" data-name="Layer 2">
    <g id="Comix">
      <g id="ctm-feature-key">
        <g>
          <path class="cls-2" d="M575.24,477.96c5.72-29.53-6.72-61.83-30.77-79.9-11.47-8.62-25.44-14.13-39.78-14.62-16.66-.57-33.15,5.64-46.56,15.56-13.4,9.92-23.9,23.36-32.13,37.86-1.14,2.01-2.37,4.17-4.46,5.16-1.42,.67-3.05,.7-4.62,.72-40.09,.44-80.2-.73-120.2-3.52-4.28-.3-8.7-.6-12.74,.84-3.88,1.38-7.03,4.22-10.06,7l-27,24.65,40.84,34.93c1.08,.92,2.22,1.88,3.6,2.18,4.18,.9,6.94-4.18,8.05-8.32s3.38-9.31,7.65-8.93c5.29,.47,6.1,8.92,11.11,10.68l10.27-14.52c.69-.97,1.44-2,2.56-2.42,1.15-.43,2.45-.13,3.57,.38,4.35,1.95,6.89,6.45,10.4,9.68s9.75,4.87,12.63,1.07c1.84-2.43,1.92-6.61,4.87-7.38,1.59-.41,3.2,.51,4.56,1.44,4.8,3.25,9.28,6.97,13.36,11.09l7.8-11.23c.83-1.2,1.91-2.53,3.37-2.5,1.25,.03,2.22,1.05,3.02,2.01,4.43,5.31,8.67,11.09,14.74,14.4,6.07,3.31,14.68,3.24,18.92-2.22,3.82,12.67,13.2,23.21,24.44,30.21s24.25,10.7,37.33,12.72c4.92,.76,9.9,1.29,14.86,.92,8.31-.62,16.23-3.75,23.65-7.54,12.43-6.35,23.99-14.8,32.47-25.88s12.43-25.14,14.24-34.51Z"/>
          <path class="cls-2" d="M564.49,467.97c1.72-12.65-2.05-25.94-10.15-35.8-6.7-8.16-16.92-14.08-27.44-13.23-10.96,.89-20.42,9.07-25.12,19.02s-5.29,21.38-4.2,32.32c.89,8.96,2.91,18,7.63,25.67s12.46,13.84,21.38,15.03c11.38,1.52,22.72-5.4,28.97-15.03,6.25-9.63,8.05-21.5,8.94-27.99Z"/>
          <path class="cls-2" d="M503.16,444.74c9.31,2.55,16.32,11.83,16.23,21.48s-7.27,18.8-16.63,21.18"/>
        </g>
        <path class="cls-1" d="M610.97,592.01h-14.88c-13.55,0-27.11,0-40.66,0h-132.46c-26.55,0-53.1,0-79.65,0H128.8c-14.22,0-28.45,0-42.67,0-5.92,0-11.84,.03-17.76,0-34.67-.17-63.25-28.19-63.97-62.9-.13-6.13-.02-12.27-.02-18.41,0-15.41,0-30.82,0-46.23,0-22.07,0-44.14,0-66.22,0-25.83,0-51.66,0-77.49,0-26.63,0-53.27,0-79.9s0-48.98,0-73.47c0-19.46,0-38.92,0-58.38,0-11.31,0-22.62,0-33.92,0-1.71,0-3.42,0-5.13,.1-17.17,6.81-33.75,18.8-46.05C35.62,11.15,52.74,4.08,70.51,3.98c1.39,0,2.78,0,4.17,0,9.66,0,19.32,0,28.99,0,17.09,0,34.17,0,51.26,0,22.41,0,44.82,0,67.23,0,25.63,0,51.27,0,76.9,0s53.73,0,80.6,0h145.33c17.54,0,35.09,0,52.63,0,10.16,0,20.31,0,30.47,0,1.68,0,3.37,0,5.05,0,15.64,.09,30.84,5.7,42.55,16.11,13.74,12.22,21.28,29.91,21.39,48.21,0,1.54,0,3.07,0,4.61v33.08c0,19.27,0,38.53,0,57.8s0,48.76,0,73.15c0,26.61,0,53.23,0,79.84s0,52,0,77.99c0,22.2,0,44.41,0,66.61v46.71c0,5.99,.04,11.97,0,17.96-.22,36.19-30.03,65.71-66.13,65.96-2.47,.02,.41,3.98,2.29,3.97,37.11-.26,67.78-30.65,68.12-67.81,.05-6,0-12.01,0-18.02,0-15.71,0-31.42,0-47.13v-67.23c0-26.24,0-52.48,0-78.72s0-53.86,0-80.78,0-48.92,0-73.37,0-38.28,0-57.41c0-10.65,0-21.29,0-31.94,0-3.4,.01-6.79-.32-10.19-1.7-17.52-10.24-33.9-23.38-45.58S628.15,.1,610.97,0c-1.41,0-2.83,0-4.24,0-9.81,0-19.63,0-29.44,0h-52.27c-22.72,0-45.45,0-68.17,0-26.04,0-52.08,0-78.12,0-27.09,0-54.18,0-81.27,0s-51.71,0-77.57,0c-22.66,0-45.33,0-67.99,0-17.18,0-34.36,0-51.53,0-9.49,0-18.98,0-28.47,0-1.85,0-3.71-.03-5.56,.03C48.4,.53,31.12,8.29,18.77,21.29S.2,50.88,.1,68.3c0,1.61,0,3.22,0,4.83,0,11.35,0,22.69,0,34.04,0,19.53,0,39.05,0,58.58,0,24.82,0,49.64,0,74.46s0,53.96,0,80.94c0,25.98,0,51.95,0,77.93,0,22.13,0,44.27,0,66.4,0,15.12,0,30.23,0,45.35,0,7.81-.45,15.88,.52,23.65,4.36,34.84,35,61.31,69.91,61.51,5.4,.03,10.81,0,16.21,0,14.04,0,28.09,0,42.13,0,20.4,0,40.81,0,61.21,0,24.76,0,49.52,0,74.27,0h80.57c26.67,0,53.34,0,80.01,0,24.53,0,49.05,0,73.58,0,20.09,0,40.18,0,60.27,0h54.47c2.46,0-.41-3.97-2.29-3.97Z"/>
      </g>
    </g>
  </g>
</svg>