<?xml version="1.0" encoding="UTF-8"?>
<svg xmlns="http://www.w3.org/2000/svg" viewBox="0 0 681.4 595.99">
  <defs>
    <style>
      .cls-1 {
        fill: #fff;
      }
    </style>
  </defs>
  <g id="Layer_1" data-name="Layer 1"/>
  <g id="Layer_2" data-name="Layer 2">
    <g id="Layer_1-2" data-name="Layer 1">
      <g id="Ineractive">
        <g>
          <g id="cam">
            <path class="cls-1" d="M378.74,467.28c-.07-.04-1.1-.67-.36-.21-.31-.19-.62-.38-.93-.58-.51-.32-1.03-.65-1.54-.98-1.22-.79-2.43-1.6-3.63-2.43-1.09-.76-2.18-1.54-3.24-2.34-.29-.22-.58-.44-.87-.65,.12,.09,.77,.6,.09,.07s-1.34-1.04-2-1.57c-.94-.76-1.87-1.53-2.79-2.32-.55-.47-1.1-.95-1.64-1.43-.27-.24-.54-.48-.81-.72-.23-.21-1.11-.96-.09-.08-2.1-1.8-4.04-3.84-5.95-5.85-.2-.21-1.62-1.67-.58-.61-.51-.52-.98-1.07-1.46-1.61-.88-.99-1.75-2-2.6-3.03s-1.68-2.06-2.51-3.11c-.76-.97,.59,.79-.15-.2-.22-.29-.44-.58-.66-.87-.44-.58-.87-1.17-1.29-1.76-1.63-2.26-3.18-4.59-4.67-6.94-.07-.11-.41-.65-.03-.04-.19-.31-.38-.62-.57-.94-.31-.52-.62-1.04-.93-1.57-.73-1.26-1.45-2.54-2.14-3.83-10.44-19.49-15.37-42.09-14.19-64.46,1.07-20.39,7.16-40.35,17.75-57.81s24.59-31.4,41.45-41.83c17.3-10.7,37.11-16.97,57.4-18.27,10.46-.67,21.04-.07,31.34,1.92,5,.96,9.93,2.23,14.77,3.79,2.34,.76,4.66,1.58,6.95,2.48,2.53,.99,4.08,1.65,6.58,2.82,2.31,1.08,4.58,2.22,6.82,3.44,1.02,.55,2.03,1.12,3.03,1.7,.52,.3,1.05,.61,1.57,.92,.12,.07,1.07,.65,.24,.14,.28,.17,.56,.35,.84,.52,2.15,1.34,4.25,2.74,6.31,4.21,.98,.7,1.96,1.42,2.92,2.14,.67,.5-.07-.06-.17-.13,.27,.19,.52,.4,.78,.6,.52,.41,1.03,.81,1.55,1.23,.94,.76,1.87,1.53,2.78,2.31,.5,.43,1,.86,1.49,1.29,.43,.38,.96,1.1,1.47,1.32l-.5-.45c.16,.15,.32,.3,.48,.45,.16,.15,.32,.3,.48,.45,.48,.45,.95,.9,1.43,1.36,.94,.92,1.87,1.85,2.79,2.79,.38,.39,.76,.79,1.14,1.19,.18,.19,.45,.6,.67,.72-.78-.39-.54-.6-.12-.13,.85,.94,1.69,1.87,2.51,2.83s1.56,1.84,2.32,2.78c.38,.47,.76,.94,1.13,1.41,.17,.21,.35,.42,.51,.65-.76-1.08,.11,.15,.27,.35,1.46,1.93,2.86,3.9,4.2,5.91,.67,1.01,1.33,2.02,1.98,3.05,.08,.12,.66,1.06,.15,.24,.17,.28,.34,.56,.52,.85,.34,.57,.68,1.14,1.01,1.71,2.5,4.31,4.76,8.76,6.72,13.34-.23-.54,.19,.46,.19,.45,.13,.31,.26,.62,.38,.93,.21,.52,.42,1.03,.62,1.55,.49,1.25,.96,2.5,1.41,3.76,.83,2.32,1.59,4.67,2.28,7.04,1.46,5.01,2.61,10.12,3.42,15.28,3.41,21.74,.91,44.49-7.15,64.96-8.06,20.47-21.69,38.65-38.94,52.28-4.19,3.31-8.59,6.35-13.16,9.1-1.37,.83,4.73,8.48,7.09,7.06,19.24-11.61,35.22-28.3,45.9-48.08,10.97-20.34,16.18-43.54,14.97-66.61-1.11-21.11-7.5-41.85-18.51-59.91-11.33-18.58-26.99-34.64-45.54-46.09s-38.89-18.03-60.31-19.33c-21.19-1.29-42.52,2.83-61.71,11.9-18.35,8.67-34.49,21.84-46.7,38.05s-20.7,36.01-23.87,56.39c-3.52,22.57-.83,46.12,7.78,67.29s23.86,41.56,42.58,56.19c4.71,3.68,9.61,7.04,14.74,10.12,.34,.2,1.4,.67,1.81,.25s-.07-1.46-.26-1.81c-1.13-2.09-3-3.78-5.01-4.99h0Z"/>
            <path class="cls-1" d="M606.19,539.91h-81.2l9.07,3.28c-20.89-15.94-46.39-26.46-72.36-30.36-25.37-3.81-51.56-.71-75.25,9.18-5.72,2.39-11.29,5.16-16.64,8.29-2.7,1.58-5.35,3.25-7.94,5.01-1.18,.8-2.35,1.62-3.5,2.46-.58,.42-1.15,.84-1.72,1.27-.21,.16-.83,.8-1.07,.88-.63,.21-1.7,0-2.36,0h-46.85c-10.22,0-20.46-.15-30.68,0-.17,0-.34,0-.51,0l9.18,3.49c20.21-25.43,46.16-46.12,75.56-59.99,8.51-4.01,17.29-7.44,26.26-10.27l-8.64-2.98c32.39,19.27,72.38,26.11,108.66,14.71,9.31-2.93,18.25-6.97,26.63-11.98l-3.64-.72c7.4,2.32,13.34,4.57,20.72,7.92s14.03,6.94,20.71,11.01c13.55,8.25,26.12,18.05,37.47,29.13,6.42,6.27,12.42,12.95,18.01,19.97,.38,.47,1.57,.9,2.04,1.11,1.17,.52,2.39,.97,3.6,1.37,.92,.3,1.93,.7,2.9,.76,.21,.01,.97,.18,.63-.25-15.4-19.38-34.13-36.01-55.19-49.02-10.98-6.78-22.57-12.54-34.54-17.37-3.15-1.27-6.33-2.48-9.53-3.61-3.61-1.28-7.32-2.75-11.06-3.6-.86-.2-1.25-.25-1.99,.18-.64,.37-1.27,.75-1.91,1.12-1.45,.83-2.91,1.62-4.39,2.39-2.97,1.54-6,2.96-9.08,4.25-24.58,10.3-53.1,12.5-78.8,5.16-1.41-.4-2.55-.76-4-1.24-1.02-.34-2.35-.82-3.33-1.21-2.68-1.05-5.26-2.19-7.96-3.53-3.12-1.55-6.06-3.56-9.23-4.97-2.05-.91-5.26-2.55-7.54-2.01-1.56,.37-3.1,1-4.61,1.52-11.79,4.05-23.23,9.14-34.12,15.2-21.63,12.04-41.1,27.9-57.28,46.63-1.96,2.26-3.86,4.57-5.72,6.91-.27,.34,3.77,1.97,3.88,2.01,1.62,.62,3.53,1.47,5.3,1.47h79.15c.37,0,.89,.1,1.25,0,.67-.18,1.37-.96,1.93-1.37,1-.74,2.01-1.47,3.04-2.19,1.9-1.33,3.83-2.62,5.8-3.86,3.94-2.48,8.01-4.77,12.18-6.84,17.24-8.57,36.23-13.42,55.46-14.28,9.84-.44,19.71,.16,29.42,1.82,4.49,.77,8.94,1.78,13.31,3.04,1.06,.31,1.57,.46,2.52,.76,.52,.17,1.04,.33,1.56,.51,.26,.09,.52,.17,.78,.26,.95,.32-1.11-.4,.55,.19,.51,.18,1.03,.37,1.54,.55,.16,.06,1.36,.51,.79,.29,.96,.37,2.2,.86,2.97,1.18,8.08,3.36,16.17,7.93,23.51,13.01,1.92,1.33,3.73,2.96,5.75,4.13,2.33,1.35,5.61,2.64,8.33,2.79,.51,.03,1.03,0,1.54,0h79.62c.65,0-.37-.63-.32-.6-.75-.54-1.88-.94-2.72-1.27-1.79-.71-3.95-1.71-5.92-1.71Z"/>
          </g>
          <g>
            <g id="sphereFront">
              <path class="cls-1" d="M452.3,333.6c-7.14-17.62-19.98-34.12-38.36-40.79-17.73-6.44-37.83-2.15-52.56,9.25-8.3,6.42-14.99,14.83-20.03,23.99l2.85-1.56h-.08c-.94,0-2.39,.7-2.85,1.56-10.54,19.36-13.24,42.38-6.99,63.58,5.13,17.39,16.05,34.14,31.22,44.35,14.08,9.47,32.81,13.48,49,7.27,16.8-6.44,29.01-21.31,36.36-37.27,9.1-19.73,10.22-42.48,3.96-63.21-.73-2.43-1.58-4.82-2.51-7.17s-3.17-4.36-5.82-4.01c-2.21,.29-4.24,2.41-3.29,4.78,1.86,4.68,3.33,9.5,4.38,14.42,.57,2.65,.86,4.47,1.15,6.8,.31,2.54,.5,5.08,.59,7.64,.35,10.24-1.11,19.63-4.53,29.43-.8,2.28-1.69,4.53-2.67,6.73-.11,.25-.22,.49-.33,.73-.04,.1-.4,.85-.19,.41s-.15,.31-.2,.4c-.12,.24-.23,.48-.35,.72-.5,1.01-1.03,2.01-1.57,3-2.07,3.75-4.43,7.35-7.08,10.72-1.32,1.68-2.72,3.3-4.19,4.86-.11,.12-.58,.58,0,0-.17,.17-.35,.35-.52,.53-.35,.35-.7,.69-1.05,1.03-.75,.72-1.51,1.42-2.29,2.1-2.94,2.56-6.12,4.84-9.53,6.73-.12,.07-.77,.41-.27,.15s-.16,.08-.28,.14c-.41,.21-.82,.41-1.23,.61-.87,.41-1.75,.8-2.64,1.16-1.76,.71-3.57,1.3-5.41,1.77-.28,.07-1.58,.35-.5,.13-.38,.08-.76,.15-1.14,.22-.92,.17-1.85,.3-2.78,.4-1.93,.21-3.87,.24-5.82,.18,1.03,.03-.32-.03-.63-.05-.48-.03-.96-.07-1.44-.12-1.01-.09-2.02-.22-3.02-.37-1.84-.28-3.94-.51-5.68-1.19,1.18,.46-.12-.04-.45-.14-.44-.13-.88-.27-1.32-.42-.93-.31-1.84-.64-2.75-1-1.76-.7-3.46-1.5-5.14-2.36-.8-.41,.17,.08,.27,.15-.18-.13-.41-.22-.6-.33-.4-.22-.79-.45-1.19-.69-.88-.53-1.75-1.08-2.61-1.66-1.57-1.06-3.1-2.2-4.56-3.4-.18-.15-.36-.29-.53-.44-.15-.12-.74-.62-.15-.13s0,0-.15-.13c-.17-.15-.35-.31-.52-.47-.73-.67-1.45-1.35-2.15-2.05-1.38-1.37-2.69-2.8-3.95-4.27-.62-.72-1.22-1.46-1.8-2.21-.3-.38-.59-.75-.87-1.14-.1-.13-.57-.76-.16-.21,.44,.59-.17-.24-.26-.36-1.2-1.67-2.33-3.4-3.4-5.16s-1.98-3.4-2.88-5.14c-.56-1.09-1.13-2.17-1.65-3.29-.26-.57-.51-1.15-.77-1.73-.37-.84-.15-.32-.07-.14-.18-.41-.35-.83-.51-1.25-1.86-4.65-3.27-9.48-4.2-14.4-.11-.6-.22-1.2-.32-1.81-.15-.89-.07-.43-.04-.24-.05-.3-.09-.61-.13-.91-.18-1.3-.32-2.59-.43-3.9-.22-2.54-.31-5.08-.28-7.63s.19-5.21,.48-7.79c.03-.3,.07-.61,.11-.91-.02,.19-.09,.6,.04-.27,.09-.6,.18-1.2,.28-1.8,.21-1.27,.45-2.54,.72-3.8,1.04-4.84,2.53-9.58,4.43-14.15,.24-.57,.48-1.14,.73-1.7,.13-.29,.26-.58,.39-.86,.32-.71-.21,.42,.13-.28,.58-1.2,1.2-2.37,1.83-3.54l-2.85,1.56h.08c.95,0,2.38-.7,2.85-1.56,2.13-3.88,4.54-7.61,7.26-11.1,1.33-1.71,2.73-3.36,4.2-4.94,.16-.17,.33-.35,.49-.52-.58,.62-.15,.15-.02,.03,.38-.38,.75-.76,1.13-1.13,.8-.78,1.62-1.54,2.46-2.28,3.16-2.77,6.58-5.17,10.22-7.25,.16-.09,.72-.39-.06,.02,.2-.11,.41-.22,.61-.32,.46-.24,.93-.47,1.4-.7,.99-.48,2-.92,3.01-1.34,1.94-.79,3.93-1.47,5.96-2.02,.45-.12,.91-.24,1.37-.35,.27-.07,1.56-.34,.61-.15,1.11-.22,2.23-.42,3.35-.58,2.18-.31,4.38-.48,6.58-.51,.54,0,1.09-.01,1.63,0,.15,0,.6-.04,.69,.02-.35-.21-.72-.04-.16,0,1.08,.07,2.16,.16,3.23,.3,.95,.12,1.9,.28,2.84,.47,.5,.1,.99,.21,1.48,.32,.22,.05,.44,.1,.65,.16,1.09,.27-.33-.11,.08,.01,1.88,.56,3.73,1.19,5.53,1.97,.93,.4,1.84,.83,2.74,1.29-.02,0,.59,.27,.6,.31-.02-.12-.96-.53-.29-.15,.49,.28,.98,.55,1.47,.84,1.76,1.05,3.46,2.21,5.08,3.46,.41,.32,.82,.64,1.22,.97,.31,.25,1.65,1.13,.45,.36,.84,.54,1.6,1.44,2.32,2.13,1.7,1.65,3.31,3.4,4.82,5.24,.77,.93,1.53,1.87,2.23,2.86-.66-.93-.16-.22,0,.02,.18,.25,.35,.5,.53,.75,.35,.5,.69,1.01,1.03,1.53,1.4,2.13,2.69,4.34,3.88,6.6,.59,1.12,1.15,2.26,1.68,3.4,.27,.58,.53,1.16,.79,1.74,.06,.13,.37,.88,.14,.33s.3,.75,.35,.87c.92,2.28,3.16,4.36,5.82,4.01,2.19-.29,4.25-2.41,3.29-4.78Z"/>
            </g>
            <path class="cls-1" d="M450.33,363.93c-.03,11.32-2.42,22.52-6.83,32.93l1.47-.73c-3.19-.53-5.78-1.33-8.66-2.77-.02,0-1.18-.64-.5-.26-.3-.17-.59-.34-.88-.51-.65-.39-1.28-.81-1.9-1.23,.86,.59-.26-.2-.36-.28-.33-.26-.66-.52-.98-.79s-.64-.55-.95-.83c.67,.61,.03,.01-.25-.28-.26-.26-.52-.53-.77-.8-.19-.21-1.1-1.01-.1-.09-.52-.48-.94-1.14-1.36-1.7-.14-.19-.28-.39-.43-.58-.72-.98,.52,.84-.12-.18-.44-.7-.88-1.4-1.28-2.13-.06-.11-.6-1.15-.18-.3-.1-.21-.21-.42-.31-.63-.3-.63-.58-1.27-.83-1.93s-.48-1.31-.71-1.96c-.1-.28-.24-.76-.41-1.48-2.61-10.6,.46-21.97,8.03-29.87,5.03-5.25,11.55-8.61,18.73-9.7l-6.47-5.36c3.97,9.97,6.06,20.74,6.08,31.48,0,2.14,1.66,4.12,3.28,5.39,.46,.36,4.23,2.78,4.22,.76-.03-11.86-2.21-23.54-6.6-34.57-.6-1.5-1.78-2.84-3.02-3.85-.89-.72-2.21-1.7-3.45-1.51-13.34,2.03-24.5,11.89-28.08,24.91s1.09,26.51,10.11,36.14c6.02,6.43,14,11.09,22.73,12.53,.74,.12,1.18-.05,1.47-.73,4.41-10.41,6.8-21.61,6.83-32.93,0-2.13-1.66-4.13-3.28-5.39-.47-.36-4.22-2.79-4.22-.76Z"/>
          </g>
        </g>
        <path class="cls-1" d="M182.11,160.36h-28.4c-14.87,0-29.74,0-44.62,0-3.25,0-6.5,.02-9.75,0-.26,0-.52,0-.78,0-.62-.02-1.48,.06-2.07-.14,1.08,.38,.21,.03-.13-.03-.44-.08-.89-.16-1.33-.26-.65-.15-1.3-.33-1.94-.52,1.05,.32,0-.01-.19-.08-.31-.12-.62-.24-.92-.37-.56-.24-1.1-.49-1.64-.77-.24-.12-.48-.25-.72-.39-.19-.11-.38-.21-.57-.33,.39,.24,.39,.24,.02,0-1.08-.73-2.13-1.5-3.1-2.38-.48-.44-.95-.89-1.4-1.36-.04-.04-.74-.84-.28-.3-.28-.33-.55-.67-.82-1.01-.73-.95-1.39-1.96-1.97-3-.32-.57-.62-1.16-.89-1.76-.14-.3-.27-.6-.39-.91-.08-.2-.16-.41-.24-.62,.09,.27,.07,.23-.05-.15-1.65-5.11-1.23-10.59-1.23-15.88,0-7.61,0-15.23,0-22.84,0-5.19-.01-10.38,0-15.57,0-1.55,.04-2.28,.33-3.86,.24-1.32,.59-2.62,1.05-3.88,.22-.62,.47-1.24,.75-1.84,.02-.04,.49-1.01,.17-.39,.2-.39,.41-.77,.64-1.15,.61-1.03,1.29-2.02,2.05-2.95,.41-.51,.84-1,1.29-1.47-.63,.66,.13-.11,.22-.2,.31-.3,.64-.59,.97-.87,.5-.42,1.01-.83,1.54-1.21,.26-.19,.54-.37,.8-.56-.92,.63-.01,.02,.16-.09,.56-.33,1.14-.65,1.73-.93,.3-.14,.6-.27,.9-.42,.48-.2,.4-.18-.23,.08,.21-.08,.41-.16,.62-.23,.52-.19,1.05-.36,1.59-.51,.32-.09,.65-.17,.97-.26,1.14-.31-1.16,.18,.02,0,.68-.1,1.35-.22,2.03-.28,.25-.02,.79-.16,1.03-.08-.75,.03-.85,.04-.29,.02,.12,0,.23,0,.35,0,.2,0,.4,0,.6,0h22.22c15.28,0,30.56,0,45.84,0h13.14c.32,0,.64,0,.96,0,.38,0,.75,0,1.13,.02,.35,.01,.69,.04,1.04,.07,.26,.02,1.39,.01,.14,0,.64,0,1.38,.22,2,.37,.65,.15,1.3,.33,1.94,.52-1.05-.32,0,.01,.19,.08,.31,.12,.62,.24,.92,.37,.61,.26,1.2,.54,1.79,.84,.29,.15,.57,.32,.86,.47,.38,.23,.38,.22-.01-.02,.18,.12,.37,.23,.55,.35,1.08,.72,2.11,1.53,3.07,2.42,.4,.37,.78,.75,1.16,1.14,.04,.04,.74,.84,.28,.3,.28,.33,.55,.67,.82,1.01,3.28,4.28,4.74,8.71,4.77,14.15,0,1.34,0,2.69,0,4.04v40.71c0,2.27,.02,3.94-.39,6.04-.26,1.31-.63,2.6-1.1,3.86-.56,1.48-.78,1.94-1.44,3.06s-1.42,2.19-2.25,3.2c-.21,.25-.42,.5-.64,.74-.09,.1-.85,.86-.2,.22-.54,.53-1.1,1.05-1.68,1.53-.46,.38-.93,.75-1.42,1.09-.22,.16-.45,.31-.67,.46,.92-.63,.01-.02-.16,.09-.56,.33-1.14,.65-1.73,.93-.3,.14-.6,.27-.9,.42-1.03,.49,1-.34-.08,.04-.63,.22-1.25,.44-1.9,.63-.32,.09-.65,.17-.97,.26-1.14,.31,1.16-.18-.02,0-.68,.1-1.35,.22-2.03,.28-.25,.02-.79,.16-1.03,.08l.64-.03c-.23,0-.47,0-.7,0-2.01,.01-5.18,.62-5.83,2.92s2.24,3.35,3.94,3.34c6.9-.05,13.53-2,19.14-6.07,4.73-3.43,8.39-8.46,10.14-14.04s1.2-11.26,1.2-16.8c0-12.74,.07-25.49,0-38.23-.06-11.31-7.66-21.55-18.29-25.27-3.51-1.23-7.14-1.85-10.87-1.85h-4.39c-14.23,0-28.46,0-42.69,0-11.55,0-23.1,0-34.65,0-10.13,0-20.12,4.09-26.08,12.56-3.28,4.66-4.92,10.12-4.96,15.8,0,1.44,0,2.88,0,4.33,0,13.71,0,27.41,0,41.12,0,2.87,.2,5.68,1.03,8.45,1.68,5.61,5.03,10.6,9.75,14.11,5.12,3.82,11.44,5.85,17.82,5.89,.78,0,1.56,0,2.34,0,13.11,0,26.22,0,39.33,0h41.17c2.01,0,5.18-.63,5.83-2.92s-2.24-3.34-3.94-3.34Z"/>
        <path class="cls-1" d="M610.97,592.01h-14.88c-13.55,0-27.11,0-40.66,0h-132.46c-26.55,0-53.1,0-79.65,0H86.13c-5.92,0-11.84,.03-17.76,0-34.67-.17-63.25-28.19-63.97-62.9-.13-6.13-.02-12.27-.02-18.41,0-15.41,0-30.82,0-46.23,0-22.07,0-44.14,0-66.22,0-25.83,0-51.66,0-77.49s0-53.27,0-79.9c0-24.49,0-48.98,0-73.47,0-19.46,0-38.92,0-58.38v-33.92c0-1.71,0-3.42,0-5.13,.1-17.17,6.81-33.75,18.8-46.05S52.74,4.08,70.51,3.98c1.39,0,2.78,0,4.17,0,9.66,0,19.32,0,28.99,0,17.09,0,34.17,0,51.26,0,22.41,0,44.82,0,67.23,0,25.63,0,51.27,0,76.9,0s53.73,0,80.6,0h145.33c17.54,0,35.09,0,52.63,0,10.16,0,20.31,0,30.47,0,1.68,0,3.37,0,5.05,0,15.64,.09,30.84,5.7,42.55,16.11,13.74,12.22,21.28,29.91,21.39,48.21,0,1.54,0,3.07,0,4.61,0,11.03,0,22.05,0,33.08v210.78c0,26,0,52,0,77.99,0,22.2,0,44.41,0,66.61v46.71c0,5.99,.04,11.97,0,17.96-.22,36.19-30.03,65.71-66.13,65.96-2.47,.02,.41,3.98,2.29,3.97,37.11-.26,67.78-30.65,68.12-67.81,.05-6,0-12.01,0-18.02v-47.13c0-22.41,0-44.82,0-67.23,0-26.24,0-52.48,0-78.72s0-53.86,0-80.78,0-48.92,0-73.37c0-19.14,0-38.28,0-57.41,0-10.65,0-21.29,0-31.94,0-3.4,.01-6.79-.32-10.19-1.7-17.52-10.24-33.9-23.38-45.58S628.15,.1,610.97,0c-1.41,0-2.83,0-4.24,0-9.81,0-19.63,0-29.44,0h-52.27c-22.72,0-45.45,0-68.17,0-26.04,0-52.08,0-78.12,0-27.09,0-54.18,0-81.27,0s-51.71,0-77.57,0c-22.66,0-45.33,0-67.99,0-17.18,0-34.36,0-51.53,0-9.49,0-18.98,0-28.47,0-1.85,0-3.71-.03-5.56,.03C48.4,.53,31.12,8.29,18.77,21.29,6.74,33.95,.2,50.88,.1,68.3c0,1.61,0,3.22,0,4.83,0,11.35,0,22.69,0,34.04,0,19.53,0,39.05,0,58.58,0,24.82,0,49.64,0,74.46s0,53.96,0,80.94,0,51.95,0,77.93c0,22.13,0,44.27,0,66.4,0,15.12,0,30.23,0,45.35,0,7.81-.45,15.88,.52,23.65,4.36,34.84,35,61.31,69.91,61.51,5.4,.03,10.81,0,16.21,0,14.04,0,28.09,0,42.13,0,20.4,0,40.81,0,61.21,0,24.76,0,49.52,0,74.27,0,26.86,0,53.72,0,80.57,0h80.01c24.53,0,49.05,0,73.58,0,20.09,0,40.18,0,60.27,0h54.47c2.46,0-.41-3.97-2.29-3.97Z"/>
      </g>
    </g>
  </g>
</svg>