<?xml version="1.0" encoding="UTF-8"?>
<svg xmlns="http://www.w3.org/2000/svg" viewBox="0 0 681.4 595.99">
  <defs>
    <style>
      .cls-1 {
        fill: #fff;
      }

      .cls-2 {
        opacity: .33;
      }

      .cls-3, .cls-4 {
        fill: none;
        stroke: #fff;
        stroke-miterlimit: 10;
        stroke-width: 4.14px;
      }

      .cls-4 {
        opacity: .3;
      }
    </style>
  </defs>
  <g id="Layer_1" data-name="Layer 1"/>
  <g id="Layer_2" data-name="Layer 2">
    <g id="Comix">
      <g id="start">
        <path class="cls-3" d="M546.04,147.27l3.82,22.1c1.05-15.94,12.09-29.2,22.6-41.22,4.94-5.65,10.64-11.7,18.12-12.34"/>
        <path class="cls-3" d="M546.99,234.52l6.85,20.4c.39-21.52,14.41-42.18,34.26-50.5"/>
        <path class="cls-3" d="M553.63,324.62l-.6,23.86c6.66-21.35,20.15-40.5,38.01-53.96"/>
        <g>
          <path class="cls-3" d="M314.13,227.93l-.95-77.17c-.14-11.38-.23-23.05,3.63-33.75,9.46-26.17,39.3-38.77,66.81-42.98,34.02-5.2,68.7-2.18,102.98,.85,24.92,2.2,49.83,4.41,74.75,6.61,9.71,.86,19.72,1.8,28.35,6.33,18.27,9.6,25.18,32.11,27.9,52.57,2.78,20.89,3.03,42.02,3.28,63.1,.92,78.24,1.84,156.49,2.76,234.73,.36,30.28-1.77,65.64-26.7,82.83-14.2,9.79-32.44,10.91-49.67,11.7-45.37,2.09-90.74,4.18-136.12,6.27-23.31,1.07-48.82,1.49-67.27-12.81-22.79-17.67-25.82-50.35-26.96-79.17-.72-18.19-1.44-36.39-2.16-54.58"/>
          <path class="cls-3" d="M527.29,128.32l29.06-5.7c5.99-1.17,13.46-1.79,16.92,3.23,2.07,3,1.83,6.97,1.5,10.6-.96,10.69-1.92,21.38-2.88,32.07-.14,1.59-.34,3.31-1.46,4.46-1.29,1.33-3.35,1.43-5.19,1.45l-34.08,.34c-3.61-13.88-4.97-28.35-3.99-42.66"/>
          <path class="cls-3" d="M531.81,213.57c14.5-1.67,29.17-1.86,43.71-.59-3.54,18.55-4.86,37.53-3.91,56.4-12.87-2-25.91-2.92-38.93-2.76l-1.16-52.94"/>
          <path class="cls-3" d="M537.5,306.63l30.18-3.92c1.53-.2,3.23-.35,4.45,.6,1.32,1.03,1.51,2.92,1.59,4.59,.82,17.6,1.11,35.23,.86,52.85-13.29-3.3-27.09-4.53-40.75-3.63l1.73-51.51"/>
          <path class="cls-3" d="M367.95,152.12c2.36,3.49,4.86,7.11,8.55,9.16s8.92,1.98,11.56-1.31c2.67-3.34,3.32-9.76,7.57-9.35,1.36,.13,2.49,1.08,3.53,1.96,3.35,2.82,7.08,5.53,11.41,6.17s9.37-1.45,10.68-5.62c4.52-1.61,7.35,7.35,12.03,6.3,1.4-.31,2.42-1.49,3.33-2.6,3.58-4.37,7.17-8.74,10.75-13.1-.04,4.05,.92,8.46,4.07,11.02s8.86,1.91,10.2-1.91c2.65,3.98,8.3,5.22,12.83,3.68s8.01-5.31,10.33-9.49c1,3.52,5.11,5.25,8.77,5.26s7.24-1.18,10.89-1.28"/>
          <path class="cls-3" d="M380.19,239.59c1.39,3.63,3.37,7.04,5.85,10.04,5.19,.17,8.25-7.6,13.4-6.95,1.96,.25,3.51,1.71,5.25,2.64,6.63,3.58,14.72-.7,22.25-.28,5.06,.29,11.48,2.18,14.22-2.08,.03,3.84,4.71,6.24,8.46,5.41s6.63-3.74,9.27-6.52c2.95,4.84,9.89,5.27,15.36,3.81s10.8-4.24,16.45-3.83c5.67,.41,11.18,4.02,16.67,2.54l1.52,6.49"/>
          <path class="cls-3" d="M314.81,223.72l-.35,58.53"/>
          <path class="cls-3" d="M313.91,377.99c1.95,10.15,2.3,20.6,1.04,30.86"/>
          <g>
            <path class="cls-3" d="M206.97,360.82c-38.07-11.52-82.6,3.05-106.49,34.85-23.89,31.8-25.48,78.63-3.8,111.98,21.67,33.35,65.12,50.91,103.88,42,15.27-3.51,29.59-10.71,42.09-20.16,14.83-11.21,27.37-25.9,34.05-43.24,10.29-26.72,5.44-58.18-10.41-82.03-15.85-23.85-41.82-40.16-69.71-46.65"/>
            <path class="cls-3" d="M221.26,439.74c42.69-35.32,76.23-81.61,96.48-133.19,.47,5.39,7.61,7.71,12.73,6,5.13-1.71,9.02-5.85,13.67-8.61,4.65-2.76,11.35-3.78,14.93,.27,2.05,2.32,2.46,5.65,2.33,8.74-.43,10.6-6.42,20.82-15.46,26.38-9.04,5.56-20.86,6.31-30.52,1.92-35.41,42.84-68.5,87.61-99.07,134.04"/>
            <path class="cls-3" d="M342.21,294.97c1.37-11.72,1.37-23.6-.02-35.32-.48-4.1-2.16-9.19-6.28-9.48-4.4-.31-6.64,5.11-7.43,9.45-2.5,13.77-3.88,27.74-4.11,41.73"/>
            <path class="cls-3" d="M321.85,350.1c-1.32,3.72-2.65,7.54-2.58,11.49,.07,3.95,1.82,8.11,5.32,9.95,5.44,2.86,12.43-1.36,14.78-7.04,2.34-5.68,1.38-12.12,.38-18.18"/>
            <circle class="cls-4" cx="180.37" cy="456.88" r="98.44"/>
          </g>
          <g class="cls-2">
            <!-- <path class="cls-1" d="M610.97,592.01h-14.88c-13.55,0-27.11,0-40.66,0h-132.46c-26.55,0-53.1,0-79.65,0-26.54,0-53.08,0-79.62,0-24.54,0-49.07,0-73.61,0h-61.29c-14.22,0-28.45,0-42.67,0-5.92,0-11.84,.03-17.76,0-34.67-.17-63.25-28.19-63.97-62.9-.13-6.13-.02-12.27-.02-18.41s0-30.82,0-46.23c0-22.07,0-44.14,0-66.22,0-25.83,0-51.66,0-77.49,0-26.63,0-53.27,0-79.9,0-24.49,0-48.98,0-73.47,0-19.46,0-38.92,0-58.38s0-22.62,0-33.92c0-1.71,0-3.42,0-5.13,.1-17.17,6.81-33.75,18.8-46.05C35.62,11.15,52.74,4.08,70.51,3.98c1.39,0,2.78,0,4.17,0,9.66,0,19.32,0,28.99,0,17.09,0,34.17,0,51.26,0,22.41,0,44.82,0,67.23,0,25.63,0,51.27,0,76.9,0s53.73,0,80.6,0h77.3c22.68,0,45.35,0,68.03,0,17.54,0,35.09,0,52.63,0,10.16,0,20.31,0,30.47,0,1.68,0,3.37,0,5.05,0,15.64,.09,30.84,5.7,42.55,16.11,13.74,12.22,21.28,29.91,21.39,48.21,0,1.54,0,3.07,0,4.61v33.08c0,19.27,0,38.53,0,57.8s0,48.76,0,73.15,0,53.23,0,79.84c0,26,0,52,0,77.99,0,22.2,0,44.41,0,66.61v46.71c0,5.99,.04,11.97,0,17.96-.22,36.19-30.03,65.71-66.13,65.96-2.47,.02,.41,3.98,2.29,3.97,37.11-.26,67.78-30.65,68.12-67.81,.05-6,0-12.01,0-18.02,0-15.71,0-31.42,0-47.13,0-22.41,0-44.82,0-67.23,0-26.24,0-52.48,0-78.72s0-53.86,0-80.78c0-24.46,0-48.92,0-73.37,0-19.14,0-38.28,0-57.41,0-10.65,0-21.29,0-31.94,0-3.4,.01-6.79-.32-10.19-1.7-17.52-10.24-33.9-23.38-45.58C644.81,6.34,628.15,.1,610.97,0c-1.41,0-2.83,0-4.24,0-9.81,0-19.63,0-29.44,0-17.42,0-34.84,0-52.27,0-22.72,0-45.45,0-68.17,0-26.04,0-52.08,0-78.12,0s-54.18,0-81.27,0-51.71,0-77.57,0c-22.66,0-45.33,0-67.99,0-17.18,0-34.36,0-51.53,0-9.49,0-18.98,0-28.47,0-1.85,0-3.71-.03-5.56,.03C48.4,.53,31.12,8.29,18.77,21.29,6.74,33.95,.2,50.88,.1,68.3c0,1.61,0,3.22,0,4.83v34.04c0,19.53,0,39.05,0,58.58,0,24.82,0,49.64,0,74.46,0,26.98,0,53.96,0,80.94s0,51.95,0,77.93c0,22.13,0,44.27,0,66.4s0,30.23,0,45.35c0,7.81-.45,15.88,.52,23.65,4.36,34.84,35,61.31,69.91,61.51,5.4,.03,10.81,0,16.21,0,14.04,0,28.09,0,42.13,0h61.21c24.76,0,49.52,0,74.27,0,26.86,0,53.72,0,80.57,0,26.67,0,53.34,0,80.01,0,24.53,0,49.05,0,73.58,0,20.09,0,40.18,0,60.27,0h54.47c2.46,0-.41-3.97-2.29-3.97Z"/> -->
          </g>
          <g>
            <path class="cls-1" d="M425.99,434.09c-.22,1.61-1.31,3.07-3.58,3.07-2.7,0-3.65-1.17-3.36-2.55-.58-1.17-2.48-2.04-5.26-2.04-7.23,0-14.82,6.13-15.77,11.39-.44,2.63,.58,3.58,2.34,3.58,1.9,0,4.67-.66,8.39-1.75,3.65-1.09,6.72-1.75,10.22-1.75,5.62,0,9.56,3.14,8.32,9.71-.73,4.38-2.7,7.96-5.69,11.1-6.21,6.64-16.06,10.37-23.87,10.37-8.76,0-10.66-6.79-10.22-9.2,.44-2.41,2.19-4.31,4.45-4.31s2.26,2.99,2.7,4.67c.66,1.97,1.97,2.99,4.6,2.99,5.26,0,12.7-3.07,17.08-7.45,2.55-2.19,3.65-4.75,4.16-7.74,.58-3.14-.73-4.16-3.58-4.16s-5.62,.58-9.34,1.75c-3.65,1.1-6.79,1.68-9.64,1.68-4.82,0-7.96-2.34-6.79-8.83,1.39-8.1,12.85-17.88,24.53-17.88,6.21,0,10.88,4.31,10.29,7.37Z"/>
            <path class="cls-1" d="M448.55,436.94c-.15-.29-.29-.58-.07-1.82,.36-1.97,2.26-2.56,4.74-2.56,1.39,0,2.99,.29,2.7,2.26-.15,.51-.44,1.17-.95,1.75l-.8,4.53,8.69-1.53c.44-.36,.88-.58,1.39-.58,1.61,0,2.26,1.46,1.97,2.99-.44,2.34-1.53,3.5-2.92,3.5-.51,0-.95-.07-1.02-.37l-9.12,1.53-3.5,19.71c-.22,1.24,0,2.12,.8,2.12,1.39,0,7.15-3.21,10.58-6.93,.22-1.68,1.46-2.85,3.07-2.85,2.7,0,3.21,1.46,2.85,3.5-.51,2.85-13.72,12.85-19.78,12.85-3.36,0-4.82-2.63-4.23-6.13l3.72-21.1-4.45,.73c-.44,.36-.88,.58-1.46,.66-1.68-.07-2.55-1.24-2.19-3.43,.36-1.83,1.82-3.14,3.28-3.14,.44,0,.88,.22,1.02,.44l4.82-.88,.88-5.26Z"/>
            <path class="cls-1" d="M499.28,449.35c.29-1.9-.15-2.85-1.9-2.85-3.65,0-7.08,1.39-9.85,3.07,.07,.58-1.17,2.04-3.14,2.04-1.68,0-2.48-1.97-2.26-3.43,.29-1.39,2.26-3.29,3.58-2.99,3.94-2.41,8.91-4.01,15.04-4.01,3.36,0,5.62,2.41,4.96,6.57l-3.94,22.41c.22,.22,.36,1.02,.22,1.68-.37,2.19-2.85,2.7-4.96,2.7s-2.63-1.09-2.41-2.26c.07-.66,.44-1.24,.8-1.75l.66-3.28h-.15c-5.84,5.69-10.95,8.25-16.5,8.25-3.43,0-5.84-2.12-5.26-5.91,1.17-6.42,10-14.67,24.45-16.5l.66-3.72Zm-1.61,8.32c-9.12,1.09-16.35,6.93-16.94,10.22-.22,1.31,.66,1.68,1.97,1.68,4.96,0,14.02-6.35,14.6-9.64l.37-2.26Z"/>
            <path class="cls-1" d="M521.77,446.5l-.15-1.9c.22-1.39,2.12-2.7,4.38-2.7,1.97,0,3.14,1.02,2.85,2.48-.07,.51-.15,1.09-.73,1.61l-.44,2.63h.07c4.31-3.65,8.61-6.5,11.97-6.5,2.04,0,3.8,2.19,2.56,8.91-.29,1.97-1.61,3.36-3.94,3.36-1.97,0-2.99-.8-2.77-1.97,.15-.66,.36-1.39,.66-1.9,.15-.88,0-1.68-.51-1.68-1.09,0-5.04,2.48-9.27,6.94l-2.34,13.36c.29,.44,.51,1.31,.44,2.04-.44,2.19-1.75,3.29-5.4,3.29-2.19,0-2.99-.95-2.7-2.85,.15-.73,.73-1.46,1.24-1.82l4.09-23.29Z"/>
            <path class="cls-1" d="M561.19,436.94c-.15-.29-.29-.58-.07-1.82,.36-1.97,2.26-2.56,4.74-2.56,1.39,0,2.99,.29,2.7,2.26-.15,.51-.44,1.17-.95,1.75l-.8,4.53,8.69-1.53c.44-.36,.88-.58,1.39-.58,1.61,0,2.26,1.46,1.97,2.99-.44,2.34-1.53,3.5-2.92,3.5-.51,0-.95-.07-1.02-.37l-9.12,1.53-3.5,19.71c-.22,1.24,0,2.12,.8,2.12,1.39,0,7.15-3.21,10.58-6.93,.22-1.68,1.46-2.85,3.07-2.85,2.7,0,3.21,1.46,2.85,3.5-.51,2.85-13.72,12.85-19.78,12.85-3.36,0-4.82-2.63-4.23-6.13l3.72-21.1-4.45,.73c-.44,.36-.88,.58-1.46,.66-1.68-.07-2.55-1.24-2.19-3.43,.36-1.83,1.82-3.14,3.28-3.14,.44,0,.88,.22,1.02,.44l4.82-.88,.88-5.26Z"/>
          </g>
          <path class="cls-3" d="M582.37,414.51c-67.1-8.21-135.01-8.03-202.49-3.87-8.4,.52-18.08,1.83-22.52,8.98-2.42,3.89-2.67,8.71-2.85,13.29-.55,13.72-1.1,27.43-1.65,41.15-.29,7.25-.27,15.38,4.77,20.61,4.95,5.14,12.91,5.54,20.04,5.62,60.25,.62,120.51,1.24,180.76,1.86,11.5,.12,23.8,.01,33.34-6.4,15.05-10.11,17.08-31.06,17.63-49.19,.33-10.88-.23-23.64-9.15-29.88-7.32-5.12-17.22-3.53-17.89-2.16Z"/>
        </g>
      </g>
    </g>
  </g>
</svg>