<?xml version="1.0" encoding="UTF-8"?>
<svg xmlns="http://www.w3.org/2000/svg" viewBox="0 0 681.4 595.99">
  <defs>
    <style>
      .cls-1 {
        fill: #fff;
      }

      .cls-2 {
        fill: none;
        stroke: #fff;
        stroke-miterlimit: 10;
        stroke-width: 4px;
      }
    </style>
  </defs>
  <g id="Layer_1" data-name="Layer 1"/>
  <g id="Layer_2" data-name="Layer 2">
    <g id="Comix">
      <g id="ctm-feature-video-chat">
        <g>
          <path class="cls-2" d="M485.75,248.11c112.6,39.71,115.53,193.38,4.54,237.36-48.63,17.89-107.77,1.75-140.58-38.35-75.24-94.27,12.1-236.75,136.04-199.01h0Z"/>
          <path class="cls-2" d="M410.19,303.28c-34.63-7.36-72.61,19.34-77.48,54.41-4.87,35.07,24.32,71.07,59.63,73.63,35.31,2.56,69.36-28.79,69.79-64.19s-32.77-67.55-51.95-63.85c0,0,19.18-3.7,0,0Z"/>
          <path class="cls-2" d="M449.67,335.67c-17.47-.15-33.39,15.98-33,33.44,.39,17.47,17,32.88,34.44,31.96"/>
          <path class="cls-2" d="M377.69,471.34c-38.86,11.88-73.34,37.54-95.87,71.35,27.65,.62,55.29,1.23,82.27,.51,20.99-21.64,51.16-34.06,81.3-33.46,30.14,.6,59.8,14.2,80.05,35.38,28.14-.4,56.28-.8,84.01,.5-24.28-32.68-58.51-57.88-96.93-71.35"/>
          <path class="cls-2" d="M204.95,121.71l-.13-30.59c.25-6.18-1.53-9.76-7.18-12.59-13.18-7.07-28.82-7.31-43.77-7.38l-41.2-.2c-22.22-.81-36.6,5.21-40.86,28.78-2.11,15.77,2.1,31.69,3.87,47.36,.44,3.09,.89,6.24,2.23,9.06,3.32,6.98,11.44,10.52,19.15,11.04,7.71,.52,15.36-1.34,23.04-2.21,9.53-1.07,19.21-.59,28.64,1.16,7.1,1.32,14.16,3.37,21.38,3.17,12.63-.35,24.77-8.23,30.24-19.63,5.47-11.4,4.59-25.72,4.58-27.96h0Z"/>
          <path class="cls-2" d="M154.58,103.97c-9.77-9.21-27.57-7.38-35.41,3.52s-4.04,28.21,7.56,34.98c11.6,6.77,28.39,1.71,34.49-10.25,6.1-11.96,.46-28.39-11.62-34.25"/>
        </g>
        <path class="cls-1" d="M610.97,592.01h-14.88c-13.55,0-27.11,0-40.66,0h-132.46c-26.55,0-53.1,0-79.65,0H86.13c-5.92,0-11.84,.03-17.76,0-34.67-.17-63.25-28.19-63.97-62.9-.13-6.13-.02-12.27-.02-18.41,0-15.41,0-30.82,0-46.23,0-22.07,0-44.14,0-66.22,0-25.83,0-51.66,0-77.49s0-53.27,0-79.9c0-24.49,0-48.98,0-73.47,0-19.46,0-38.92,0-58.38v-33.92c0-1.71,0-3.42,0-5.13,.1-17.17,6.81-33.75,18.8-46.05S52.74,4.08,70.51,3.98c1.39,0,2.78,0,4.17,0,9.66,0,19.32,0,28.99,0,17.09,0,34.17,0,51.26,0,22.41,0,44.82,0,67.23,0,25.63,0,51.27,0,76.9,0s53.73,0,80.6,0h145.33c17.54,0,35.09,0,52.63,0,10.16,0,20.31,0,30.47,0,1.68,0,3.37,0,5.05,0,15.64,.09,30.84,5.7,42.55,16.11,13.74,12.22,21.28,29.91,21.39,48.21,0,1.54,0,3.07,0,4.61,0,11.03,0,22.05,0,33.08v210.78c0,26,0,52,0,77.99,0,22.2,0,44.41,0,66.61v46.71c0,5.99,.04,11.97,0,17.96-.22,36.19-30.03,65.71-66.13,65.96-2.47,.02,.41,3.98,2.29,3.97,37.11-.26,67.78-30.65,68.12-67.81,.05-6,0-12.01,0-18.02v-47.13c0-22.41,0-44.82,0-67.23,0-26.24,0-52.48,0-78.72s0-53.86,0-80.78,0-48.92,0-73.37c0-19.14,0-38.28,0-57.41,0-10.65,0-21.29,0-31.94,0-3.4,.01-6.79-.32-10.19-1.7-17.52-10.24-33.9-23.38-45.58S628.15,.1,610.97,0c-1.41,0-2.83,0-4.24,0-9.81,0-19.63,0-29.44,0h-52.27c-22.72,0-45.45,0-68.17,0-26.04,0-52.08,0-78.12,0-27.09,0-54.18,0-81.27,0s-51.71,0-77.57,0c-22.66,0-45.33,0-67.99,0-17.18,0-34.36,0-51.53,0-9.49,0-18.98,0-28.47,0-1.85,0-3.71-.03-5.56,.03C48.4,.53,31.12,8.29,18.77,21.29,6.74,33.95,.2,50.88,.1,68.3c0,1.61,0,3.22,0,4.83,0,11.35,0,22.69,0,34.04,0,19.53,0,39.05,0,58.58,0,24.82,0,49.64,0,74.46s0,53.96,0,80.94,0,51.95,0,77.93c0,22.13,0,44.27,0,66.4,0,15.12,0,30.23,0,45.35,0,7.81-.45,15.88,.52,23.65,4.36,34.84,35,61.31,69.91,61.51,5.4,.03,10.81,0,16.21,0,14.04,0,28.09,0,42.13,0,20.4,0,40.81,0,61.21,0,24.76,0,49.52,0,74.27,0,26.86,0,53.72,0,80.57,0h80.01c24.53,0,49.05,0,73.58,0,20.09,0,40.18,0,60.27,0h54.47c2.46,0-.41-3.97-2.29-3.97Z"/>
      </g>
    </g>
  </g>
</svg>