<?xml version="1.0" encoding="UTF-8"?>
<svg xmlns="http://www.w3.org/2000/svg" viewBox="0 0 357.7 331.52" width="170">
  <defs>
    <style>
      .cls-1 {
        stroke-width: 3.03px;
      }

      .cls-1, .cls-2, .cls-3 {
        fill: none;
        stroke: #d297ff;
        stroke-miterlimit: 10;
      }

      .cls-4 {
        fill: #d297ff;
      }

      .cls-2, .cls-3 {
        stroke-width: 2.56px;
      }

      .cls-3 {
        fill-rule: evenodd;
      }
    </style>
  </defs>
  <g id="Layer_1" data-name="Layer 1"/>
  <g id="Layer_2" data-name="Layer 2">
    <g id="Layer_1-2" data-name="Layer 1">
      <g>
        <g id="coins">
          <rect class="cls-1" x="66.19" y="1.52" width="263.81" height="31.43" rx="13.06" ry="13.06"/>
          <path class="cls-1" d="M356.19,52.9v5.32c0,7.18-5.88,13.05-13.07,13.05H105.43c-7.17,0-13.05-5.87-13.05-13.05v-5.32c0-7.18,5.88-13.05,13.05-13.05h237.69c7.18,0,13.07,5.87,13.07,13.05Z"/>
          <path class="cls-1" d="M356.19,91.23v5.32c0,7.18-5.88,13.05-13.07,13.05h-119.56c-13.64-13.88-30.36-24.72-49.03-31.42h168.59c7.18,0,13.07,5.88,13.07,13.05Z"/>
          <path class="cls-1" d="M356.19,129.57v5.32c0,7.18-5.88,13.05-13.07,13.05h-93.43c-5.09-11.44-11.79-22.01-19.81-31.42h113.24c7.18,0,13.07,5.88,13.07,13.05Z"/>
          <path class="cls-1" d="M356.19,167.91v5.3c0,7.18-5.88,13.07-13.07,13.07h-83c-1.23-10.94-3.8-21.48-7.58-31.44h90.58c7.18,0,13.07,5.88,13.07,13.07Z"/>
          <path class="cls-1" d="M356.19,206.24v5.3c0,7.18-5.88,13.07-13.07,13.07h-84.29c1.39-7.64,2.12-15.52,2.12-23.57,0-2.64-.08-5.26-.24-7.87h82.41c7.18,0,13.07,5.88,13.07,13.07Z"/>
          <path class="cls-1" d="M355.23,244.58v5.3c0,7.18-5.88,13.07-13.05,13.07h-96.82c5.29-9.79,9.37-20.34,12.02-31.44h84.8c7.17,0,13.05,5.88,13.05,13.07Z"/>
          <path class="cls-1" d="M356.19,282.67v5.32c0,7.17-5.88,13.05-13.07,13.05H214.29c10.66-8.93,19.87-19.54,27.22-31.42h101.61c7.18,0,13.07,5.87,13.07,13.05Z"/>
        </g>
        <g id="ctm">
          <g>
            <path id="sphereFront" class="cls-3" d="M130.19,228.49c7.42,18.44,22.25,32.05,40.19,32.05,18.65,0,33.23-11.63,42.16-27.94h.06c.96-1.75,1.87-3.57,2.65-5.45,3.34-7.8,5.21-16.44,5.21-25.24,0-8.97-1.92-17.84-5.49-25.76-.45-1.06-.96-2.11-1.52-3.17-8.71-17.25-23.73-29.7-43.07-29.7-16.51,0-31.91,13.65-39.79,32.11-3.48,8.15-5.5,17.23-5.5,26.51,0,9.3,1.83,18.41,5.11,26.59Z"/>
            <path class="cls-3" d="M125.09,201.9c0-9.28,2.02-18.36,5.5-26.51,5.37,.86,10.53,3.37,14.68,7.52,10.49,10.49,10.49,27.5,0,37.99-4.25,4.25-9.56,6.78-15.07,7.59-3.28-8.18-5.11-17.29-5.11-26.59Z"/>
            <circle class="cls-2" cx="130.35" cy="201.92" r="98.52"/>
          </g>
          <path class="cls-4" d="M143.96,75.82c9.93,1.06,19.7,3.3,29.03,6.64,17.71,6.35,34.07,16.84,47.33,30.33,2.1,2.13,4.15,4.37,6.1,6.67,7.81,9.17,14.25,19.37,19.12,30.34,.97,2.15,1.89,4.39,2.74,6.66,3.68,9.72,6.14,19.93,7.31,30.34,.28,2.45,.46,4.62,.57,6.62v.06c.16,2.41,.24,4.96,.24,7.57,0,7.65-.69,15.31-2.05,22.75-.41,2.24-.88,4.48-1.4,6.66-2.52,10.55-6.42,20.76-11.6,30.34-1.15,2.14-2.4,4.3-3.71,6.43-7.08,11.45-15.92,21.65-26.28,30.33-22.61,18.97-51.34,29.42-80.89,29.42-33.63,0-65.26-13.1-89.04-36.88-23.78-23.78-36.88-55.41-36.88-89.04,0-31.33,11.57-61.35,32.59-84.55,20.82-22.97,49.16-37.41,79.84-40.68h26.99m.24-4.55h-27.46C51.14,78.14,0,133.61,0,201.05c0,72.06,58.41,130.47,130.47,130.47,31.92,0,61.14-11.46,83.82-30.48,10.66-8.93,19.87-19.54,27.22-31.42,1.35-2.18,2.64-4.41,3.85-6.67,5.29-9.79,9.37-20.34,12.02-31.44,.55-2.27,1.03-4.58,1.45-6.9,1.39-7.64,2.12-15.52,2.12-23.57,0-2.64-.08-5.26-.24-7.87-.12-2.32-.33-4.62-.59-6.9-1.23-10.94-3.8-21.48-7.58-31.44-.88-2.33-1.83-4.65-2.85-6.91-5.09-11.44-11.79-22.01-19.81-31.42-2.02-2.38-4.12-4.68-6.32-6.91-13.64-13.88-30.36-24.72-49.03-31.42-9.64-3.46-19.8-5.81-30.33-6.91h0Z"/>
        </g>
      </g>
    </g>
  </g>
</svg>