<?xml version="1.0" encoding="UTF-8"?>
<svg id="Layer_2" data-name="Layer 2" xmlns="http://www.w3.org/2000/svg" viewBox="-40 -40 294.84 295.17">
  <defs>
    <style>
      .cls-1 {
        fill: #2e3192;
        stroke-width: 5px;
      }

      .cls-1, .cls-2 {
        stroke: #fff;
        stroke-miterlimit: 10;
      }

      .cls-2 {
        fill: none;
        stroke-width: 4px;
      }
    </style>
  </defs>
  <g id="Comix">
    <g id="to-buy-ctm">
      <path class="cls-1" d="M144.4,9.33c40.72,15.43,69.32,58.33,67.9,101.86-1.42,43.52-32.77,84.47-74.41,97.2-41.64,12.73-90.52-3.68-116.05-38.96C-3.69,134.14-3.97,82.58,21.15,47.02,46.28,11.45,96.14-8.95,144.4,9.33Z"/>
      <path class="cls-2" d="M140.89,51.65c29.39,18.5,40.03,61.45,22.67,91.53-17.36,30.08-59.86,42.37-90.59,26.18-30.73-16.19-44.64-58.18-29.65-89.52,14.99-31.33,59.34-52.27,97.58-28.2Z"/>
      <path class="cls-2" d="M149.89,79.05c-4.77-7.76-14.93-11.32-23.83-9.41-8.9,1.91-16.33,8.64-20.35,16.81s-4.88,17.62-3.82,26.66c1.02,8.61,3.81,17.15,9.07,24.04,1.49,1.95,3.18,3.77,5.14,5.24,8.44,6.32,21.04,5.04,29.47-1.29s13.08-16.72,14.61-27.16c.8-5.5,.83-11.17-.64-16.53-2.22-8.1-7.69-15.15-9.67-18.37Z"/>
      <path class="cls-2" d="M109.11,93.21l10.37,.59c4.79,6.17,7.58,14.48,5.13,21.9-2.45,7.41-11.4,12.69-18.49,9.41"/>
    </g>
  </g>
</svg>