<?xml version="1.0" encoding="UTF-8"?>
<svg xmlns="http://www.w3.org/2000/svg" xmlns:xlink="http://www.w3.org/1999/xlink" viewBox="0 0 1266 1486">
  <defs>
    <style>
      .cls-1 {
        fill: #5600ff;
      }

      .cls-2 {
        fill: url(#logoFLatGrad);
        opacity: .23;
      }

      .cls-3 {
        fill: url(#radial-gradient);
      }

      .cls-4 {
        stroke-width: 1.41px;
      }

      .cls-4, .cls-5, .cls-6, .cls-7 {
        stroke-miterlimit: 10;
      }

      .cls-4, .cls-7 {
        fill: none;
        stroke: #5600ff;
      }

      .cls-8 {
        fill: url(#linear-gradient);
        opacity: .45;
      }

      .cls-9 {
        fill: url(#linear-gradient-2);
        opacity: .16;
      }

      .cls-5 {
        fill: url(#radial-gradient-2);
        opacity: .58;
        stroke: rgba(242, 242, 242, .36);
        stroke-width: .76px;
      }

      .cls-6 {
        fill: url(#radial-gradient-3);
        stroke: url(#logoFLatGrad-2);
        stroke-opacity: .08;
        stroke-width: 2px;
      }
    </style>
    <linearGradient id="linear-gradient" x1="664.08" y1="1318.46" x2="652.17" y2="296.77" gradientTransform="matrix(1, 0, 0, 1, 0, 0)" gradientUnits="userSpaceOnUse">
      <stop offset="0" stop-color="#a000ff" stop-opacity=".5"/>
      <stop offset="1" stop-color="#000" stop-opacity="0"/>
    </linearGradient>
    <radialGradient id="logoFLatGrad" cx="618.89" cy="623.08" fx="618.89" fy="623.08" r="322.12" gradientTransform="matrix(1, 0, 0, 1, 0, 0)" gradientUnits="userSpaceOnUse">
      <stop offset="0" stop-color="#fff"/>
      <stop offset="0" stop-color="#fdfeff"/>
      <stop offset=".2" stop-color="#aae7ff"/>
      <stop offset=".28" stop-color="#8adfff"/>
      <stop offset=".37" stop-color="#7ec6ff"/>
      <stop offset=".52" stop-color="#6ca2ff"/>
      <stop offset=".65" stop-color="#618dff"/>
      <stop offset=".73" stop-color="#5e85ff"/>
      <stop offset=".74" stop-color="#5c7aff"/>
      <stop offset=".79" stop-color="#5a64ff"/>
      <stop offset=".83" stop-color="#5856ff"/>
      <stop offset=".87" stop-color="#5852ff"/>
      <stop offset=".89" stop-color="#573cff"/>
      <stop offset=".91" stop-color="#5622ff"/>
      <stop offset=".94" stop-color="#560fff"/>
      <stop offset=".97" stop-color="#5603ff"/>
      <stop offset="1" stop-color="#5600ff"/>
    </radialGradient>
    <radialGradient id="radial-gradient" cx="618.98" cy="622.91" fx="618.98" fy="622.91" r="400" gradientTransform="matrix(1, 0, 0, 1, 0, 0)" gradientUnits="userSpaceOnUse">
      <stop offset="0" stop-color="#fff"/>
      <stop offset=".02" stop-color="#faf8ff" stop-opacity=".97"/>
      <stop offset=".51" stop-color="#a374ff" stop-opacity=".46"/>
      <stop offset=".85" stop-color="#6b20ff" stop-opacity=".13"/>
      <stop offset="1" stop-color="#5600ff" stop-opacity="0"/>
    </radialGradient>
    <radialGradient id="radial-gradient-2" cx="619" cy="622" fx="619" fy="622" r="100" gradientTransform="matrix(1, 0, 0, 1, 0, 0)" gradientUnits="userSpaceOnUse">
      <stop offset="0" stop-color="#fff"/>
      <stop offset="1" stop-color="#fff" stop-opacity=".3"/>
    </radialGradient>
    <radialGradient id="radial-gradient-3" cx="618.99" cy="622.9" fx="626.06" fy="1255.11" r="632.25" gradientTransform="matrix(1, 0, 0, 1, 0, 0)" gradientUnits="userSpaceOnUse">
      <stop offset="0" stop-color="#570063"/>
      <stop offset=".07" stop-color="#490053"/>
      <stop offset=".22" stop-color="#2e0035"/>
      <stop offset=".39" stop-color="#1a001d"/>
      <stop offset=".56" stop-color="#0b000c"/>
      <stop offset=".76" stop-color="#020003"/>
      <stop offset="1" stop-color="#000"/>
    </radialGradient>
    <radialGradient id="logoFLatGrad-2" data-name="logoFLatGrad" cx="618.99" cy="622.9" fx="618.99" fy="622.9" r="323.11" xlink:href="#logoFLatGrad"/>
    <linearGradient id="linear-gradient-2" x1="595.71" y1="641.89" x2="1654.71" y2="641.89" gradientTransform="matrix(1, 0, 0, 1, 0, 0)" gradientUnits="userSpaceOnUse">
      <stop offset="0" stop-color="#fff" stop-opacity=".4"/>
      <stop offset=".03" stop-color="#d6d6d6" stop-opacity=".34"/>
      <stop offset=".1" stop-color="#949494" stop-opacity=".23"/>
      <stop offset=".18" stop-color="#5d5d5d" stop-opacity=".15"/>
      <stop offset=".28" stop-color="#333" stop-opacity=".08"/>
      <stop offset=".39" stop-color="#151515" stop-opacity=".03"/>
      <stop offset=".55" stop-color="#040404" stop-opacity="0"/>
      <stop offset="1" stop-color="#000" stop-opacity="0"/>
    </linearGradient>
  </defs>
  <g id="Layer_1" data-name="Layer 1">
    <g id="Posters"/>
    <g id="Poster"/>
    <g id="Poster-2" data-name="Poster"/>
  </g>
  <g id="source">
    <g id="logoFlat"/>
  </g>
  <g id="Ilustrations"/>
  <g id="Features"/>
  <g id="Loader"/>
  <g id="loader4"/>
  <g id="energyposter">
    <g id="logoIlustrationBase"/>
    <g/>
    <g>
      <path class="cls-7" d="M593.95,1319.77c24.26,0,47.79,4.81,64.55,13.19,13.57,6.79,21.68,15.4,21.68,23.04s-8.1,16.25-21.68,23.04c-16.77,8.38-40.29,13.19-64.55,13.19s-47.79-4.81-64.55-13.19c-13.57-6.79-21.68-15.4-21.68-23.04s8.1-16.25,21.68-23.04c16.77-8.38,40.29-13.19,64.55-13.19m0-13.77c-55.23,0-100,22.39-100,50s44.77,50,100,50,100-22.39,100-50-44.77-50-100-50h0Zm-100,50c0,27.61,44.77,50,100,50s100-22.39,100-50-44.77-50-100-50"/>
      <path class="cls-4" d="M668.13,1356.02c0,12.7-18.03,24.59-38,24.59-16.22,0-28.82-5.22-36.12-12.45-.47-.44-.9-.89-1.28-1.33-2.99-3.32-4.6-7.04-4.6-10.8s1.56-7.31,4.36-10.58c.66-.79,1.42-1.55,2.23-2.29h.05c7.49-6.84,19.71-11.71,35.37-11.71,21.72,0,38,11.89,38,24.59Z"/>
      <path class="cls-1" d="M594.52,1344.6c12.42,.15,22.83,5.11,22.83,10.95s-10.7,10.98-23.37,10.98c-.05,0-.1,0-.15,0-.3-.29-.59-.58-.86-.89-2.84-3.04-4.34-6.4-4.34-9.72s1.43-6.49,4.13-9.54c.5-.57,1.07-1.15,1.76-1.78m-.49-1.42h-.05c-.83,.73-1.61,1.48-2.29,2.26-2.87,3.24-4.48,6.82-4.48,10.47s1.65,7.4,4.72,10.69c.39,.44,.83,.88,1.31,1.31,.24,.02,.49,.02,.73,.02,13.68,0,24.78-5.55,24.78-12.39s-11.05-12.34-24.73-12.37h0Z"/>
      <path class="cls-8" d="M693.5,1355.5l.28,.64c0,27.61-44.77,50-100,50s-100-22.39-100-50l-.28-.64L31.5,3.5l.45-.5c0-27.62,498.77-80,554-80S1265.95-29.62,1265.95-2c0,1.59-.15,3.17-.45,4.73L693.5,1355.5Z"/>
      <g>
        <circle class="cls-2" cx="618.89" cy="623.08" r="322.12"/>
        <path class="cls-3" d="M618.98,300.81c177.61,0,322.11,144.5,322.11,322.11s-144.5,322.11-322.11,322.11-322.11-144.5-322.11-322.11,144.5-322.11,322.11-322.11m0-77.89c-220.91,0-400,179.09-400,400s179.09,400,400,400,400-179.09,400-400-179.09-400-400-400h0Z"/>
        <circle class="cls-5" cx="619" cy="622" r="100"/>
        <path class="cls-6" d="M618.99,300.8c-177.6,0-322.12,144.52-322.12,322.12s144.52,322.08,322.12,322.08,322.12-144.48,322.12-322.08-144.52-322.12-322.12-322.12Zm144.73,518.97c-64.88,0-115.28-41.74-144.49-99.62-1.9-3.54-3.61-7.09-5.12-10.63-11.95-26.58-18.4-56.31-18.4-86.43s6.26-58.47,17.45-84.66c2.66-6.3,5.69-12.4,8.92-18.31h.19c29.98-54.73,78.86-93.72,141.46-93.72,86.88,0,151.98,95.1,151.98,196.69s-72.11,196.69-151.98,196.69Z"/>
      </g>
    </g>
    <path class="cls-9" d="M1382.23-108.93c135.76,0,272.47,557.59,272.47,716.33s-67.68,785.33-192.47,785.33l.27-.22L763.5,819.5l.22,.27c-64.88,0-115.28-41.74-144.49-99.62-1.9-3.54-3.61-7.09-5.12-10.63-11.95-26.58-18.4-56.31-18.4-86.43s6.26-58.47,17.45-84.66c2.66-6.3,5.69-12.4,8.92-18.31h.19c29.98-54.73,78.86-93.72,141.46-93.72l-.22,.11L1382.5-108.5l-.27-.43Z"/>
  </g>
</svg>