<?xml version="1.0" encoding="utf-8"?>
<!-- Generator: Adobe Illustrator 26.2.1, SVG Export Plug-In . SVG Version: 6.00 Build 0)  -->
<svg version="1.1" xmlns="http://www.w3.org/2000/svg" xmlns:xlink="http://www.w3.org/1999/xlink" x="0px" y="0px"
	 viewBox="0 0 481 481" enable-background="new 0 0 481 481" xml:space="preserve">
<symbol  id="New_Symbol_1" viewBox="-100 -100 200 200">
	<g>
		<circle fill="#0000FF" cx="0" cy="0" r="98.5"/>
		<path fill="#00FFFF" d="M0,97c53.5,0,97-43.5,97-97S53.5-97,0-97S-97-53.5-97,0S-53.5,97,0,97 M0,100c-55.2,0-100-44.8-100-100
			S-55.2-100,0-100S100-55.2,100,0S55.2,100,0,100L0,100z"/>
	</g>
	<g>
		<path fill="#00FFFF" d="M7.5,21.3c8.5-3.1,14.3-11.2,14.3-20.4c0-9.5-6.2-17.8-15-20.7c-1.2,2.6-2.1,5.3-2.9,8
			c-2.4,9.4-1.5,20,2.6,30.6c0.2,0.5,0.4,1,0.6,1.6C7.3,20.7,7.4,21,7.5,21.3 M5.9,24.9c-0.6-1.1-1.1-2.2-1.6-3.4
			c-0.2-0.5-0.5-1.1-0.7-1.7C-0.3,9.6-1.7-1.8,1-12.5c1-3.7,2.4-7.4,4.1-10.8C16.4-21,24.8-11,24.8,0.9
			C24.8,12.6,16.8,22.3,5.9,24.9L5.9,24.9z"/>
	</g>
	<path fill="none" stroke="#00FFFF" stroke-width="3" stroke-miterlimit="10" d="M47.5,49.3C38,53.7,26.8,53.2,17.3,49
		c-9.5-4.1-17-11.7-22.7-20.2l-0.2-0.2c-4.1-6.5-6.6-14-7.4-21.6c-2.4-22.5,10-47.4,31.4-56.4C50.6-62.6,74.9-29.2,74.7,0.3
		C74.5,19.6,65.7,40.6,47.5,49.3z M22.1-41.2C14.7-37.4,9-30.8,5.2-23.4C3.4-19.9,2-16.2,1-12.5C-1.7-1.8-0.3,9.6,3.7,19.9
		c0.2,0.6,0.4,1.1,0.7,1.7c0.5,1.1,1,2.3,1.6,3.4c3.4,6.9,8.4,13,15,16.7C48.9,56.4,70.5,26.2,70,0.3C70.2-24.2,48.7-54.7,22.1-41.2
		z"/>
</symbol>
<g id="Layer_1">
	<g id="Posters">
	</g>
	<g id="Poster">
	</g>
	<g id="Poster_00000035501533791797700560000014132254951021746597_">
	</g>
</g>
<g id="source">
	<g id="logoFlat">
	</g>
</g>
<g id="Ilustrations">
</g>
<g id="Features">
</g>
<g id="Loader">
</g>
<g id="loader4">
</g>
<g id="energyposter">
</g>
<g id="landingposter">
	<g id="coinsZero">
		
			<radialGradient id="SVGID_00000149362785126631255520000009224544900055475851_" cx="0" cy="0" r="326.484" gradientTransform="matrix(1 0 0 0.9995 0 1.5761)" gradientUnits="userSpaceOnUse">
			<stop  offset="0" style="stop-color:#FFFFFF"/>
			<stop  offset="4.227541e-03" style="stop-color:#FDFEFF"/>
			<stop  offset="0.1968" style="stop-color:#ABE8FF"/>
			<stop  offset="0.2847" style="stop-color:#8ADFFF"/>
			<stop  offset="0.3736" style="stop-color:#7EC7FF"/>
			<stop  offset="0.5238" style="stop-color:#6DA3FF"/>
			<stop  offset="0.6465" style="stop-color:#628DFF"/>
			<stop  offset="0.7255" style="stop-color:#5E85FF"/>
			<stop  offset="0.7422" style="stop-color:#5D7BFF"/>
			<stop  offset="0.787" style="stop-color:#5A64FF"/>
			<stop  offset="0.8296" style="stop-color:#5957FF"/>
			<stop  offset="0.8675" style="stop-color:#5852FF"/>
			<stop  offset="0.8852" style="stop-color:#573DFF"/>
			<stop  offset="0.9126" style="stop-color:#5722FF"/>
			<stop  offset="0.9406" style="stop-color:#560FFF"/>
			<stop  offset="0.9694" style="stop-color:#5604FF"/>
			<stop  offset="1" style="stop-color:#5600FF"/>
		</radialGradient>
		
			<circle fill="#17000A" stroke="url(#SVGID_00000149362785126631255520000009224544900055475851_)" stroke-width="2.968" stroke-miterlimit="10" cx="0" cy="0" r="325"/>
		<g>
			
				<circle id="me_00000139277986030716609790000017361163619329107845_" fill="#170017" stroke="#8BDDFF" stroke-width="5" stroke-miterlimit="10" cx="-0.4" cy="0.2" r="76.7"/>
			
				<radialGradient id="sphereFront_00000164471762231039580210000003322687778825458341_" cx="-0.4294" cy="1.0651" r="327.5" gradientUnits="userSpaceOnUse">
				<stop  offset="0" style="stop-color:#FFFFFF"/>
				<stop  offset="4.227541e-03" style="stop-color:#FDFEFF"/>
				<stop  offset="0.1968" style="stop-color:#ABE8FF"/>
				<stop  offset="0.2847" style="stop-color:#8ADFFF"/>
				<stop  offset="0.3736" style="stop-color:#7EC7FF"/>
				<stop  offset="0.5238" style="stop-color:#6DA3FF"/>
				<stop  offset="0.6465" style="stop-color:#628DFF"/>
				<stop  offset="0.7255" style="stop-color:#5E85FF"/>
				<stop  offset="0.7422" style="stop-color:#5D7BFF"/>
				<stop  offset="0.787" style="stop-color:#5A64FF"/>
				<stop  offset="0.8296" style="stop-color:#5957FF"/>
				<stop  offset="0.8675" style="stop-color:#5852FF"/>
				<stop  offset="0.8852" style="stop-color:#573DFF"/>
				<stop  offset="0.9126" style="stop-color:#5722FF"/>
				<stop  offset="0.9406" style="stop-color:#560FFF"/>
				<stop  offset="0.9694" style="stop-color:#5604FF"/>
				<stop  offset="1" style="stop-color:#5600FF"/>
			</radialGradient>
			
				<path id="sphereFront_00000039839406843213884400000000756258270557635762_" fill="#170017" stroke="url(#sphereFront_00000164471762231039580210000003322687778825458341_)" stroke-width="5" stroke-miterlimit="10" d="
				M-0.4-323.9c-179.2,0-325,145.8-325,325s145.8,325,325,325s325-145.8,325-325S178.8-323.9-0.4-323.9z M145.6,199.7
				c-65.5,0-116.3-42.1-145.8-100.5c-1.9-3.6-3.6-7.2-5.2-10.7C-17.4,61.6-23.9,31.6-23.9,1.2c0-29.8,6.3-59,17.6-85.4
				c2.7-6.4,5.7-12.5,9-18.5h0.2c30.2-55.2,79.6-94.6,142.7-94.6c87.7,0,153.3,96,153.3,198.5C298.9,103.8,226.2,199.7,145.6,199.7z
				"/>
		</g>
	</g>
</g>
</svg>
