<?xml version="1.0" encoding="UTF-8"?>
<svg xmlns="http://www.w3.org/2000/svg" xmlns:xlink="http://www.w3.org/1999/xlink" viewBox="0 0 989.08 1000">
  <defs>
    <style>
      .cls-1 {
        fill: url(#radial-gradient-5);
        opacity: .77;
      }

      .cls-2 {
        fill: url(#radial-gradient-2);
      }

      .cls-3 {
        fill: url(#radial-gradient);
      }

      .cls-4 {
        fill: #090000;
        stroke: url(#logoFLatGrad);
        stroke-opacity: .08;
        stroke-width: 2.02px;
      }

      .cls-4, .cls-5, .cls-6 {
        stroke-miterlimit: 10;
      }

      .cls-5 {
        fill: #ccc;
        stroke: #662d91;
        stroke-width: .5px;
      }

      .cls-7 {
        fill: url(#radial-gradient-6);
        mix-blend-mode: lighten;
        opacity: .78;
      }

      .cls-8 {
        fill: url(#radial-gradient-4);
        fill-opacity: .78;
        opacity: .07;
      }

      .cls-9 {
        isolation: isolate;
      }

      .cls-6 {
        fill: url(#radial-gradient-3);
        opacity: .85;
        stroke: #b3b3b3;
      }
    </style>
    <radialGradient id="radial-gradient" cx="400" cy="500.26" fx="400" fy="500.26" r="324.5" gradientTransform="matrix(1, 0, 0, 1, 0, 0)" gradientUnits="userSpaceOnUse">
      <stop offset="0" stop-color="#fff"/>
      <stop offset=".15" stop-color="#a78fb0"/>
      <stop offset=".36" stop-color="#825f8f"/>
      <stop offset=".52" stop-color="#694079"/>
      <stop offset=".67" stop-color="#562768"/>
      <stop offset="1" stop-color="#110017"/>
    </radialGradient>
    <radialGradient id="radial-gradient-2" cx="400" cy="500.26" fx="400" fy="500.26" r="400" gradientTransform="matrix(1, 0, 0, 1, 0, 0)" gradientUnits="userSpaceOnUse">
      <stop offset="0" stop-color="#fff"/>
      <stop offset=".02" stop-color="#faf8ff" stop-opacity=".97"/>
      <stop offset=".51" stop-color="#a374ff" stop-opacity=".46"/>
      <stop offset=".85" stop-color="#6b20ff" stop-opacity=".13"/>
      <stop offset="1" stop-color="#5600ff" stop-opacity="0"/>
    </radialGradient>
    <radialGradient id="radial-gradient-3" cx="400" cy="500.26" fx="400" fy="500.26" r="76.73" gradientTransform="matrix(1, 0, 0, 1, 0, 0)" gradientUnits="userSpaceOnUse">
      <stop offset=".34" stop-color="#adadad"/>
      <stop offset=".6" stop-color="#aeadaf" stop-opacity=".99"/>
      <stop offset=".75" stop-color="#b4adb9" stop-opacity=".94"/>
      <stop offset=".87" stop-color="#bdadc9" stop-opacity=".85"/>
      <stop offset=".97" stop-color="#caaedf" stop-opacity=".74"/>
      <stop offset="1" stop-color="#cfafe7" stop-opacity=".7"/>
    </radialGradient>
    <radialGradient id="logoFLatGrad" cx="400" cy="500.26" fx="400" fy="500.26" r="326" gradientTransform="translate(0 -.03)" gradientUnits="userSpaceOnUse">
      <stop offset="0" stop-color="#fff"/>
      <stop offset="0" stop-color="#fdfeff"/>
      <stop offset=".2" stop-color="#aae7ff"/>
      <stop offset=".28" stop-color="#8adfff"/>
      <stop offset=".37" stop-color="#7ec6ff"/>
      <stop offset=".52" stop-color="#6ca2ff"/>
      <stop offset=".65" stop-color="#618dff"/>
      <stop offset=".73" stop-color="#5e85ff"/>
      <stop offset=".74" stop-color="#5c7aff"/>
      <stop offset=".79" stop-color="#5a64ff"/>
      <stop offset=".83" stop-color="#5856ff"/>
      <stop offset=".87" stop-color="#5852ff"/>
      <stop offset=".89" stop-color="#573cff"/>
      <stop offset=".91" stop-color="#5622ff"/>
      <stop offset=".94" stop-color="#560fff"/>
      <stop offset=".97" stop-color="#5603ff"/>
      <stop offset="1" stop-color="#5600ff"/>
    </radialGradient>
    <radialGradient id="radial-gradient-4" cx="552.84" cy="497.22" fx="552.84" fy="497.22" r="559.69" gradientTransform="translate(0 1.23)" gradientUnits="userSpaceOnUse">
      <stop offset="0" stop-color="#fff" stop-opacity=".5"/>
      <stop offset=".06" stop-color="#f0e7ff" stop-opacity=".38"/>
      <stop offset=".12" stop-color="#e2d2ff" stop-opacity=".26"/>
      <stop offset=".19" stop-color="#d6c0ff" stop-opacity=".16"/>
      <stop offset=".28" stop-color="#cdb2ff" stop-opacity=".09"/>
      <stop offset=".37" stop-color="#c7a9ff" stop-opacity=".04"/>
      <stop offset=".49" stop-color="#c4a3ff" stop-opacity="0"/>
      <stop offset=".74" stop-color="#c3a2ff" stop-opacity="0"/>
    </radialGradient>
    <radialGradient id="radial-gradient-5" cx="465.96" cy="515.75" fx="758.28" fy="515.75" r="820.89" gradientTransform="translate(-164.94 -137.59) scale(1.28)" gradientUnits="userSpaceOnUse">
      <stop offset=".08" stop-color="#fff" stop-opacity=".12"/>
      <stop offset=".13" stop-color="#ebe0ff" stop-opacity=".08"/>
      <stop offset=".23" stop-color="#d3bcff" stop-opacity=".03"/>
      <stop offset=".36" stop-color="#c6a7ff" stop-opacity="0"/>
      <stop offset=".73" stop-color="#c3a2ff" stop-opacity="0"/>
    </radialGradient>
    <radialGradient id="radial-gradient-6" cx="400" cy="890.4" fx="400" fy="890.4" r="484.06" gradientTransform="translate(-1086.65 1293.12) rotate(-90.1) scale(1 1.67)" gradientUnits="userSpaceOnUse">
      <stop offset="0" stop-color="#56004d" stop-opacity=".9"/>
      <stop offset=".18" stop-color="#4f0047" stop-opacity=".89"/>
      <stop offset=".42" stop-color="#3d0036" stop-opacity=".87"/>
      <stop offset=".7" stop-color="#1f001b" stop-opacity=".84"/>
      <stop offset=".92" stop-color="#000" stop-opacity=".8"/>
    </radialGradient>
  </defs>
  <g class="cls-9">
    <g id="Layer_1" data-name="Layer 1"/>
    <g id="Layer_2" data-name="Layer 2">
      <g id="landingposter">
        <g id="sphereZero">
          <circle id="innerSphere" class="cls-3" cx="400" cy="500.26" r="324.5"/>
          <path id="sphereWrap" class="cls-2" d="M400,178.15c177.61,0,322.11,144.5,322.11,322.11s-144.5,322.11-322.11,322.11S77.89,677.87,77.89,500.26,222.39,178.15,400,178.15m0-77.89C179.09,100.26,0,279.34,0,500.26s179.09,400,400,400,400-179.09,400-400S620.91,100.26,400,100.26h0Z"/>
          <g id="textObj">
            <g>
              <path class="cls-5" d="M244.47,355.71c-.5-2.21-1.44-3.78-2.81-4.72-1.37-.94-3.16-1.4-5.36-1.4-1.56,0-2.9,.31-4.03,.94-1.13,.62-2.06,1.46-2.79,2.52-.73,1.06-1.27,2.27-1.62,3.65-.35,1.38-.52,2.84-.52,4.37,0,1.44,.15,2.86,.45,4.25,.3,1.39,.8,2.63,1.49,3.73,.7,1.09,1.63,1.97,2.81,2.65,1.18,.67,2.65,1.01,4.43,1.01,1.1,0,2.11-.18,3.02-.54,.91-.36,1.71-.86,2.39-1.49,.68-.64,1.26-1.39,1.73-2.25,.47-.86,.82-1.81,1.06-2.84h2.56c-.29,1.25-.71,2.43-1.26,3.55-.55,1.12-1.28,2.09-2.18,2.93-.9,.84-1.99,1.51-3.28,2-1.28,.49-2.79,.74-4.52,.74-1.99,0-3.7-.37-5.11-1.1-1.42-.73-2.57-1.72-3.47-2.97-.9-1.25-1.55-2.69-1.96-4.34-.41-1.64-.61-3.39-.61-5.24,0-2.47,.31-4.57,.92-6.3s1.46-3.14,2.54-4.23c1.08-1.09,2.35-1.88,3.82-2.38,1.46-.49,3.06-.74,4.79-.74,1.32,0,2.55,.17,3.69,.52,1.14,.35,2.15,.87,3.02,1.57,.88,.7,1.6,1.55,2.16,2.57,.56,1.02,.95,2.2,1.17,3.55h-2.52Z"/>
              <path class="cls-5" d="M261.21,374.11h-2.16v-18.65h2.16v3.49h.07c.6-1.49,1.37-2.53,2.32-3.11,.95-.59,2.2-.88,3.76-.88v2.34c-1.22-.02-2.23,.17-3.02,.58-.79,.41-1.42,.96-1.89,1.66-.47,.7-.79,1.52-.97,2.47-.18,.95-.27,1.94-.27,2.97v9.14Z"/>
              <path class="cls-5" d="M278.64,379.15c.29,.05,.58,.1,.88,.14,.3,.05,.61,.07,.92,.07,.6,0,1.09-.19,1.48-.57,.38-.38,.7-.85,.95-1.38,.25-.54,.46-1.1,.63-1.69,.17-.59,.36-1.08,.58-1.49l-7.24-18.76h2.41l5.98,16.02,5.98-16.02h2.34l-6.95,18.4c-.43,1.18-.85,2.23-1.24,3.17s-.82,1.73-1.26,2.39c-.44,.66-.94,1.16-1.48,1.51-.54,.35-1.18,.52-1.93,.52-.38,0-.75-.02-1.1-.07-.35-.05-.67-.11-.95-.18v-2.05Z"/>
              <path class="cls-5" d="M306.39,381.45h-2.16v-25.99h2.16v3.28h.07c.31-.6,.71-1.14,1.21-1.62,.49-.48,1.03-.88,1.62-1.19,.59-.31,1.19-.55,1.82-.72,.62-.17,1.24-.25,1.84-.25,1.51,0,2.8,.25,3.85,.76,1.06,.5,1.93,1.19,2.61,2.07,.68,.88,1.18,1.91,1.49,3.11,.31,1.2,.47,2.48,.47,3.85,0,1.3-.17,2.54-.5,3.74-.34,1.2-.85,2.25-1.53,3.15-.68,.9-1.55,1.62-2.59,2.16s-2.27,.81-3.69,.81c-1.32,0-2.59-.29-3.8-.88-1.21-.59-2.17-1.46-2.86-2.61v10.33Zm0-16.6c0,1.06,.14,2.06,.43,3.01,.29,.95,.7,1.78,1.24,2.48,.54,.71,1.2,1.27,1.98,1.69,.78,.42,1.66,.63,2.65,.63,1.1,0,2.07-.22,2.9-.67,.83-.44,1.51-1.05,2.03-1.82,.53-.77,.91-1.66,1.15-2.68,.24-1.02,.34-2.12,.29-3.29,0-1.18-.16-2.21-.49-3.11-.32-.9-.77-1.66-1.35-2.29-.58-.62-1.25-1.1-2.02-1.42-.77-.32-1.61-.49-2.52-.49-1.01,0-1.91,.2-2.7,.61-.79,.41-1.45,.97-1.98,1.67-.53,.71-.93,1.55-1.21,2.52-.28,.97-.41,2.02-.41,3.15Z"/>
              <path class="cls-5" d="M339.73,374.18c-.26,.05-.61,.13-1.04,.25-.43,.12-.91,.18-1.44,.18-1.08,0-1.9-.27-2.47-.81s-.85-1.51-.85-2.9v-13.64h-2.63v-1.8h2.63v-5.18h2.16v5.18h3.49v1.8h-3.49v12.78c0,.46,.01,.85,.04,1.19,.02,.34,.1,.61,.22,.83s.31,.37,.56,.47c.25,.1,.61,.14,1.06,.14,.29,0,.58-.02,.88-.07,.3-.05,.59-.11,.88-.18v1.76Z"/>
              <path class="cls-5" d="M357.8,374.61c-1.2-.02-2.32-.24-3.37-.65-1.04-.41-1.96-1.02-2.74-1.84-.78-.82-1.4-1.84-1.85-3.06s-.68-2.65-.68-4.28c0-1.37,.18-2.65,.54-3.83,.36-1.19,.9-2.23,1.62-3.11,.72-.89,1.62-1.59,2.7-2.11,1.08-.52,2.34-.77,3.78-.77s2.74,.26,3.82,.77c1.08,.52,1.98,1.21,2.7,2.09,.72,.88,1.25,1.91,1.6,3.11,.35,1.2,.52,2.48,.52,3.85,0,1.49-.2,2.83-.61,4.03-.41,1.2-.99,2.23-1.75,3.1s-1.67,1.53-2.74,2c-1.07,.47-2.25,.7-3.55,.7Zm6.34-9.83c0-1.1-.12-2.14-.36-3.1-.24-.96-.61-1.79-1.12-2.5-.5-.71-1.15-1.27-1.94-1.67-.79-.41-1.76-.61-2.92-.61s-2.09,.22-2.9,.67c-.8,.44-1.46,1.03-1.96,1.76-.5,.73-.88,1.57-1.12,2.52-.24,.95-.36,1.93-.36,2.93,0,1.15,.14,2.21,.41,3.19,.28,.97,.68,1.81,1.21,2.5,.53,.7,1.19,1.24,1.98,1.62,.79,.38,1.7,.58,2.74,.58,1.13,0,2.09-.22,2.9-.67,.8-.44,1.46-1.04,1.96-1.78,.5-.74,.88-1.58,1.12-2.52,.24-.94,.36-1.91,.36-2.92Z"/>
              <path class="cls-5" d="M395.02,374.11v-25.92h3.74l8.5,22.86h.07l8.35-22.86h3.71v25.92h-2.45v-23.11h-.07l-8.5,23.11h-2.3l-8.53-23.11h-.07v23.11h-2.45Z"/>
              <path class="cls-5" d="M433.33,365.29c0,1.01,.13,1.96,.4,2.86,.26,.9,.65,1.68,1.17,2.34,.52,.66,1.17,1.19,1.96,1.58s1.7,.59,2.74,.59c1.42,0,2.63-.37,3.64-1.12,1.01-.74,1.68-1.8,2.02-3.17h2.41c-.26,.89-.61,1.71-1.04,2.47-.43,.76-.97,1.42-1.62,1.98-.65,.56-1.42,1-2.3,1.31-.89,.31-1.92,.47-3.1,.47-1.49,0-2.77-.25-3.85-.76-1.08-.5-1.97-1.19-2.66-2.07-.7-.88-1.21-1.91-1.55-3.1s-.5-2.47-.5-3.83,.2-2.65,.59-3.85c.4-1.2,.96-2.25,1.69-3.15,.73-.9,1.62-1.61,2.68-2.12,1.06-.52,2.26-.77,3.6-.77,2.57,0,4.58,.88,6.05,2.65,1.46,1.76,2.18,4.33,2.16,7.69h-14.47Zm12.17-1.8c0-.91-.13-1.77-.38-2.57-.25-.8-.62-1.5-1.12-2.09-.49-.59-1.11-1.06-1.85-1.4-.74-.35-1.6-.52-2.56-.52s-1.81,.18-2.54,.54c-.73,.36-1.36,.84-1.87,1.44-.52,.6-.93,1.3-1.24,2.09-.31,.79-.52,1.63-.61,2.52h12.17Z"/>
              <path class="cls-5" d="M460.54,365.29c0,1.01,.13,1.96,.4,2.86,.26,.9,.65,1.68,1.17,2.34,.52,.66,1.17,1.19,1.96,1.58s1.7,.59,2.74,.59c1.42,0,2.63-.37,3.64-1.12,1.01-.74,1.68-1.8,2.02-3.17h2.41c-.26,.89-.61,1.71-1.04,2.47-.43,.76-.97,1.42-1.62,1.98-.65,.56-1.42,1-2.3,1.31-.89,.31-1.92,.47-3.1,.47-1.49,0-2.77-.25-3.85-.76-1.08-.5-1.97-1.19-2.66-2.07-.7-.88-1.21-1.91-1.55-3.1s-.5-2.47-.5-3.83,.2-2.65,.59-3.85c.4-1.2,.96-2.25,1.69-3.15,.73-.9,1.62-1.61,2.68-2.12,1.06-.52,2.26-.77,3.6-.77,2.57,0,4.58,.88,6.05,2.65,1.46,1.76,2.18,4.33,2.16,7.69h-14.47Zm12.17-1.8c0-.91-.13-1.77-.38-2.57-.25-.8-.62-1.5-1.12-2.09-.49-.59-1.11-1.06-1.85-1.4-.74-.35-1.6-.52-2.56-.52s-1.81,.18-2.54,.54c-.73,.36-1.36,.84-1.87,1.44-.52,.6-.93,1.3-1.24,2.09-.31,.79-.52,1.63-.61,2.52h12.17Z"/>
              <path class="cls-5" d="M492.98,374.18c-.26,.05-.61,.13-1.04,.25-.43,.12-.91,.18-1.44,.18-1.08,0-1.9-.27-2.47-.81-.56-.54-.85-1.51-.85-2.9v-13.64h-2.63v-1.8h2.63v-5.18h2.16v5.18h3.49v1.8h-3.49v12.78c0,.46,.01,.85,.04,1.19,.02,.34,.1,.61,.22,.83s.31,.37,.56,.47c.25,.1,.61,.14,1.06,.14,.29,0,.58-.02,.88-.07,.3-.05,.59-.11,.88-.18v1.76Z"/>
              <path class="cls-5" d="M521.06,374.11v-25.92h3.74l8.5,22.86h.07l8.35-22.86h3.71v25.92h-2.45v-23.11h-.07l-8.5,23.11h-2.3l-8.53-23.11h-.07v23.11h-2.45Z"/>
              <path class="cls-5" d="M559.36,365.29c0,1.01,.13,1.96,.4,2.86,.26,.9,.65,1.68,1.17,2.34,.52,.66,1.17,1.19,1.96,1.58s1.7,.59,2.74,.59c1.42,0,2.63-.37,3.64-1.12,1.01-.74,1.68-1.8,2.02-3.17h2.41c-.26,.89-.61,1.71-1.04,2.47-.43,.76-.97,1.42-1.62,1.98-.65,.56-1.42,1-2.3,1.31-.89,.31-1.92,.47-3.1,.47-1.49,0-2.77-.25-3.85-.76-1.08-.5-1.97-1.19-2.66-2.07-.7-.88-1.21-1.91-1.55-3.1s-.5-2.47-.5-3.83,.2-2.65,.59-3.85c.4-1.2,.96-2.25,1.69-3.15,.73-.9,1.62-1.61,2.68-2.12,1.06-.52,2.26-.77,3.6-.77,2.57,0,4.58,.88,6.05,2.65,1.46,1.76,2.18,4.33,2.16,7.69h-14.47Zm12.17-1.8c0-.91-.13-1.77-.38-2.57-.25-.8-.62-1.5-1.12-2.09-.49-.59-1.11-1.06-1.85-1.4-.74-.35-1.6-.52-2.56-.52s-1.81,.18-2.54,.54c-.73,.36-1.36,.84-1.87,1.44-.52,.6-.93,1.3-1.24,2.09-.31,.79-.52,1.63-.61,2.52h12.17Z"/>
            </g>
            <g>
              <path class="cls-5" d="M360.21,684.71c-.5-2.21-1.44-3.78-2.81-4.72-1.37-.94-3.16-1.4-5.36-1.4-1.56,0-2.9,.31-4.03,.94-1.13,.62-2.06,1.46-2.79,2.52-.73,1.06-1.27,2.27-1.62,3.65-.35,1.38-.52,2.84-.52,4.37,0,1.44,.15,2.86,.45,4.25,.3,1.39,.8,2.63,1.49,3.73,.7,1.09,1.63,1.97,2.81,2.65,1.18,.67,2.65,1.01,4.43,1.01,1.1,0,2.11-.18,3.02-.54,.91-.36,1.71-.86,2.39-1.49,.68-.64,1.26-1.39,1.73-2.25,.47-.86,.82-1.81,1.06-2.84h2.56c-.29,1.25-.71,2.43-1.26,3.55-.55,1.12-1.28,2.09-2.18,2.93-.9,.84-1.99,1.51-3.28,2-1.28,.49-2.79,.74-4.52,.74-1.99,0-3.7-.37-5.11-1.1-1.42-.73-2.57-1.72-3.47-2.97-.9-1.25-1.55-2.69-1.96-4.34-.41-1.64-.61-3.39-.61-5.24,0-2.47,.31-4.57,.92-6.3s1.46-3.14,2.54-4.23c1.08-1.09,2.35-1.88,3.82-2.38,1.46-.49,3.06-.74,4.79-.74,1.32,0,2.55,.17,3.69,.52,1.14,.35,2.15,.87,3.02,1.57,.88,.7,1.6,1.55,2.16,2.57,.56,1.02,.95,2.2,1.17,3.55h-2.52Z"/>
              <path class="cls-5" d="M389.88,677.19h18.86v2.09h-8.21v23.83h-2.45v-23.83h-8.21v-2.09Z"/>
              <path class="cls-5" d="M436.53,703.11v-25.92h3.74l8.5,22.86h.07l8.35-22.86h3.71v25.92h-2.45v-23.11h-.07l-8.5,23.11h-2.3l-8.53-23.11h-.07v23.11h-2.45Z"/>
            </g>
          </g>
          <circle id="me" class="cls-6" cx="400" cy="500.26" r="76.73"/>
          <g id="sphereFrontAndPojector">
            <path id="sphereFront" class="cls-4" d="M400,175.26c-179.19,0-325,145.82-325,325.02s145.81,324.98,325,324.98,325-145.78,325-324.98S579.19,175.26,400,175.26Zm146.03,523.64c-65.46,0-116.31-42.11-145.79-100.52-1.92-3.58-3.64-7.15-5.17-10.73-12.06-26.82-18.57-56.82-18.57-87.21s6.32-59,17.61-85.42c2.68-6.36,5.74-12.51,9-18.47h.19c30.24-55.23,79.56-94.56,142.73-94.56,87.66,0,153.34,95.95,153.34,198.46s-72.76,198.46-153.34,198.46Z"/>
            <g id="pojects">
              <path id="sphereProjector" class="cls-8" d="M614.61,893.14c-101.38,0-180.12-84.88-225.77-202.6-2.97-7.21-5.63-14.41-8-21.62-18.67-54.05-28.75-114.51-28.75-175.78s9.78-118.92,27.27-172.17c4.15-12.81,8.89-25.22,13.93-37.23h.3c46.84-111.31,123.22-190.59,221.03-190.59,135.76,0,237.47,193.4,237.47,400s-112.68,400-237.47,400Z"/>
              <path id="bigsphereProjector" class="cls-1" d="M609.13,1000c-162.2,0-288.2-106.1-361.24-253.25-4.75-9.01-9.01-18.02-12.81-27.03-29.88-67.57-46-143.14-46-219.72s15.65-148.65,43.63-215.22c6.64-16.01,14.23-31.53,22.29-46.54h.47C330.41,99.1,452.63,0,609.13,0c217.21,0,379.95,241.75,379.95,500s-180.29,500-379.95,500Z"/>
            </g>
          </g>
          <g id="sphereDefuse">
            <circle class="cls-7" cx="400" cy="500.26" r="324.5"/>
          </g>
        </g>
      </g>
    </g>
  </g>
</svg>