<?xml version="1.0" encoding="UTF-8"?>
<svg xmlns="http://www.w3.org/2000/svg" xmlns:xlink="http://www.w3.org/1999/xlink" viewBox="0 0 2000 938">
  <defs>
    <style>
      .cls-1 {
        fill: url(#radial-gradient-3);
      }

      .cls-2 {
        fill: url(#radial-gradient-4);
      }

      .cls-3 {
        fill: #fff;
      }

      .cls-4 {
        fill: #5600ff;
      }

      .cls-5 {
        fill: url(#radial-gradient);
      }

      .cls-6 {
        fill: url(#radial-gradient-2);
        fill-opacity: .32;
      }
    </style>
    <radialGradient id="radial-gradient" cx="999.76" cy="312.47" fx="999.76" fy="312.47" r="200" gradientTransform="matrix(1, 0, 0, 1, 0, 0)" gradientUnits="userSpaceOnUse">
      <stop offset="0" stop-color="#fff"/>
      <stop offset="0" stop-color="#fdfeff"/>
      <stop offset=".4" stop-color="#aae7ff"/>
      <stop offset=".58" stop-color="#8adfff"/>
      <stop offset=".63" stop-color="#7ec6ff"/>
      <stop offset=".7" stop-color="#6ca2ff"/>
      <stop offset=".77" stop-color="#618dff"/>
      <stop offset=".81" stop-color="#5e85ff"/>
      <stop offset=".83" stop-color="#5c70ff"/>
      <stop offset=".86" stop-color="#5a48ff"/>
      <stop offset=".9" stop-color="#5828ff"/>
      <stop offset=".94" stop-color="#5712ff"/>
      <stop offset=".97" stop-color="#5604ff"/>
      <stop offset="1" stop-color="#5600ff"/>
    </radialGradient>
    <radialGradient id="radial-gradient-2" cx="1068.12" cy="312.56" fx="960.39" fy="312.56" r="169.86" gradientTransform="matrix(1, 0, 0, 1, 0, 0)" gradientUnits="userSpaceOnUse">
      <stop offset="0" stop-color="#fff"/>
      <stop offset=".02" stop-color="#faf8ff"/>
      <stop offset=".51" stop-color="#a374ff"/>
      <stop offset=".85" stop-color="#6b20ff"/>
      <stop offset="1" stop-color="#5600ff"/>
    </radialGradient>
    <radialGradient id="radial-gradient-3" cx="1001.25" cy="310.85" fx="1001.25" fy="310.85" r="98.46" gradientTransform="matrix(1, 0, 0, 1, 0, 0)" gradientUnits="userSpaceOnUse">
      <stop offset="0" stop-color="#fff"/>
      <stop offset=".26" stop-color="#eefaff"/>
      <stop offset=".61" stop-color="#aae7ff"/>
      <stop offset=".8" stop-color="#8adfff"/>
      <stop offset=".81" stop-color="#7ec6ff"/>
      <stop offset=".84" stop-color="#6ca2ff"/>
      <stop offset=".86" stop-color="#618dff"/>
      <stop offset=".87" stop-color="#5e85ff"/>
      <stop offset=".88" stop-color="#5c7aff"/>
      <stop offset=".9" stop-color="#5a64ff"/>
      <stop offset=".92" stop-color="#5856ff"/>
      <stop offset=".93" stop-color="#5852ff"/>
      <stop offset=".94" stop-color="#573cff"/>
      <stop offset=".96" stop-color="#5622ff"/>
      <stop offset=".97" stop-color="#560fff"/>
      <stop offset=".98" stop-color="#5603ff"/>
      <stop offset="1" stop-color="#5600ff"/>
    </radialGradient>
    <radialGradient id="radial-gradient-4" cx="1061.19" cy="312.5" fx="1061.19" fy="312.5" r="96.67" gradientTransform="translate(0 -75.75) scale(1 1.24)" gradientUnits="userSpaceOnUse">
      <stop offset="0" stop-color="#fff"/>
      <stop offset=".66" stop-color="#8adfff"/>
      <stop offset=".67" stop-color="#7ec6ff"/>
      <stop offset=".69" stop-color="#6ca2ff"/>
      <stop offset=".71" stop-color="#618dff"/>
      <stop offset=".73" stop-color="#5e85ff"/>
      <stop offset=".74" stop-color="#5c7aff"/>
      <stop offset=".79" stop-color="#5a64ff"/>
      <stop offset=".83" stop-color="#5856ff"/>
      <stop offset=".87" stop-color="#5852ff"/>
      <stop offset=".89" stop-color="#573cff"/>
      <stop offset=".91" stop-color="#5622ff"/>
      <stop offset=".94" stop-color="#560fff"/>
      <stop offset=".97" stop-color="#5603ff"/>
      <stop offset="1" stop-color="#5600ff"/>
    </radialGradient>
  </defs>
  <g id="Layer_1" data-name="Layer 1">
    <g id="Posters"/>
    <g id="Poster"/>
    <g id="Poster-2" data-name="Poster"/>
  </g>
  <g id="source">
    <g id="logoFlat"/>
  </g>
  <g id="Loader">
    <rect id="bg" x="-.24" y=".31" width="2000" height="937.69"/>
    <g id="logo2">
      <g>
        <circle cx="999.76" cy="312.47" r="200"/>
        <path class="cls-5" d="M999.76,151.42c43.02,0,83.46,16.75,113.88,47.17,30.42,30.42,47.17,70.86,47.17,113.88s-16.75,83.46-47.17,113.88c-30.42,30.42-70.86,47.17-113.88,47.17s-83.46-16.75-113.88-47.17c-30.42-30.42-47.17-70.86-47.17-113.88s16.75-83.46,47.17-113.88c30.42-30.42,70.86-47.17,113.88-47.17m0-38.95c-110.46,0-200,89.54-200,200s89.54,200,200,200,200-89.54,200-200-89.54-200-200-200h0Z"/>
      </g>
      <path class="cls-6" d="M1143.5,312.56c0,47.87-33.98,92.67-71.61,92.67-30.57,0-54.32-19.67-68.08-46.94-.89-1.67-1.7-3.34-2.41-5.01-5.63-12.52-8.67-26.53-8.67-40.72s2.95-27.55,8.22-39.89c1.25-2.97,2.68-5.84,4.2-8.63h.09c14.12-25.79,37.16-44.16,66.65-44.16,40.94,0,71.61,44.81,71.61,92.67Z"/>
      <path class="cls-1" d="M1049.38,310.69c0,27.36-22.2,49.56-49.56,49.56-.49,0-.97,0-1.46-.1-.97-1.75-1.85-3.5-2.63-5.26-6.13-13.14-9.44-27.85-9.44-42.74s3.21-28.92,8.96-41.87c1.36-3.12,2.92-6.13,4.58-9.05h.1c27.36,.1,49.46,22.1,49.46,49.46Z"/>
      <path class="cls-2" d="M1094.73,213.83c-18.94-8.66-41.34-7.68-60.28,.68-19.02,8.18-34.08,23.4-45.34,40.42l-.4,.42c-8.28,13-13.14,27.9-14.82,43.24-4.72,45.02,19.98,94.88,62.7,112.74,64.4,26.28,112.96-40.5,112.48-99.36-.24-38.64-17.96-80.62-54.34-98.14Zm-50.78,181.04c-21.74-11.1-36-34.1-42.16-57.34-5.52-21.52-2.6-44.2,5.38-64.78,.42-1.12,.88-2.22,1.34-3.3,6.78-16.4,17.76-31.54,33.2-40.14,55.86-29.6,99,30.72,98.02,82.66,.48,48.82-42.62,109.86-95.78,82.9Z"/>
    </g>
    <rect id="r1" x="748.56" y="-518.17" width="529.56" height="529.56"/>
    <rect id="r2" x="744.44" y="34.44" width="529.56" height="529.56"/>
    <g id="name">
      <path class="cls-4" d="M692.9,704.43c-1.49-3.41-8.21-9.59-20.57-9.59-10.34,0-19.51,3.2-27.83,9.49-10.13,7.57-17.91,21-18.34,34.75-.43,15.56,8.96,23.88,25.37,23.88,12.15,0,23.13-4.48,30.7-10.77l-1.07,3.62c-5.65,5.44-17.69,11.62-32.83,11.73-21.11,.11-33.15-9.81-32.62-28.14,.43-16.31,9.59-30.17,21.96-38.8,9.7-6.93,20.36-10.45,33.58-10.45,14.28,0,22.71,6.72,23.45,12.05l-1.81,2.24Z"/>
      <path class="cls-4" d="M710.81,757.51c0,2.67,1.49,4.05,4.8,4.05,3.84,0,7.36-2.13,10.66-4.8l-.75,2.35c-2.45,2.67-7.68,7.04-14.28,7.04-5.33,0-8.53-2.35-8.53-7.36s2.56-9.38,6.5-15.35c2.56-3.73,6.82-8.63,7.46-10.55,0-1.17-.32-1.71-2.03-1.71l-13.43,.21c-.43,.32-5.01,5.97-7.36,8.96-2.56,3.52-5.01,7.04-6.29,8.85l-1.39-.64c-.43-1.17,.75-3.09,2.13-5.12,2.56-4.05,8.74-13.22,11.73-17.27,2.77-3.94,4.26-4.58,8.1-4.37,2.77,.11,2.35,1.6-.43,4.48-.53,.64-1.6,1.81-2.24,2.45l15.88-.43c2.45,0,4.05,1.81,4.05,3.84-.64,2.88-5.33,8.31-8.53,13-3.31,4.9-6.08,9.17-6.08,12.37Z"/>
      <path class="cls-4" d="M718.8,788.75l.21-2.67c2.56,2.13,5.44,3.84,12.15,3.84,7.67,0,15.56-3.95,23.03-16.2,2.88-4.58,5.65-9.7,8.63-15.56-5.33,4.48-12.58,8-20.15,8s-10.55-4.48-10.55-9.06c0-3.73,1.6-8.42,5.01-13.75,3.94-6.5,9.92-13.11,12.9-15.03h6.4l.75,.96c-3.73,4.26-7.78,9.06-12.69,17.38-2.56,4.37-3.94,8-3.94,10.87s1.92,4.9,6.18,4.9c5.01,0,12.15-2.77,18.23-8.31,1.39-2.67,2.77-5.22,4.37-8,4.05-7.04,9.06-14.18,13.22-17.8h6.71l.64,.96c-3.09,3.52-7.04,9.59-11.19,16.84-4.16,7.14-9.49,18.02-15.14,27.72-9.06,15.24-19.51,19.93-30.17,19.93-8.21,0-12.47-2.66-14.61-5.01Z"/>
      <path class="cls-4" d="M797.25,743.12c5.01-7.46,9.6-12.79,12.58-14.82h6.08l.64,1.07c-1.39,1.6-3.84,4.37-5.33,6.61l.21,.21c6.18-5.44,13.65-8.74,20.36-8.74s11.51,3.2,11.51,10.13c0,7.36-3.94,14.5-9.27,19.83-6.18,6.08-13.54,9.27-22.17,9.17-8.21,0-12.79-3.41-13.96-8.32-3.2,5.65-5.97,10.45-8.32,16.1-3.41,8.21-5.65,14.71-6.18,19.3-3.73-.43-5.76-2.35-5.65-6.5,0-4.69,2.77-12.9,6.4-20.57,4.58-9.92,9.38-17.91,13.11-23.45Zm1.81,12.9c1.39,5.65,5.86,7.78,10.88,7.78,7.04,0,12.69-3.84,17.27-9.49,4.05-5.12,6.72-11.09,6.72-16.2,0-4.48-2.88-6.82-7.14-6.82-5.01,0-11.94,3.41-17.8,8.53-3.2,4.58-6.93,10.55-9.92,16.2Z"/>
      <path class="cls-4" d="M851.83,755.91c0-8,4.26-16.52,9.91-24.73-4.8-.64-5.76-1.07-5.44-2.13,.32-.85,2.24-1.17,8-1.39,4.37-5.86,9.17-11.19,13.11-15.03h6.61l.53,.85c-3.2,3.84-6.72,8.31-11.41,14.71l15.14,.21-1.92,2.56-15.35,.32c-5.33,7.46-11.73,17.38-11.73,24.52,0,3.62,2.13,5.86,7.14,5.86,4.37,0,8.64-2.03,12.15-5.01l-.85,2.45c-3.52,3.95-7.68,7.14-15.35,7.14-4.69,0-10.55-2.13-10.55-10.34Z"/>
      <path class="cls-4" d="M884.23,752.4c0-6.72,3.63-13.65,9.49-18.34,5.44-4.48,12.58-7.46,20.36-7.46,9.7,0,14.92,5.76,14.92,12.9,0,6.18-2.66,12.26-6.93,17.06-5.44,6.29-13.32,10.02-21.85,10.02-9.06,0-15.99-4.26-15.99-14.18Zm31.13-22.92c-5.12,0-11.41,3.41-15.99,9.17-3.84,4.8-6.18,10.45-6.18,15.67,0,5.97,3.52,9.27,9.28,9.27,5.44,0,10.98-3.52,14.82-8.1,4.26-5.01,7.04-11.62,7.04-16.95,0-5.65-3.09-9.06-8.96-9.06Z"/>
      <path class="cls-4" d="M1059.16,755.59c-.21-8.53,3.62-16.63,9.7-26.01,8-12.58,16.52-22.81,25.05-30.28l-.43-.32c-3.73,1.49-8.85,5.12-15.46,11.62-9.38,9.27-17.91,20.57-22.17,25.91-15.88,19.4-25.37,30.06-33.9,30.06-5.01,0-6.4-5.22-5.44-12.9,.96-7.89,4.05-17.59,8.21-27.61,2.98-7.14,7.46-15.57,12.15-23.24l-.32-.21c-5.86,4.37-15.56,18.34-27.18,34.86-10.66,15.14-23.24,32.09-39.02,32.09-8.74,0-12.26-5.76-11.51-11.83l.64-.32c2.13,4.26,6.61,5.97,11.19,5.97,11.19,0,22.71-10.23,37.1-30.06,14.18-19.19,23.24-31.66,30.7-36.67-6.72-.11-20.89-2.45-32.3-2.45-19.61,0-29.21,6.08-29.21,18.34,0,9.17,6.5,14.29,18.34,14.92l-.43,.85c-2.02,.53-4.05,.64-5.97,.64-10.55,0-18.87-5.97-18.87-16.31,0-14.07,12.47-22.17,33.58-22.17,15.35,0,32.3,3.84,46.59,4.37l.32,.64c-3.84,2.77-9.38,13.65-13.97,23.67-4.58,10.02-8.74,22.07-10.55,30.49-1.49,6.5-1.92,10.98,.43,10.98,4.8,0,15.67-12.79,26.86-26.54,7.78-9.59,15.35-18.98,24.41-27.4,10.13-9.49,18.98-14.18,26.01-14.18,2.56,0,4.9,.53,6.08,1.39l-.32,.75c-2.99,.96-6.5,3.62-10.23,7.57-7.25,7.36-15.24,18.02-22.39,29.74-5.01,8.21-9.49,16.2-9.49,23.24,0,4.37,2.88,6.5,7.57,6.5s8.1-1.71,11.94-4.9l-.64,2.56c-3.62,3.94-8.64,7.35-15.99,7.35-5.22,0-10.87-2.56-11.09-11.09Z"/>
      <path class="cls-4" d="M1105.73,766.58c-10.23,0-16.2-3.94-16.2-13.22,0-7.78,4.58-15.24,11.09-20.04,5.86-4.48,13.22-6.72,19.72-6.72,6.82,0,12.05,2.56,12.05,8.85-.11,6.61-7.57,11.41-15.03,13.22-6.5,1.6-13.11,1.71-18.23,1.28-.32,.75-.43,2.56-.43,3.31,0,6.72,3.73,9.59,10.55,9.59s12.9-2.66,17.91-6.82l-.53,2.45c-4.37,4.16-11.73,8.1-20.89,8.1Zm-6.18-18.66c4.26,.53,10.23,.21,15.78-1.28,6.4-1.81,11.83-5.76,12.05-10.87,.21-3.84-2.13-6.18-6.61-6.18-4.05,0-8.63,2.03-11.94,4.69-4.69,3.73-8,8.96-9.27,13.65Z"/>
      <path class="cls-4" d="M1151.78,766.58c-10.23,0-16.2-3.94-16.2-13.22,0-7.78,4.58-15.24,11.09-20.04,5.86-4.48,13.22-6.72,19.72-6.72,6.82,0,12.05,2.56,12.05,8.85-.11,6.61-7.57,11.41-15.03,13.22-6.5,1.6-13.11,1.71-18.23,1.28-.32,.75-.43,2.56-.43,3.31,0,6.72,3.73,9.59,10.55,9.59s12.9-2.66,17.91-6.82l-.53,2.45c-4.37,4.16-11.73,8.1-20.89,8.1Zm-6.18-18.66c4.26,.53,10.23,.21,15.78-1.28,6.4-1.81,11.83-5.76,12.05-10.87,.21-3.84-2.13-6.18-6.61-6.18-4.05,0-8.64,2.03-11.94,4.69-4.69,3.73-8,8.96-9.27,13.65Z"/>
      <path class="cls-4" d="M1184.82,755.91c0-8,4.26-16.52,9.91-24.73-4.8-.64-5.76-1.07-5.44-2.13,.32-.85,2.24-1.17,8-1.39,4.37-5.86,9.17-11.19,13.11-15.03h6.61l.53,.85c-3.2,3.84-6.72,8.31-11.41,14.71l15.14,.21-1.92,2.56-15.35,.32c-5.33,7.46-11.73,17.38-11.73,24.52,0,3.62,2.13,5.86,7.14,5.86,4.37,0,8.64-2.03,12.15-5.01l-.85,2.45c-3.52,3.95-7.68,7.14-15.35,7.14-4.69,0-10.55-2.13-10.55-10.34Z"/>
      <path class="cls-3" d="M1342.48,755.59c-.21-8.53,3.62-16.63,9.7-26.01,8-12.58,16.52-22.81,25.05-30.28l-.43-.32c-3.73,1.49-8.85,5.12-15.46,11.62-9.38,9.27-17.91,20.57-22.17,25.91-15.88,19.4-25.37,30.06-33.9,30.06-5.01,0-6.4-5.22-5.44-12.9,.96-7.89,4.05-17.59,8.21-27.61,2.99-7.14,7.46-15.57,12.15-23.24l-.32-.21c-5.86,4.37-15.57,18.34-27.18,34.86-10.66,15.14-23.24,32.09-39.02,32.09-8.74,0-12.26-5.76-11.51-11.83l.64-.32c2.13,4.26,6.61,5.97,11.19,5.97,11.19,0,22.71-10.23,37.1-30.06,14.18-19.19,23.24-31.66,30.7-36.67-6.72-.11-20.89-2.45-32.3-2.45-19.62,0-29.21,6.08-29.21,18.34,0,9.17,6.5,14.29,18.34,14.92l-.43,.85c-2.03,.53-4.05,.64-5.97,.64-10.55,0-18.87-5.97-18.87-16.31,0-14.07,12.47-22.17,33.58-22.17,15.35,0,32.3,3.84,46.59,4.37l.32,.64c-3.84,2.77-9.38,13.65-13.96,23.67-4.58,10.02-8.74,22.07-10.55,30.49-1.49,6.5-1.92,10.98,.43,10.98,4.8,0,15.67-12.79,26.86-26.54,7.78-9.59,15.35-18.98,24.41-27.4,10.13-9.49,18.98-14.18,26.01-14.18,2.56,0,4.9,.53,6.08,1.39l-.32,.75c-2.98,.96-6.5,3.62-10.23,7.57-7.25,7.36-15.24,18.02-22.39,29.74-5.01,8.21-9.49,16.2-9.49,23.24,0,4.37,2.88,6.5,7.57,6.5s8.1-1.71,11.94-4.9l-.64,2.56c-3.62,3.94-8.63,7.35-15.99,7.35-5.22,0-10.88-2.56-11.09-11.09Z"/>
      <path class="cls-3" d="M1389.06,766.58c-10.23,0-16.2-3.94-16.2-13.22,0-7.78,4.58-15.24,11.09-20.04,5.86-4.48,13.22-6.72,19.72-6.72,6.82,0,12.05,2.56,12.05,8.85-.11,6.61-7.57,11.41-15.03,13.22-6.5,1.6-13.11,1.71-18.23,1.28-.32,.75-.43,2.56-.43,3.31,0,6.72,3.73,9.59,10.55,9.59s12.9-2.66,17.91-6.82l-.53,2.45c-4.37,4.16-11.73,8.1-20.89,8.1Zm-6.18-18.66c4.26,.53,10.23,.21,15.78-1.28,6.4-1.81,11.83-5.76,12.05-10.87,.21-3.84-2.13-6.18-6.61-6.18-4.05,0-8.64,2.03-11.94,4.69-4.69,3.73-8,8.96-9.28,13.65Z"/>
    </g>
    <rect id="nameCover" x="569" y="636.38" width="880" height="194.62"/>
  </g>

  <!-- <animate 
           xlink:href="#r1"
           attributeName="y" 
           from="-510"
           to="50" 
           dur="0.8s"
           begin="0.5s"
           repeatCount="1"
           fill="freeze" 
           id="r1move"/> -->

 <!-- <animate 
           xlink:href="#r2"
           attributeName="y" 
           from="34.13"
           to="594" 
           dur="0.8s"
           begin="r1move.begin"
           repeatCount="1"
           fill="freeze" 
           id="r2move"/> -->

            <animate 
           xlink:href="#nameCover"
           attributeName="y" 
           from="636"
           to="830" 
           dur="0.5s"
           begin="0.2"
           repeatCount="1"
           fill="freeze" 
           id="covermove"/>

      
             <animate 
           xlink:href="#r2"
           attributeName="opacity" 
           from="1"
           to="0" 
           dur="1s"
           begin="covermove.end + 0.05s"
           repeatCount="1"
           fill="freeze" 
           id="reveal"/>
</svg>