<?xml version="1.0" encoding="UTF-8"?>
<svg xmlns="http://www.w3.org/2000/svg" xmlns:xlink="http://www.w3.org/1999/xlink" viewBox="0 0 1912.5 1912">
  <defs>
    <style>
      .cls-1, .cls-2, .cls-3, .cls-4, .cls-5, .cls-6, .cls-7, .cls-8, .cls-9 {
        stroke-miterlimit: 10;
      }

      .cls-1, .cls-2, .cls-3, .cls-4, .cls-6, .cls-7 {
        fill: none;
        stroke: #7833ff;
      }

      .cls-1, .cls-2, .cls-7 {
        fill-rule: evenodd;
      }

      .cls-1, .cls-6 {
        stroke-width: 2px;
      }

      .cls-10 {
        fill: url(#radial-gradient-5);
        opacity: .77;
      }

      .cls-11 {
        fill: url(#radial-gradient-2);
      }

      .cls-12 {
        fill: #7833ff;
      }

      .cls-2 {
        stroke-width: 2.4px;
      }

      .cls-3, .cls-7 {
        stroke-width: 1.69px;
      }

      .cls-13 {
        fill: url(#radial-gradient);
      }

      .cls-14 {
        fill: url(#linear-gradient);
      }

      .cls-15 {
        fill: url(#radial-gradient-6);
        mix-blend-mode: lighten;
        opacity: .78;
      }

      .cls-4 {
        stroke-width: 4.08px;
      }

      .cls-5 {
        fill: url(#radial-gradient-3);
        opacity: .85;
        stroke: #b3b3b3;
        stroke-width: 1.52px;
      }

      .cls-8 {
        fill: #090000;
        stroke: url(#logoFLatGrad);
        stroke-opacity: .08;
        stroke-width: 3.06px;
      }

      .cls-16 {
        fill: url(#radial-gradient-4);
        fill-opacity: .78;
        opacity: .07;
      }

      .cls-9 {
        fill: #ccc;
        stroke: #662d91;
        stroke-width: .76px;
      }

      .cls-17 {
        isolation: isolate;
      }
    </style>
    <linearGradient id="linear-gradient" x1="950.78" y1="147.78" x2="963.72" y2="2059.74" gradientTransform="matrix(1, 0, 0, 1, 0, 0)" gradientUnits="userSpaceOnUse">
      <stop offset="0" stop-color="#000"/>
      <stop offset=".24" stop-color="#020003"/>
      <stop offset=".44" stop-color="#0b000c"/>
      <stop offset=".61" stop-color="#1a001d"/>
      <stop offset=".78" stop-color="#2e0035"/>
      <stop offset=".93" stop-color="#490053"/>
      <stop offset="1" stop-color="#570063"/>
    </linearGradient>
    <radialGradient id="radial-gradient" cx="968.43" cy="765.04" fx="968.43" fy="765.04" r="492.12" gradientTransform="matrix(1, 0, 0, 1, 0, 0)" gradientUnits="userSpaceOnUse">
      <stop offset="0" stop-color="#fff"/>
      <stop offset=".15" stop-color="#a78fb0"/>
      <stop offset=".36" stop-color="#825f8f"/>
      <stop offset=".52" stop-color="#694079"/>
      <stop offset=".67" stop-color="#562768"/>
      <stop offset="1" stop-color="#110017"/>
    </radialGradient>
    <radialGradient id="radial-gradient-2" cx="968.43" cy="765.04" fx="968.43" fy="765.04" r="606.62" gradientTransform="matrix(1, 0, 0, 1, 0, 0)" gradientUnits="userSpaceOnUse">
      <stop offset="0" stop-color="#fff"/>
      <stop offset=".24" stop-color="#d6c2da" stop-opacity=".76"/>
      <stop offset=".72" stop-color="#894d95" stop-opacity=".31"/>
      <stop offset=".93" stop-color="#6b1f7a" stop-opacity=".12"/>
      <stop offset="1" stop-color="#560067" stop-opacity="0"/>
    </radialGradient>
    <radialGradient id="radial-gradient-3" cx="968.43" cy="765.04" fx="968.43" fy="765.04" r="116.36" gradientTransform="matrix(1, 0, 0, 1, 0, 0)" gradientUnits="userSpaceOnUse">
      <stop offset=".34" stop-color="#adadad"/>
      <stop offset=".6" stop-color="#aeadaf" stop-opacity=".99"/>
      <stop offset=".75" stop-color="#b4adb9" stop-opacity=".94"/>
      <stop offset=".87" stop-color="#bdadc9" stop-opacity=".85"/>
      <stop offset=".97" stop-color="#caaedf" stop-opacity=".74"/>
      <stop offset="1" stop-color="#cfafe7" stop-opacity=".7"/>
    </radialGradient>
    <radialGradient id="logoFLatGrad" cx="968.43" cy="764.88" fx="968.43" fy="764.88" r="494.4" gradientTransform="translate(0 .12)" gradientUnits="userSpaceOnUse">
      <stop offset="0" stop-color="#fff"/>
      <stop offset="0" stop-color="#fdfeff"/>
      <stop offset=".2" stop-color="#aae7ff"/>
      <stop offset=".28" stop-color="#8adfff"/>
      <stop offset=".37" stop-color="#7ec6ff"/>
      <stop offset=".52" stop-color="#6ca2ff"/>
      <stop offset=".65" stop-color="#618dff"/>
      <stop offset=".73" stop-color="#5e85ff"/>
      <stop offset=".74" stop-color="#5c7aff"/>
      <stop offset=".79" stop-color="#5a64ff"/>
      <stop offset=".83" stop-color="#5856ff"/>
      <stop offset=".87" stop-color="#5852ff"/>
      <stop offset=".89" stop-color="#573cff"/>
      <stop offset=".91" stop-color="#5622ff"/>
      <stop offset=".94" stop-color="#560fff"/>
      <stop offset=".97" stop-color="#5603ff"/>
      <stop offset="1" stop-color="#5600ff"/>
    </radialGradient>
    <radialGradient id="radial-gradient-4" cx="1200.22" cy="125.21" fx="1200.22" fy="125.21" r="848.79" gradientTransform="translate(0 637.09)" gradientUnits="userSpaceOnUse">
      <stop offset="0" stop-color="#fff" stop-opacity=".5"/>
      <stop offset=".06" stop-color="#f0e7ff" stop-opacity=".38"/>
      <stop offset=".12" stop-color="#e2d2ff" stop-opacity=".26"/>
      <stop offset=".19" stop-color="#d6c0ff" stop-opacity=".16"/>
      <stop offset=".28" stop-color="#cdb2ff" stop-opacity=".09"/>
      <stop offset=".37" stop-color="#c7a9ff" stop-opacity=".04"/>
      <stop offset=".49" stop-color="#c4a3ff" stop-opacity="0"/>
      <stop offset=".74" stop-color="#c3a2ff" stop-opacity="0"/>
    </radialGradient>
    <radialGradient id="radial-gradient-5" cx="53.59" cy="153.32" fx="496.92" fy="153.32" r="1244.93" gradientTransform="translate(947.58 602.64) scale(1.28)" gradientUnits="userSpaceOnUse">
      <stop offset=".08" stop-color="#fff" stop-opacity=".12"/>
      <stop offset=".13" stop-color="#ebe0ff" stop-opacity=".08"/>
      <stop offset=".23" stop-color="#d3bcff" stop-opacity=".03"/>
      <stop offset=".36" stop-color="#c6a7ff" stop-opacity="0"/>
      <stop offset=".73" stop-color="#c3a2ff" stop-opacity="0"/>
    </radialGradient>
    <radialGradient id="radial-gradient-6" cx="968.43" cy="1046.92" fx="968.43" fy="1046.92" r="750.18" gradientTransform="matrix(1, 0, 0, 1, 0, 0)" gradientUnits="userSpaceOnUse">
      <stop offset="0" stop-color="#56004d" stop-opacity=".9"/>
      <stop offset=".18" stop-color="#4f0047" stop-opacity=".89"/>
      <stop offset=".42" stop-color="#3d0036" stop-opacity=".87"/>
      <stop offset=".7" stop-color="#1f001b" stop-opacity=".84"/>
      <stop offset=".92" stop-color="#000" stop-opacity=".8"/>
    </radialGradient>
  </defs>
  <g class="cls-17">
    <g id="Layer_1" data-name="Layer 1"/>
    <g id="Layer_2" data-name="Layer 2">
      <g id="posterDes2">
        <!-- <rect class="cls-14" width="1912.5" height="1912"/> -->
        <g id="sphere">
          <circle id="innerSphere" class="cls-13" cx="968.43" cy="765.04" r="492.12"/>
          <path id="sphereWrap" class="cls-11" d="M968.43,276.55c269.36,0,488.49,219.14,488.49,488.49s-219.14,488.49-488.49,488.49-488.49-219.14-488.49-488.49,219.14-488.49,488.49-488.49m0-118.13c-335.03,0-606.62,271.59-606.62,606.62s271.59,606.62,606.62,606.62,606.62-271.59,606.62-606.62S1303.46,158.42,968.43,158.42h0Z"/>
          <g id="textObj">
            <g>
              <path class="cls-9" d="M732.56,545.83c-.76-3.35-2.18-5.73-4.26-7.15-2.07-1.42-4.79-2.13-8.13-2.13-2.37,0-4.4,.47-6.12,1.42-1.71,.95-3.12,2.22-4.23,3.82-1.11,1.6-1.93,3.45-2.46,5.54-.53,2.09-.79,4.3-.79,6.63,0,2.18,.23,4.33,.68,6.44,.45,2.11,1.21,4,2.27,5.65,1.06,1.66,2.47,2.99,4.26,4.01,1.78,1.02,4.02,1.53,6.71,1.53,1.67,0,3.2-.27,4.59-.82,1.38-.55,2.59-1.3,3.63-2.27,1.04-.96,1.91-2.1,2.62-3.41,.71-1.31,1.25-2.75,1.61-4.31h3.88c-.44,1.89-1.07,3.69-1.91,5.38-.84,1.69-1.94,3.18-3.3,4.45-1.36,1.27-3.02,2.28-4.97,3.03-1.95,.75-4.23,1.12-6.85,1.12-3.02,0-5.61-.56-7.75-1.66-2.15-1.11-3.9-2.61-5.27-4.5-1.36-1.89-2.36-4.09-2.98-6.58-.62-2.49-.93-5.14-.93-7.94,0-3.75,.46-6.93,1.39-9.55s2.21-4.76,3.85-6.41c1.64-1.66,3.57-2.86,5.79-3.6,2.22-.75,4.64-1.12,7.26-1.12,2,0,3.87,.26,5.6,.79,1.73,.53,3.26,1.32,4.59,2.38,1.33,1.06,2.42,2.36,3.28,3.9,.85,1.55,1.45,3.34,1.77,5.38h-3.82Z"/>
              <path class="cls-9" d="M757.95,573.73h-3.28v-28.28h3.28v5.3h.11c.91-2.26,2.08-3.83,3.52-4.72,1.44-.89,3.34-1.34,5.71-1.34v3.55c-1.86-.04-3.38,.26-4.59,.87-1.2,.62-2.16,1.46-2.87,2.51-.71,1.06-1.2,2.3-1.47,3.74-.27,1.44-.41,2.94-.41,4.5v13.87Z"/>
              <path class="cls-9" d="M784.37,581.38c.44,.07,.88,.14,1.34,.22,.45,.07,.92,.11,1.39,.11,.91,0,1.66-.29,2.24-.87,.58-.58,1.06-1.28,1.45-2.1,.38-.82,.7-1.67,.96-2.56,.25-.89,.55-1.64,.87-2.26l-10.97-28.46h3.66l9.06,24.29,9.06-24.29h3.55l-10.54,27.9c-.65,1.78-1.28,3.38-1.88,4.8s-1.24,2.63-1.91,3.63c-.67,1-1.42,1.76-2.24,2.29-.82,.53-1.79,.79-2.92,.79-.58,0-1.14-.04-1.67-.11-.53-.07-1.01-.16-1.45-.27v-3.11Z"/>
              <path class="cls-9" d="M826.47,584.87h-3.28v-39.42h3.28v4.97h.11c.47-.91,1.08-1.73,1.83-2.46,.74-.73,1.56-1.33,2.46-1.8,.89-.47,1.81-.84,2.76-1.09,.95-.25,1.87-.38,2.78-.38,2.29,0,4.24,.38,5.84,1.15,1.6,.76,2.92,1.81,3.96,3.14,1.04,1.33,1.79,2.9,2.27,4.72,.47,1.82,.71,3.77,.71,5.84,0,1.97-.25,3.86-.76,5.68-.51,1.82-1.28,3.41-2.32,4.78-1.04,1.36-2.35,2.46-3.93,3.28s-3.45,1.23-5.6,1.23c-2,0-3.92-.45-5.76-1.34-1.84-.89-3.29-2.21-4.34-3.96v15.67Zm0-25.17c0,1.6,.22,3.12,.66,4.56,.44,1.44,1.06,2.69,1.88,3.77,.82,1.07,1.82,1.93,3,2.57,1.18,.64,2.52,.96,4.01,.96,1.67,0,3.14-.34,4.39-1.01,1.26-.67,2.28-1.59,3.08-2.76,.8-1.16,1.38-2.52,1.75-4.07,.36-1.55,.51-3.21,.44-5,0-1.78-.25-3.36-.74-4.72-.49-1.36-1.17-2.52-2.05-3.47-.87-.95-1.89-1.67-3.06-2.16-1.17-.49-2.44-.74-3.82-.74-1.53,0-2.89,.31-4.09,.93-1.2,.62-2.2,1.47-3,2.54-.8,1.07-1.41,2.35-1.83,3.82-.42,1.47-.63,3.07-.63,4.78Z"/>
              <path class="cls-9" d="M877.02,573.84c-.4,.07-.93,.2-1.58,.38-.66,.18-1.38,.27-2.18,.27-1.64,0-2.89-.41-3.74-1.23s-1.28-2.28-1.28-4.39v-20.69h-3.99v-2.73h3.99v-7.86h3.28v7.86h5.3v2.73h-5.3v19.38c0,.69,.02,1.29,.05,1.8,.04,.51,.15,.93,.33,1.26s.46,.57,.85,.71c.38,.15,.92,.22,1.61,.22,.44,0,.88-.04,1.34-.11,.45-.07,.9-.16,1.34-.27v2.68Z"/>
              <path class="cls-9" d="M904.43,574.5c-1.82-.04-3.52-.36-5.1-.98-1.58-.62-2.97-1.55-4.15-2.78-1.18-1.24-2.12-2.78-2.81-4.64s-1.04-4.02-1.04-6.5c0-2.07,.27-4.01,.82-5.81,.55-1.8,1.36-3.38,2.46-4.72,1.09-1.35,2.46-2.41,4.09-3.19,1.64-.78,3.55-1.17,5.73-1.17s4.15,.39,5.79,1.17c1.64,.78,3,1.84,4.09,3.17,1.09,1.33,1.9,2.9,2.43,4.72,.53,1.82,.79,3.77,.79,5.84,0,2.26-.31,4.29-.93,6.11-.62,1.82-1.5,3.38-2.65,4.7s-2.53,2.32-4.15,3.03c-1.62,.71-3.41,1.06-5.38,1.06Zm9.61-14.9c0-1.67-.18-3.24-.55-4.7-.36-1.46-.93-2.72-1.69-3.79-.76-1.07-1.75-1.92-2.95-2.54-1.2-.62-2.67-.93-4.42-.93s-3.18,.34-4.39,1.01c-1.22,.67-2.21,1.57-2.98,2.68-.76,1.11-1.33,2.38-1.69,3.82-.36,1.44-.55,2.92-.55,4.45,0,1.75,.21,3.36,.63,4.83,.42,1.47,1.03,2.74,1.83,3.79,.8,1.06,1.8,1.87,3,2.46,1.2,.58,2.58,.87,4.15,.87,1.71,0,3.18-.34,4.39-1.01,1.22-.67,2.21-1.57,2.98-2.7,.76-1.13,1.33-2.4,1.69-3.82,.36-1.42,.55-2.89,.55-4.42Z"/>
              <path class="cls-9" d="M960.88,573.73v-39.31h5.68l12.88,34.67h.11l12.67-34.67h5.62v39.31h-3.71v-35.05h-.11l-12.88,35.05h-3.49l-12.94-35.05h-.11v35.05h-3.71Z"/>
              <path class="cls-9" d="M1018.97,560.36c0,1.53,.2,2.98,.6,4.34,.4,1.37,.99,2.55,1.77,3.55,.78,1,1.77,1.8,2.98,2.4s2.58,.9,4.15,.9c2.15,0,3.99-.56,5.51-1.69,1.53-1.13,2.55-2.73,3.06-4.8h3.66c-.4,1.35-.93,2.59-1.58,3.74-.65,1.15-1.47,2.15-2.46,3-.98,.86-2.15,1.52-3.49,1.99-1.35,.47-2.91,.71-4.69,.71-2.26,0-4.2-.38-5.84-1.15-1.64-.76-2.98-1.81-4.04-3.14-1.06-1.33-1.84-2.89-2.35-4.7s-.76-3.74-.76-5.81,.3-4.02,.9-5.84c.6-1.82,1.46-3.41,2.57-4.78,1.11-1.36,2.46-2.44,4.07-3.22,1.6-.78,3.42-1.17,5.46-1.17,3.89,0,6.95,1.34,9.17,4.01,2.22,2.68,3.31,6.56,3.28,11.66h-21.95Zm18.45-2.73c0-1.38-.19-2.68-.57-3.9-.38-1.22-.95-2.27-1.69-3.17-.75-.89-1.68-1.6-2.81-2.13-1.13-.53-2.42-.79-3.88-.79s-2.74,.27-3.85,.82c-1.11,.55-2.06,1.27-2.84,2.18-.78,.91-1.41,1.97-1.88,3.17-.47,1.2-.78,2.48-.93,3.82h18.45Z"/>
              <path class="cls-9" d="M1060.25,560.36c0,1.53,.2,2.98,.6,4.34,.4,1.37,.99,2.55,1.77,3.55,.78,1,1.77,1.8,2.98,2.4s2.58,.9,4.15,.9c2.15,0,3.99-.56,5.51-1.69,1.53-1.13,2.55-2.73,3.06-4.8h3.66c-.4,1.35-.93,2.59-1.58,3.74-.65,1.15-1.47,2.15-2.46,3-.98,.86-2.15,1.52-3.49,1.99-1.35,.47-2.91,.71-4.69,.71-2.26,0-4.2-.38-5.84-1.15-1.64-.76-2.98-1.81-4.04-3.14-1.06-1.33-1.84-2.89-2.35-4.7s-.76-3.74-.76-5.81,.3-4.02,.9-5.84c.6-1.82,1.46-3.41,2.57-4.78,1.11-1.36,2.46-2.44,4.07-3.22,1.6-.78,3.42-1.17,5.46-1.17,3.89,0,6.95,1.34,9.17,4.01,2.22,2.68,3.31,6.56,3.28,11.66h-21.95Zm18.45-2.73c0-1.38-.19-2.68-.57-3.9-.38-1.22-.95-2.27-1.69-3.17-.75-.89-1.68-1.6-2.81-2.13-1.13-.53-2.42-.79-3.88-.79s-2.74,.27-3.85,.82c-1.11,.55-2.06,1.27-2.84,2.18-.78,.91-1.41,1.97-1.88,3.17-.47,1.2-.78,2.48-.93,3.82h18.45Z"/>
              <path class="cls-9" d="M1109.44,573.84c-.4,.07-.93,.2-1.58,.38-.65,.18-1.38,.27-2.18,.27-1.64,0-2.89-.41-3.74-1.23-.86-.82-1.28-2.28-1.28-4.39v-20.69h-3.99v-2.73h3.99v-7.86h3.28v7.86h5.3v2.73h-5.3v19.38c0,.69,.02,1.29,.05,1.8,.04,.51,.15,.93,.33,1.26s.47,.57,.85,.71c.38,.15,.92,.22,1.61,.22,.44,0,.88-.04,1.34-.11,.45-.07,.9-.16,1.34-.27v2.68Z"/>
              <path class="cls-9" d="M1152.02,573.73v-39.31h5.68l12.88,34.67h.11l12.67-34.67h5.62v39.31h-3.71v-35.05h-.11l-12.88,35.05h-3.49l-12.94-35.05h-.11v35.05h-3.71Z"/>
              <path class="cls-9" d="M1210.11,560.36c0,1.53,.2,2.98,.6,4.34,.4,1.37,.99,2.55,1.77,3.55,.78,1,1.77,1.8,2.98,2.4s2.58,.9,4.15,.9c2.15,0,3.99-.56,5.51-1.69,1.53-1.13,2.55-2.73,3.06-4.8h3.66c-.4,1.35-.93,2.59-1.58,3.74-.65,1.15-1.47,2.15-2.46,3-.98,.86-2.15,1.52-3.49,1.99-1.35,.47-2.91,.71-4.69,.71-2.26,0-4.2-.38-5.84-1.15-1.64-.76-2.98-1.81-4.04-3.14-1.06-1.33-1.84-2.89-2.35-4.7s-.76-3.74-.76-5.81,.3-4.02,.9-5.84c.6-1.82,1.46-3.41,2.57-4.78,1.11-1.36,2.46-2.44,4.07-3.22,1.6-.78,3.42-1.17,5.46-1.17,3.89,0,6.95,1.34,9.17,4.01,2.22,2.68,3.31,6.56,3.28,11.66h-21.95Zm18.45-2.73c0-1.38-.19-2.68-.57-3.9-.38-1.22-.95-2.27-1.69-3.17-.75-.89-1.68-1.6-2.81-2.13-1.13-.53-2.42-.79-3.88-.79s-2.74,.27-3.85,.82c-1.11,.55-2.06,1.27-2.84,2.18-.78,.91-1.41,1.97-1.88,3.17-.47,1.2-.78,2.48-.93,3.82h18.45Z"/>
            </g>
            <g>
              <path class="cls-9" d="M908.09,1044.78c-.76-3.35-2.18-5.73-4.26-7.15-2.07-1.42-4.79-2.13-8.13-2.13-2.37,0-4.4,.47-6.12,1.42-1.71,.95-3.12,2.22-4.23,3.82-1.11,1.6-1.93,3.45-2.46,5.54-.53,2.09-.79,4.3-.79,6.63,0,2.18,.23,4.33,.68,6.44,.45,2.11,1.21,4,2.27,5.65,1.06,1.66,2.47,2.99,4.26,4.01,1.78,1.02,4.02,1.53,6.71,1.53,1.67,0,3.2-.27,4.59-.82,1.38-.55,2.59-1.3,3.63-2.27,1.04-.96,1.91-2.1,2.62-3.41,.71-1.31,1.25-2.75,1.61-4.31h3.88c-.44,1.89-1.07,3.69-1.91,5.38-.84,1.69-1.94,3.18-3.3,4.45-1.36,1.27-3.02,2.28-4.97,3.03-1.95,.75-4.23,1.12-6.85,1.12-3.02,0-5.61-.56-7.75-1.66-2.15-1.11-3.9-2.61-5.27-4.5-1.36-1.89-2.36-4.09-2.98-6.58-.62-2.49-.93-5.14-.93-7.94,0-3.75,.46-6.93,1.39-9.55s2.21-4.76,3.85-6.41c1.64-1.66,3.57-2.86,5.79-3.6,2.22-.75,4.64-1.12,7.26-1.12,2,0,3.87,.26,5.6,.79,1.73,.53,3.26,1.32,4.59,2.38,1.33,1.06,2.42,2.36,3.28,3.9,.85,1.55,1.45,3.34,1.77,5.38h-3.82Z"/>
              <path class="cls-9" d="M953.08,1033.37h28.61v3.17h-12.45v36.14h-3.71v-36.14h-12.45v-3.17Z"/>
              <path class="cls-9" d="M1023.83,1072.68v-39.31h5.68l12.88,34.67h.11l12.67-34.67h5.62v39.31h-3.71v-35.05h-.11l-12.88,35.05h-3.49l-12.94-35.05h-.11v35.05h-3.71Z"/>
            </g>
          </g>
          <circle id="me" class="cls-5" cx="968.43" cy="765.04" r="116.36"/>
          <g id="sphereFrontAndPojector">
            <path id="sphereFront" class="cls-8" d="M968.43,272.16c-271.75,0-492.88,221.15-492.88,492.91s221.13,492.85,492.88,492.85,492.88-221.08,492.88-492.85-221.13-492.91-492.88-492.91Zm221.46,794.13c-99.27,0-176.39-63.87-221.09-152.44-2.91-5.42-5.52-10.85-7.84-16.27-18.29-40.67-28.16-86.16-28.16-132.26s9.58-89.48,26.7-129.55c4.06-9.64,8.71-18.98,13.64-28.02h.29c45.87-83.76,120.66-143.41,216.45-143.41,132.94,0,232.55,145.52,232.55,300.97s-110.34,300.98-232.55,300.98Z"/>
            <g id="pojects">
              <path id="sphereProjector" class="cls-16" d="M1293.9,1360.87c-153.74,0-273.17-128.72-342.4-307.25-4.5-10.93-8.54-21.86-12.14-32.79-28.32-81.97-43.6-173.67-43.6-266.58s14.83-180.35,41.35-261.11c6.29-19.43,13.49-38.25,21.13-56.47h.45c71.03-168.81,186.87-289.04,335.21-289.04,205.88,0,360.14,293.3,360.14,606.62s-170.88,606.62-360.14,606.62Z"/>
              <path id="bigsphereProjector" class="cls-10" d="M1285.59,1522.93c-245.99,0-437.07-160.91-547.83-384.07-7.2-13.67-13.67-27.33-19.42-40.99-45.31-102.47-69.76-217.08-69.76-333.22s23.73-225.43,66.17-326.39c10.07-24.29,21.58-47.81,33.8-70.59h.72C862.9,156.66,1048.24,6.37,1285.59,6.37c329.41,0,576.22,366.62,576.22,758.28s-273.41,758.28-576.22,758.28Z"/>
            </g>
          </g>
          <g id="sphereDefuse">
            <circle class="cls-15" cx="968.43" cy="765.04" r="492.12"/>
          </g>
        </g>
        <g id="Features">
          <g id="feature3">
            <g id="feature3in">
              <g id="key">
                <path class="cls-12" d="M348.38,1508.22c19.24,0,38.13,7.85,51.82,21.54,20.22,20.22,24.36,49.43,11.06,78.13l-.9,1.95-1.2,2.6,2.07,1.98,99.57,94.91v39.39h-35.33c-2.22-.21-4.13-1.07-5.56-2.5-1.8-1.8-1.94-2.23-1.94-5.77v-15.41h-14.21v-23.68h-23.68v-18.94h-18.94v-18.94h-25.12l-11.96-12.19-1.7-1.74-2.33,.72-1.75,.54c-7.43,2.29-15,3.44-22.5,3.44-18.56,0-36.04-7.17-49.22-20.19-27.13-26.8-29.17-70.54-4.65-99.58,13.52-16,32.42-25.29,53.22-26.16,1.08-.05,2.17-.07,3.25-.07m0-4c-1.14,0-2.28,.03-3.43,.08-21.93,.92-41.84,10.71-56.1,27.58-25.86,30.63-23.72,76.76,4.89,105.01,14.14,13.97,32.6,21.34,52.03,21.34,7.81,0,15.77-1.19,23.67-3.62l1.75-.54,12.62,12.87c.33,.33,.78,.52,1.24,.52h22.07v17.21c0,.96,.78,1.74,1.74,1.74h17.21v17.21c0,.96,.78,1.74,1.74,1.74h21.94v21.94c0,.96,.78,1.74,1.74,1.74h12.47v11.41c0,4.06,.25,5.74,3.11,8.6,2.13,2.14,4.97,3.41,8.21,3.67h37.77c.96,0,1.74-.78,1.74-1.74v-42.62c0-.47-.2-.92-.54-1.25l-100.27-95.57,.9-1.95c14.03-30.29,9.59-61.18-11.87-82.64-14.54-14.54-34.29-22.71-54.65-22.71h0Z"/>
                <g>
                  <path id="sphereFront-2" data-name="sphereFront" class="cls-1" d="M366.91,1574.26c6.09-14.29,5.42-30.01-4.5-39.92-10.31-10.31-24.79-11.94-38.74-7.86l-.04-.04c-1.5,.44-3.01,.94-4.48,1.55-6.16,2.47-11.96,6.21-16.83,11.07-4.96,4.96-8.8,10.92-11.2,17.27-.34,.83-.64,1.7-.91,2.6-4.72,14.35-3.3,29.53,7.39,40.21,9.12,9.12,25.18,10.09,39.74,4.24,6.43-2.58,12.57-6.48,17.69-11.61s9.16-11.19,11.87-17.52Z"/>
                  <path class="cls-1" d="M355.03,1591.78c-5.13,5.13-11.26,9.03-17.69,11.61-2.5-3.44-3.96-7.68-3.95-12.27,0-11.6,9.4-20.99,20.99-20.99,4.7,0,9.03,1.53,12.52,4.14-2.71,6.33-6.73,12.37-11.87,17.52Z"/>
                </g>
              </g>
            </g>
          </g>
          <g id="feature2">
            <g id="feature2in">
              <g id="coins">
                <rect class="cls-6" x="887.17" y="1531.78" width="174.05" height="20.74" rx="8.62" ry="8.62"/>
                <path class="cls-6" d="M1078.5,1565.68v3.51c0,4.74-3.88,8.61-8.62,8.61h-156.82c-4.73,0-8.61-3.87-8.61-8.61v-3.51c0-4.74,3.88-8.61,8.61-8.61h156.82c4.74,0,8.62,3.87,8.62,8.61Z"/>
                <path class="cls-6" d="M1078.5,1590.97v3.51c0,4.74-3.88,8.61-8.62,8.61h-78.88c-9-9.16-20.03-16.31-32.35-20.73h111.23c4.74,0,8.62,3.88,8.62,8.61Z"/>
                <path class="cls-6" d="M1078.5,1616.26v3.51c0,4.74-3.88,8.61-8.62,8.61h-61.64c-3.36-7.55-7.78-14.52-13.07-20.73h74.71c4.74,0,8.62,3.88,8.62,8.61Z"/>
                <path class="cls-6" d="M1078.5,1641.56v3.5c0,4.74-3.88,8.62-8.62,8.62h-54.76c-.81-7.22-2.51-14.17-5-20.74h59.76c4.74,0,8.62,3.88,8.62,8.62Z"/>
                <path class="cls-6" d="M1078.5,1666.85v3.5c0,4.74-3.88,8.62-8.62,8.62h-55.61c.92-5.04,1.4-10.24,1.4-15.55,0-1.74-.05-3.47-.16-5.19h54.37c4.74,0,8.62,3.88,8.62,8.62Z"/>
                <path class="cls-6" d="M1077.87,1692.14v3.5c0,4.74-3.88,8.62-8.61,8.62h-63.88c3.49-6.46,6.18-13.42,7.93-20.74h55.95c4.73,0,8.61,3.88,8.61,8.62Z"/>
                <path class="cls-6" d="M1078.5,1717.27v3.51c0,4.73-3.88,8.61-8.62,8.61h-85c7.03-5.89,13.11-12.89,17.96-20.73h67.04c4.74,0,8.62,3.87,8.62,8.61Z"/>
              </g>
              <g id="ctm">
                <g>
                  <path id="sphereFront-3" data-name="sphereFront" class="cls-7" d="M929.4,1681.52c4.9,12.16,14.68,21.15,26.52,21.15s21.92-7.67,27.81-18.44h.04c.63-1.16,1.23-2.36,1.75-3.6,2.2-5.15,3.44-10.85,3.44-16.66s-1.27-11.77-3.62-16.99c-.3-.7-.63-1.39-1-2.09-5.75-11.38-15.66-19.59-28.41-19.59-10.89,0-21.05,9.01-26.25,21.19-2.3,5.38-3.63,11.37-3.63,17.49s1.21,12.15,3.37,17.54Z"/>
                  <path class="cls-7" d="M926.03,1663.98c0-6.12,1.33-12.11,3.63-17.49,3.55,.57,6.95,2.22,9.68,4.96,6.92,6.92,6.92,18.14,0,25.06-2.8,2.8-6.31,4.47-9.94,5.01-2.16-5.39-3.37-11.4-3.37-17.54Z"/>
                  <circle class="cls-3" cx="929.5" cy="1664" r="65"/>
                </g>
                <path class="cls-12" d="M938.48,1580.8c6.55,.7,12.99,2.18,19.16,4.38,11.68,4.19,22.48,11.11,31.23,20.01,1.39,1.41,2.74,2.88,4.02,4.4,5.15,6.05,9.4,12.78,12.62,20.01,.64,1.42,1.25,2.9,1.81,4.39,2.43,6.41,4.05,13.15,4.82,20.01,.18,1.62,.31,3.05,.38,4.4,.1,1.59,.15,3.27,.15,5,0,5.05-.45,10.1-1.35,15.01-.27,1.48-.58,2.96-.93,4.39-1.66,6.96-4.24,13.69-7.66,20.02-.76,1.41-1.58,2.84-2.45,4.24-4.67,7.55-10.51,14.29-17.34,20.01-14.92,12.52-33.87,19.41-53.37,19.41-45.81,0-83.08-37.27-83.08-83.08,0-20.67,7.64-40.48,21.5-55.78,13.73-15.15,32.44-24.68,52.68-26.84h17.8m.16-3h-18.12c-43.28,4.53-77.02,41.13-77.02,85.62,0,47.54,38.54,86.08,86.08,86.08,21.06,0,40.34-7.56,55.3-20.11,7.03-5.89,13.11-12.89,17.96-20.73,.89-1.44,1.74-2.91,2.54-4.4,3.49-6.46,6.18-13.42,7.93-20.74,.36-1.5,.68-3.02,.96-4.55,.92-5.04,1.4-10.24,1.4-15.55,0-1.74-.05-3.47-.16-5.19-.08-1.53-.22-3.05-.39-4.55-.81-7.22-2.51-14.17-5-20.74-.58-1.54-1.21-3.07-1.88-4.56-3.36-7.55-7.78-14.52-13.07-20.73-1.33-1.57-2.72-3.09-4.17-4.56-9-9.16-20.03-16.31-32.35-20.73-6.36-2.28-13.06-3.83-20.01-4.56h0Z"/>
              </g>
            </g>
          </g>
          <g id="feature1">
            <g id="feature1in">
              <g id="cam">
                <path class="cls-4" d="M1496.15,1690.65c-27.66-16.54-46.19-46.79-46.19-81.37,0-52.33,42.42-94.75,94.75-94.75s94.75,42.42,94.75,94.75c0,34.49-18.43,64.68-45.98,81.25"/>
                <path class="cls-12" d="M1593.05,1693.2c26.49,8.59,49.95,24.02,68.4,44.9h-51.42c-18.97-14.17-41.53-21.66-65.31-21.66s-46.34,7.48-65.31,21.66h-50.82c18.35-20.77,41.69-36.16,68.02-44.78,14.6,8.36,31.19,12.77,48.11,12.77s33.69-4.45,48.34-12.89m-.49-4.35c-13.98,8.41-30.35,13.25-47.85,13.25s-33.7-4.79-47.64-13.12c-30.76,9.69-57.49,28.44-77.06,53.13h60.73c17.73-13.58,39.91-21.66,63.97-21.66s46.24,8.07,63.97,21.66h61.33c-19.65-24.79-46.53-43.61-77.45-53.26h0Z"/>
              </g>
              <g>
                <path id="sphereFront-4" data-name="sphereFront" class="cls-2" d="M1546.96,1582.97c-6.96-17.3-20.87-30.07-37.7-30.07-17.5,0-31.17,10.91-39.55,26.21h-.06c-.9,1.64-1.75,3.35-2.48,5.11-3.13,7.32-4.88,15.42-4.88,23.68,0,8.41,1.8,16.73,5.15,24.16,.42,1,.9,1.98,1.43,2.98,8.17,16.18,22.26,27.86,40.4,27.86,15.48,0,29.93-12.81,37.33-30.13,3.26-7.65,5.16-16.17,5.16-24.87,0-8.73-1.72-17.27-4.79-24.94Z"/>
                <path class="cls-2" d="M1551.75,1607.91c0,8.7-1.9,17.22-5.16,24.87-5.04-.8-9.88-3.16-13.77-7.06-9.84-9.84-9.84-25.79,0-35.63,3.98-3.98,8.97-6.36,14.14-7.12,3.07,7.67,4.79,16.21,4.79,24.94Z"/>
              </g>
            </g>
          </g>
        </g>
      </g>
    </g>
  </g>

  <animateTransform
     xlink:href="#sphereFrontAndPojector"
       attributeName="transform"
       begin="3s; sphere-rotate2.end+0.1s"
       dur="15s"
       type="rotate"
		values="0 968.43 765.04; 360 968.43 765.04"
		keyTimes="0; 1"
		keySplines="0.0, 0.0, 0.58, 1.0;"	
		calcMode="spline"
       repeatCount="1"
       id="sphere-rotate1"
    />

            <animateTransform
     xlink:href="#sphereFrontAndPojector"
       attributeName="transform"
       begin="sphere-rotate1.end+0.1s"
       dur="15s"
       type="rotate"
		values="0 968.43 765.04; 360 968.43 765.04"
		keyTimes="0; 1"
		keySplines="0.0, 0.0, 0.58, 1.0;"	
		calcMode="spline"
       repeatCount="1"
       id="sphere-rotate2"
    />


      <animateTransform
        xlink:href="#feature1in"
        attributeName="transform"
        dur="4s"
        type="scale"
        values="1; 1.4; 1"
        keyTimes="0; 0.2; 1"
        keySplines="0.0, 0.0, 0.58, 1.0; 0.0, 0.0, 0.58, 1.0;"	
        calcMode="spline"
        begin="sphere-rotate1.begin + 1.3s; sphere-rotate2.begin + 1.3s"
        repeatCount="1"
        fill="freez"
        id="f1scale"
      />

      <animateTransform
        xlink:href="#feature1"
        attributeName="transform"
        dur="4s"
        type="translate"
        values="0 0; -600 -600; 0 0"
        keyTimes="0; 0.2; 1"
        keySplines="0.0, 0.0, 0.58, 1.0; 0.0, 0.0, 0.58, 1.0;"	
        calcMode="spline"
        begin="f1scale.begin"
        repeatCount="1"
        fill="freez"
      />



            <animateTransform
        xlink:href="#feature2in"
        attributeName="transform"
        dur="4s"
        type="scale"
        values="1; 1.4; 1"
        keyTimes="0; 0.2; 1"
        keySplines="0.0, 0.0, 0.58, 1.0; 0.0, 0.0, 0.58, 1.0;"	
        calcMode="spline"
        begin="sphere-rotate1.begin + 1.8s; sphere-rotate2.begin + 1.8s"
        repeatCount="1"
        fill="freez"
        id="f2scale"
      />

      <animateTransform
        xlink:href="#feature2"
        attributeName="transform"
        dur="4s"
        type="translate"
        values="0 0; -400 -600; 0 0"
        keyTimes="0; 0.2; 1"
        keySplines="0.0, 0.0, 0.58, 1.0; 0.0, 0.0, 0.58, 1.0;"	
        calcMode="spline"
        begin="f2scale.begin"
        repeatCount="1"
        fill="freez"
      />

          <animateTransform
        xlink:href="#feature3in"
        attributeName="transform"
        dur="4s"
        type="scale"
        values="1; 1.4; 1"
        keyTimes="0; 0.2; 1"
        keySplines="0.0, 0.0, 0.58, 1.0; 0.0, 0.0, 0.58, 1.0;"	
        calcMode="spline"
        begin="sphere-rotate1.begin + 3s; sphere-rotate2.begin + 3s"
        repeatCount="1"
        fill="freez"
        id="f3scale"
      />

      <animateTransform
        xlink:href="#feature3"
        attributeName="transform"
        dur="4s"
        type="translate"
        values="0 0; -200 -600; 0 0"
        keyTimes="0; 0.2; 1"
        keySplines="0.0, 0.0, 0.58, 1.0; 0.0, 0.0, 0.58, 1.0;"	
        calcMode="spline"
        begin="f3scale.begin"
        repeatCount="1"
        fill="freez"
      />

</svg>